STARTFONT 2.1
COMMENT
COMMENT Converted from OpenType font "Times.otf" by "otf2bdf 3.0".
COMMENT
FONT -FreeType-Times New Roman-Medium-R-Normal--22-160-100-100-P-108-ISO10646-1
SIZE 16 100 100
FONTBOUNDINGBOX 37 29 -13 -7
STARTPROPERTIES 19
FOUNDRY "FreeType"
FAMILY_NAME "Times New Roman"
WEIGHT_NAME "Medium"
SLANT "R"
SETWIDTH_NAME "Normal"
ADD_STYLE_NAME ""
PIXEL_SIZE 22
POINT_SIZE 160
RESOLUTION_X 100
RESOLUTION_Y 100
SPACING "P"
AVERAGE_WIDTH 108
CHARSET_REGISTRY "ISO10646"
CHARSET_ENCODING "1"
FONT_ASCENT 19
FONT_DESCENT 4
COPYRIGHT "© 2006 The Monotype Corporation. All Rights Reserved."
_OTF_FONTFILE "Times.otf"
_OTF_PSNAME "TimesNewRomanPSMT"
ENDPROPERTIES
CHARS 1425
STARTCHAR 0020
ENCODING 32
SWIDTH 270 0
DWIDTH 6 0
BBX 0 0 0 0
BITMAP
ENDCHAR
STARTCHAR 0021
ENCODING 33
SWIDTH 315 0
DWIDTH 7 0
BBX 3 15 2 0
BITMAP
60
E0
60
60
60
60
40
40
40
40
40
00
00
60
60
ENDCHAR
STARTCHAR 0022
ENCODING 34
SWIDTH 405 0
DWIDTH 9 0
BBX 7 6 1 9
BITMAP
44
EE
44
44
44
44
ENDCHAR
STARTCHAR 0023
ENCODING 35
SWIDTH 495 0
DWIDTH 11 0
BBX 11 15 0 0
BITMAP
0840
0840
0880
0880
1080
FFE0
1080
1100
1100
FFE0
2100
2100
2200
2200
4200
ENDCHAR
STARTCHAR 0024
ENCODING 36
SWIDTH 495 0
DWIDTH 11 0
BBX 9 18 1 -2
BITMAP
0800
3E00
4900
C900
C900
C800
7800
3800
1C00
0F00
0B00
0980
8980
8980
8900
EE00
1800
0800
ENDCHAR
STARTCHAR 0025
ENCODING 37
SWIDTH 855 0
DWIDTH 19 0
BBX 17 16 1 -1
BITMAP
780400
C80800
CC1000
CC1000
CC2000
CC4000
C84000
708000
010F00
011100
021180
043180
041180
081100
101B00
200400
ENDCHAR
STARTCHAR 0026
ENCODING 38
SWIDTH 765 0
DWIDTH 17 0
BBX 16 15 1 0
BITMAP
0780
0C40
0840
1840
0C80
0D00
0E1C
1E18
2710
4320
C3A0
C1C0
C0E1
E172
7E3C
ENDCHAR
STARTCHAR 0027
ENCODING 39
SWIDTH 180 0
DWIDTH 4 0
BBX 2 6 1 9
BITMAP
C0
C0
C0
C0
C0
80
ENDCHAR
STARTCHAR 0028
ENCODING 40
SWIDTH 315 0
DWIDTH 7 0
BBX 6 20 1 -5
BITMAP
08
10
20
20
60
40
C0
C0
C0
C0
C0
C0
C0
40
60
60
20
10
08
04
ENDCHAR
STARTCHAR 0029
ENCODING 41
SWIDTH 315 0
DWIDTH 7 0
BBX 6 20 0 -5
BITMAP
40
20
10
18
08
0C
0C
0C
0C
0C
0C
0C
0C
0C
08
08
10
10
20
C0
ENDCHAR
STARTCHAR 002A
ENCODING 42
SWIDTH 495 0
DWIDTH 11 0
BBX 8 9 2 6
BITMAP
10
90
D7
7C
38
D6
92
10
10
ENDCHAR
STARTCHAR 002B
ENCODING 43
SWIDTH 585 0
DWIDTH 13 0
BBX 12 11 0 2
BITMAP
0200
0200
0200
0200
0200
FFF0
0200
0200
0200
0200
0200
ENDCHAR
STARTCHAR 002C
ENCODING 44
SWIDTH 270 0
DWIDTH 6 0
BBX 3 6 1 -4
BITMAP
E0
E0
20
20
40
80
ENDCHAR
STARTCHAR 002D
ENCODING 45
SWIDTH 315 0
DWIDTH 7 0
BBX 6 2 1 4
BITMAP
FC
FC
ENDCHAR
STARTCHAR 002E
ENCODING 46
SWIDTH 270 0
DWIDTH 6 0
BBX 2 2 2 0
BITMAP
C0
C0
ENDCHAR
STARTCHAR 002F
ENCODING 47
SWIDTH 270 0
DWIDTH 6 0
BBX 6 15 0 0
BITMAP
04
04
08
08
08
10
10
10
20
20
20
40
40
40
80
ENDCHAR
STARTCHAR 0030
ENCODING 48
SWIDTH 495 0
DWIDTH 11 0
BBX 9 15 1 0
BITMAP
1C00
2200
6100
4180
C180
C180
C180
C180
C180
C180
C180
C180
6100
6300
3E00
ENDCHAR
STARTCHAR 0031
ENCODING 49
SWIDTH 495 0
DWIDTH 11 0
BBX 4 15 3 0
BITMAP
30
F0
30
30
30
30
30
30
30
30
30
30
30
30
70
ENDCHAR
STARTCHAR 0032
ENCODING 50
SWIDTH 495 0
DWIDTH 11 0
BBX 9 15 1 0
BITMAP
3C00
7E00
8300
8300
0300
0300
0300
0200
0400
0800
0800
1000
2000
7F80
FF00
ENDCHAR
STARTCHAR 0033
ENCODING 51
SWIDTH 495 0
DWIDTH 11 0
BBX 8 15 1 0
BITMAP
3C
6E
86
02
02
04
0C
3E
07
03
01
01
03
C2
FC
ENDCHAR
STARTCHAR 0034
ENCODING 52
SWIDTH 495 0
DWIDTH 11 0
BBX 10 15 0 0
BITMAP
0100
0300
0500
0500
0900
1100
1100
2100
4100
8100
FFC0
0100
0100
0100
0100
ENDCHAR
STARTCHAR 0035
ENCODING 53
SWIDTH 495 0
DWIDTH 11 0
BBX 9 15 1 0
BITMAP
1F80
1F00
2000
2000
7000
7C00
0E00
0700
0300
0100
0100
0100
0100
C200
FC00
ENDCHAR
STARTCHAR 0036
ENCODING 54
SWIDTH 495 0
DWIDTH 11 0
BBX 9 15 1 0
BITMAP
0300
0C00
1800
3000
6000
6000
DF00
E380
C180
C180
C180
C180
4180
6100
3E00
ENDCHAR
STARTCHAR 0037
ENCODING 55
SWIDTH 495 0
DWIDTH 11 0
BBX 9 15 1 0
BITMAP
7F80
7F80
8180
0100
0100
0200
0200
0200
0400
0400
0400
0800
0800
0800
1000
ENDCHAR
STARTCHAR 0038
ENCODING 56
SWIDTH 495 0
DWIDTH 11 0
BBX 9 15 1 0
BITMAP
3E00
6100
4100
C100
6100
7200
3C00
1C00
2E00
6300
4380
C180
C180
4100
3E00
ENDCHAR
STARTCHAR 0039
ENCODING 57
SWIDTH 495 0
DWIDTH 11 0
BBX 9 15 1 0
BITMAP
3C00
6300
4300
C180
C180
C180
C180
E180
7780
1B00
0300
0600
0600
0C00
7000
ENDCHAR
STARTCHAR 003A
ENCODING 58
SWIDTH 270 0
DWIDTH 6 0
BBX 2 10 2 0
BITMAP
C0
C0
00
00
00
00
00
00
C0
C0
ENDCHAR
STARTCHAR 003B
ENCODING 59
SWIDTH 270 0
DWIDTH 6 0
BBX 3 14 2 -4
BITMAP
C0
C0
00
00
00
00
00
00
C0
E0
20
40
40
80
ENDCHAR
STARTCHAR 003C
ENCODING 60
SWIDTH 585 0
DWIDTH 13 0
BBX 12 10 0 3
BITMAP
0070
0180
0600
3800
C000
3000
0C00
0380
0060
0010
ENDCHAR
STARTCHAR 003D
ENCODING 61
SWIDTH 585 0
DWIDTH 13 0
BBX 12 5 0 5
BITMAP
FFF0
0000
0000
0000
FFF0
ENDCHAR
STARTCHAR 003E
ENCODING 62
SWIDTH 585 0
DWIDTH 13 0
BBX 12 11 0 2
BITMAP
8000
6000
1800
0700
00C0
0030
0060
0380
0C00
3000
C000
ENDCHAR
STARTCHAR 003F
ENCODING 63
SWIDTH 450 0
DWIDTH 10 0
BBX 8 15 1 0
BITMAP
3C
46
C3
C3
43
02
06
04
08
10
10
10
00
18
18
ENDCHAR
STARTCHAR 0040
ENCODING 64
SWIDTH 900 0
DWIDTH 20 0
BBX 19 20 1 -5
BITMAP
03FC00
0C0300
100080
200080
200040
40FC40
410C40
830840
860840
861840
841880
8C3080
8C7100
47B220
421C40
400040
200080
100100
0C0600
03F800
ENDCHAR
STARTCHAR 0041
ENCODING 65
SWIDTH 720 0
DWIDTH 16 0
BBX 14 15 1 0
BITMAP
0200
0300
0300
0780
0580
0980
08C0
08C0
1060
1FE0
2070
2030
4030
4038
E03C
ENDCHAR
STARTCHAR 0042
ENCODING 66
SWIDTH 675 0
DWIDTH 15 0
BBX 14 15 0 0
BITMAP
FF80
3870
3830
3818
3818
3838
3870
3FC0
3830
3818
381C
381C
3818
3838
7FE0
ENDCHAR
STARTCHAR 0043
ENCODING 67
SWIDTH 675 0
DWIDTH 15 0
BBX 13 15 1 0
BITMAP
0FD0
1830
3018
6008
E008
C000
C000
C000
C000
C000
E000
6000
7018
3810
1FE0
ENDCHAR
STARTCHAR 0044
ENCODING 68
SWIDTH 720 0
DWIDTH 16 0
BBX 15 15 0 0
BITMAP
FF80
3870
3818
380C
380E
380E
3806
3806
3806
3806
380E
380C
381C
3830
7FC0
ENDCHAR
STARTCHAR 0045
ENCODING 69
SWIDTH 630 0
DWIDTH 14 0
BBX 13 15 0 0
BITMAP
FFF0
3810
1810
1800
1800
1820
1820
1FE0
1820
1820
1800
1800
1808
3810
7FF0
ENDCHAR
STARTCHAR 0046
ENCODING 70
SWIDTH 540 0
DWIDTH 12 0
BBX 11 15 0 0
BITMAP
FFE0
3820
3820
3800
3800
3840
3840
3FC0
3840
3840
3800
3800
3800
3800
7C00
ENDCHAR
STARTCHAR 0047
ENCODING 71
SWIDTH 720 0
DWIDTH 16 0
BBX 14 15 1 0
BITMAP
07C8
1838
3008
6008
6000
C000
C000
C03C
C018
C018
E018
6018
7018
3818
0FF0
ENDCHAR
STARTCHAR 0048
ENCODING 72
SWIDTH 720 0
DWIDTH 16 0
BBX 16 15 0 0
BITMAP
FE7F
381C
3818
3818
3818
3818
3818
3FF8
3818
3818
3818
3818
3818
381C
7C3E
ENDCHAR
STARTCHAR 0049
ENCODING 73
SWIDTH 315 0
DWIDTH 7 0
BBX 6 15 1 0
BITMAP
FC
30
30
30
30
30
30
30
30
30
30
30
30
30
78
ENDCHAR
STARTCHAR 004A
ENCODING 74
SWIDTH 405 0
DWIDTH 9 0
BBX 9 15 0 0
BITMAP
3F80
0E00
0C00
0C00
0C00
0C00
0C00
0C00
0C00
0C00
0C00
0C00
0C00
EC00
7800
ENDCHAR
STARTCHAR 004B
ENCODING 75
SWIDTH 720 0
DWIDTH 16 0
BBX 16 15 0 0
BITMAP
FE7C
3830
3820
3840
3880
3900
3A00
3E00
3F00
3B80
39C0
38E0
3870
3838
7C3F
ENDCHAR
STARTCHAR 004C
ENCODING 76
SWIDTH 630 0
DWIDTH 14 0
BBX 13 15 0 0
BITMAP
FE00
3800
1800
1800
1800
1800
1800
1800
1800
1800
1800
1808
1808
3810
7FF0
ENDCHAR
STARTCHAR 004D
ENCODING 77
SWIDTH 900 0
DWIDTH 20 0
BBX 19 15 0 0
BITMAP
F801E0
380180
3C0380
2C0380
2C0580
260580
260980
230980
231180
219180
21B180
21E180
20E180
20C180
7043C0
ENDCHAR
STARTCHAR 004E
ENCODING 78
SWIDTH 720 0
DWIDTH 16 0
BBX 16 15 0 0
BITMAP
F01F
3804
1804
1C04
1E04
1704
1384
11C4
10C4
1064
1074
103C
101C
100C
3804
ENDCHAR
STARTCHAR 004F
ENCODING 79
SWIDTH 720 0
DWIDTH 16 0
BBX 14 15 1 0
BITMAP
0FC0
1060
3030
6018
E01C
C00C
C00C
C00C
C00C
C00C
E01C
6018
6018
3030
0FC0
ENDCHAR
STARTCHAR 0050
ENCODING 80
SWIDTH 540 0
DWIDTH 12 0
BBX 12 15 0 0
BITMAP
FF00
39C0
3860
3860
3870
3860
3860
39C0
3E00
3800
3800
3800
3800
3800
7C00
ENDCHAR
STARTCHAR 0051
ENCODING 81
SWIDTH 720 0
DWIDTH 16 0
BBX 14 19 1 -4
BITMAP
0FC0
1860
3030
6018
E01C
C00C
C00C
C00C
C00C
C00C
E01C
6018
6018
3030
0CC0
0780
01C0
00E0
0038
ENDCHAR
STARTCHAR 0052
ENCODING 82
SWIDTH 675 0
DWIDTH 15 0
BBX 14 15 0 0
BITMAP
FF80
38E0
3860
3870
3870
3870
38E0
3F80
3B80
3980
38C0
3860
3870
3830
7C1C
ENDCHAR
STARTCHAR 0053
ENCODING 83
SWIDTH 540 0
DWIDTH 12 0
BBX 10 15 1 0
BITMAP
3E80
6180
4080
C080
E000
7000
3C00
1F00
0780
03C0
00C0
80C0
40C0
4080
7F00
ENDCHAR
STARTCHAR 0054
ENCODING 84
SWIDTH 630 0
DWIDTH 14 0
BBX 12 15 1 0
BITMAP
FFF0
8630
8610
0600
0600
0600
0600
0600
0600
0600
0600
0600
0600
0600
0F00
ENDCHAR
STARTCHAR 0055
ENCODING 85
SWIDTH 720 0
DWIDTH 16 0
BBX 16 15 0 0
BITMAP
FC1F
3004
3004
3004
3004
3004
3004
3004
3004
3004
3004
3808
1808
1818
0FE0
ENDCHAR
STARTCHAR 0056
ENCODING 86
SWIDTH 720 0
DWIDTH 16 0
BBX 16 15 0 0
BITMAP
FC1F
3804
3804
1808
1C08
0C10
0C10
0610
0620
0720
0340
03C0
01C0
0180
0080
ENDCHAR
STARTCHAR 0057
ENCODING 87
SWIDTH 945 0
DWIDTH 21 0
BBX 21 15 0 0
BITMAP
FDF8F8
306020
307020
183040
183040
1C3840
0C5880
0C5880
0E4C80
068D00
068D00
038700
030600
030600
010200
ENDCHAR
STARTCHAR 0058
ENCODING 88
SWIDTH 720 0
DWIDTH 16 0
BBX 15 15 0 0
BITMAP
FE3E
1C08
0C10
0E10
0620
0340
0380
0180
01C0
02E0
0470
0830
1838
101C
783E
ENDCHAR
STARTCHAR 0059
ENCODING 89
SWIDTH 720 0
DWIDTH 16 0
BBX 16 15 0 0
BITMAP
FC1F
380C
1808
1C10
0C10
0620
0740
0340
0180
0180
0180
0180
0180
0180
03C0
ENDCHAR
STARTCHAR 005A
ENCODING 90
SWIDTH 630 0
DWIDTH 14 0
BBX 13 15 0 0
BITMAP
3FF8
2070
4060
00E0
01C0
0180
0300
0700
0600
0C00
1C00
3808
3008
7018
FFF0
ENDCHAR
STARTCHAR 005B
ENCODING 91
SWIDTH 315 0
DWIDTH 7 0
BBX 5 19 2 -4
BITMAP
F8
80
80
80
80
80
80
80
80
80
80
80
80
80
80
80
80
80
F0
ENDCHAR
STARTCHAR 005C
ENCODING 92
SWIDTH 270 0
DWIDTH 6 0
BBX 6 15 0 0
BITMAP
80
40
40
40
20
20
20
10
10
10
08
08
08
04
04
ENDCHAR
STARTCHAR 005D
ENCODING 93
SWIDTH 315 0
DWIDTH 7 0
BBX 5 19 1 -4
BITMAP
F8
18
18
18
18
18
18
18
18
18
18
18
18
18
18
18
18
18
F8
ENDCHAR
STARTCHAR 005E
ENCODING 94
SWIDTH 450 0
DWIDTH 10 0
BBX 9 8 1 7
BITMAP
0800
1800
1400
2400
4200
4100
8100
8080
ENDCHAR
STARTCHAR 005F
ENCODING 95
SWIDTH 495 0
DWIDTH 11 0
BBX 11 1 0 -4
BITMAP
FFE0
ENDCHAR
STARTCHAR 0060
ENCODING 96
SWIDTH 315 0
DWIDTH 7 0
BBX 3 4 2 11
BITMAP
C0
40
40
20
ENDCHAR
STARTCHAR 0061
ENCODING 97
SWIDTH 450 0
DWIDTH 10 0
BBX 9 10 1 0
BITMAP
7C00
C600
C600
0600
1E00
6600
C600
C600
CE80
F700
ENDCHAR
STARTCHAR 0062
ENCODING 98
SWIDTH 495 0
DWIDTH 11 0
BBX 9 15 1 0
BITMAP
C000
C000
4000
4000
4000
4F00
5380
6180
4180
4180
4180
4180
4180
4100
7E00
ENDCHAR
STARTCHAR 0063
ENCODING 99
SWIDTH 450 0
DWIDTH 10 0
BBX 8 10 1 0
BITMAP
3E
43
C3
C0
C0
C0
C0
E1
72
3C
ENDCHAR
STARTCHAR 0064
ENCODING 100
SWIDTH 495 0
DWIDTH 11 0
BBX 9 15 1 0
BITMAP
0380
0180
0180
0180
0180
3F80
6380
C180
C180
C180
C180
C180
C180
6380
3D80
ENDCHAR
STARTCHAR 0065
ENCODING 101
SWIDTH 450 0
DWIDTH 10 0
BBX 8 10 1 0
BITMAP
3E
43
83
FF
80
C0
C0
E1
72
3C
ENDCHAR
STARTCHAR 0066
ENCODING 102
SWIDTH 315 0
DWIDTH 7 0
BBX 9 15 1 0
BITMAP
1F00
3180
3000
3000
3000
FC00
3000
3000
3000
3000
3000
3000
3000
3000
7800
ENDCHAR
STARTCHAR 0067
ENCODING 103
SWIDTH 495 0
DWIDTH 11 0
BBX 10 15 1 -5
BITMAP
3FC0
6300
4300
C300
6300
6300
3C00
4000
7000
7F80
40C0
8080
8080
FF00
3C00
ENDCHAR
STARTCHAR 0068
ENCODING 104
SWIDTH 495 0
DWIDTH 11 0
BBX 9 15 1 0
BITMAP
E000
6000
6000
6000
6000
6F00
7300
6100
6100
6100
6100
6100
6100
6180
E380
ENDCHAR
STARTCHAR 0069
ENCODING 105
SWIDTH 270 0
DWIDTH 6 0
BBX 4 15 1 0
BITMAP
60
60
00
00
00
60
E0
60
60
60
60
60
60
60
70
ENDCHAR
STARTCHAR 006A
ENCODING 106
SWIDTH 270 0
DWIDTH 6 0
BBX 6 20 -2 -5
BITMAP
0C
0C
00
00
00
0C
1C
0C
0C
0C
0C
0C
0C
0C
0C
0C
0C
0C
E8
70
ENDCHAR
STARTCHAR 006B
ENCODING 107
SWIDTH 495 0
DWIDTH 11 0
BBX 9 15 1 0
BITMAP
E000
6000
6000
6000
6000
6380
6200
6400
6800
7800
7C00
6C00
6600
6300
E380
ENDCHAR
STARTCHAR 006C
ENCODING 108
SWIDTH 270 0
DWIDTH 6 0
BBX 4 15 1 0
BITMAP
E0
60
60
60
60
60
60
60
60
60
60
60
60
60
70
ENDCHAR
STARTCHAR 006D
ENCODING 109
SWIDTH 765 0
DWIDTH 17 0
BBX 15 10 1 0
BITMAP
EF3C
734C
6186
6186
6186
6186
6186
6186
6186
E38E
ENDCHAR
STARTCHAR 006E
ENCODING 110
SWIDTH 495 0
DWIDTH 11 0
BBX 9 10 1 0
BITMAP
EF00
7300
6100
6100
6100
6100
6100
6100
6180
E380
ENDCHAR
STARTCHAR 006F
ENCODING 111
SWIDTH 495 0
DWIDTH 11 0
BBX 9 10 1 0
BITMAP
3E00
4300
C180
C180
C180
C180
C180
C180
6100
3E00
ENDCHAR
STARTCHAR 0070
ENCODING 112
SWIDTH 495 0
DWIDTH 11 0
BBX 10 15 0 -5
BITMAP
6780
69C0
30C0
20C0
20C0
20C0
20C0
20C0
3080
2900
2600
2000
2000
2000
F800
ENDCHAR
STARTCHAR 0071
ENCODING 113
SWIDTH 495 0
DWIDTH 11 0
BBX 10 15 1 -5
BITMAP
3F00
4300
C100
C100
C100
C100
C100
C100
E300
7D00
0100
0100
0100
0180
07C0
ENDCHAR
STARTCHAR 0072
ENCODING 114
SWIDTH 315 0
DWIDTH 7 0
BBX 6 10 1 0
BITMAP
EC
74
60
60
60
60
60
60
60
E0
ENDCHAR
STARTCHAR 0073
ENCODING 115
SWIDTH 405 0
DWIDTH 9 0
BBX 7 10 1 0
BITMAP
7C
84
C4
E0
78
3C
0E
86
86
FC
ENDCHAR
STARTCHAR 0074
ENCODING 116
SWIDTH 270 0
DWIDTH 6 0
BBX 6 13 0 0
BITMAP
10
30
30
FC
30
30
30
30
30
30
30
34
38
ENDCHAR
STARTCHAR 0075
ENCODING 117
SWIDTH 495 0
DWIDTH 11 0
BBX 9 10 1 0
BITMAP
E700
6100
6100
6100
6100
6100
6100
6100
6780
7980
ENDCHAR
STARTCHAR 0076
ENCODING 118
SWIDTH 495 0
DWIDTH 11 0
BBX 11 10 0 0
BITMAP
F0E0
3040
3080
1080
1900
1900
0E00
0E00
0600
0400
ENDCHAR
STARTCHAR 0077
ENCODING 119
SWIDTH 720 0
DWIDTH 16 0
BBX 16 10 0 0
BITMAP
F3C7
2182
3084
30C4
11C8
1A68
1A68
0E30
0C30
0420
ENDCHAR
STARTCHAR 0078
ENCODING 120
SWIDTH 495 0
DWIDTH 11 0
BBX 9 10 1 0
BITMAP
F380
6200
3400
3C00
1800
1C00
2600
2600
4300
C380
ENDCHAR
STARTCHAR 0079
ENCODING 121
SWIDTH 495 0
DWIDTH 11 0
BBX 11 15 0 -5
BITMAP
F0E0
3040
3080
1080
1900
1900
0D00
0E00
0600
0400
0400
0400
0800
7800
6000
ENDCHAR
STARTCHAR 007A
ENCODING 122
SWIDTH 450 0
DWIDTH 10 0
BBX 8 10 1 0
BITMAP
FF
83
86
0C
18
18
30
60
C1
FF
ENDCHAR
STARTCHAR 007B
ENCODING 123
SWIDTH 495 0
DWIDTH 11 0
BBX 6 20 3 -5
BITMAP
08
10
30
30
30
30
30
10
20
C0
60
20
10
30
30
30
30
10
10
0C
ENDCHAR
STARTCHAR 007C
ENCODING 124
SWIDTH 180 0
DWIDTH 4 0
BBX 1 20 2 -5
BITMAP
80
80
80
80
80
80
80
80
80
80
80
80
80
80
80
80
80
80
80
80
ENDCHAR
STARTCHAR 007D
ENCODING 125
SWIDTH 495 0
DWIDTH 11 0
BBX 6 20 2 -5
BITMAP
40
20
30
30
30
30
30
30
10
0C
18
10
30
30
30
30
30
20
20
C0
ENDCHAR
STARTCHAR 007E
ENCODING 126
SWIDTH 540 0
DWIDTH 12 0
BBX 12 3 0 4
BITMAP
7C10
8720
80C0
ENDCHAR
STARTCHAR 00A0
ENCODING 160
SWIDTH 270 0
DWIDTH 6 0
BBX 0 0 0 0
BITMAP
ENDCHAR
STARTCHAR 00A1
ENCODING 161
SWIDTH 315 0
DWIDTH 7 0
BBX 3 16 2 -5
BITMAP
40
60
60
00
00
40
40
40
40
40
60
60
60
60
E0
40
ENDCHAR
STARTCHAR 00A2
ENCODING 162
SWIDTH 495 0
DWIDTH 11 0
BBX 9 18 1 -4
BITMAP
0100
0200
0200
0200
1E00
6700
4700
4800
C800
D000
7080
7100
7B00
3E00
2000
4000
4000
4000
ENDCHAR
STARTCHAR 00A3
ENCODING 163
SWIDTH 495 0
DWIDTH 11 0
BBX 9 15 1 0
BITMAP
0F00
1180
3180
3000
3000
3000
3000
FE00
3000
3000
3000
3000
E080
BF80
CF00
ENDCHAR
STARTCHAR 00A4
ENCODING 164
SWIDTH 495 0
DWIDTH 11 0
BBX 10 10 1 3
BITMAP
BE80
4100
8080
8080
8080
8080
8080
4100
B680
0840
ENDCHAR
STARTCHAR 00A5
ENCODING 165
SWIDTH 495 0
DWIDTH 11 0
BBX 11 15 0 0
BITMAP
F9E0
7040
3080
3080
1900
1900
0E00
0E00
7FE0
0400
FFE0
0400
0400
0600
0E00
ENDCHAR
STARTCHAR 00A6
ENCODING 166
SWIDTH 180 0
DWIDTH 4 0
BBX 1 20 2 -5
BITMAP
80
80
80
80
80
80
80
80
00
00
00
00
80
80
80
80
80
80
80
80
ENDCHAR
STARTCHAR 00A7
ENCODING 167
SWIDTH 495 0
DWIDTH 11 0
BBX 7 19 2 -4
BITMAP
3C
44
46
40
60
30
5C
8E
86
82
C2
E2
74
38
0C
04
44
44
78
ENDCHAR
STARTCHAR 00A8
ENCODING 168
SWIDTH 315 0
DWIDTH 7 0
BBX 6 2 1 13
BITMAP
DC
C8
ENDCHAR
STARTCHAR 00A9
ENCODING 169
SWIDTH 765 0
DWIDTH 17 0
BBX 15 15 1 0
BITMAP
07C0
1830
2008
47E4
8824
9802
9002
B002
9002
9802
9812
4C24
43C8
3010
0FE0
ENDCHAR
STARTCHAR 00AA
ENCODING 170
SWIDTH 270 0
DWIDTH 6 0
BBX 6 7 0 8
BITMAP
78
C8
18
68
88
D8
2C
ENDCHAR
STARTCHAR 00AB
ENCODING 171
SWIDTH 495 0
DWIDTH 11 0
BBX 9 10 1 0
BITMAP
1080
1180
2100
6300
C600
C600
6300
2100
1180
1080
ENDCHAR
STARTCHAR 00AC
ENCODING 172
SWIDTH 585 0
DWIDTH 13 0
BBX 12 5 0 5
BITMAP
FFF0
0010
0010
0010
0010
ENDCHAR
STARTCHAR 00AD
ENCODING 173
SWIDTH 315 0
DWIDTH 7 0
BBX 6 2 1 4
BITMAP
FC
FC
ENDCHAR
STARTCHAR 00AE
ENCODING 174
SWIDTH 765 0
DWIDTH 17 0
BBX 15 15 1 0
BITMAP
07C0
1830
2008
4FC4
8C44
8C62
8C42
8F82
8D82
8C82
8CC2
4C64
4008
3010
0FE0
ENDCHAR
STARTCHAR 00AF
ENCODING 175
SWIDTH 495 0
DWIDTH 11 0
BBX 11 1 0 15
BITMAP
FFE0
ENDCHAR
STARTCHAR 00B0
ENCODING 176
SWIDTH 405 0
DWIDTH 9 0
BBX 7 7 1 8
BITMAP
38
44
82
82
86
4C
30
ENDCHAR
STARTCHAR 00B1
ENCODING 177
SWIDTH 540 0
DWIDTH 12 0
BBX 12 11 0 2
BITMAP
0400
0400
0400
0400
0400
FFF0
0400
0400
0400
0400
7FE0
ENDCHAR
STARTCHAR 00B2
ENCODING 178
SWIDTH 315 0
DWIDTH 7 0
BBX 6 8 0 7
BITMAP
78
8C
0C
08
10
20
44
FC
ENDCHAR
STARTCHAR 00B3
ENCODING 179
SWIDTH 315 0
DWIDTH 7 0
BBX 5 8 1 7
BITMAP
F0
10
10
30
18
18
10
E0
ENDCHAR
STARTCHAR 00B4
ENCODING 180
SWIDTH 315 0
DWIDTH 7 0
BBX 3 3 3 11
BITMAP
60
C0
80
ENDCHAR
STARTCHAR 00B5
ENCODING 181
SWIDTH 585 0
DWIDTH 13 0
BBX 11 15 1 -5
BITMAP
6180
6180
6180
6180
6180
6180
6180
6180
63A0
7DC0
4000
4000
4000
C000
4000
ENDCHAR
STARTCHAR 00B6
ENCODING 182
SWIDTH 450 0
DWIDTH 10 0
BBX 10 20 0 -5
BITMAP
1FC0
7C80
FC80
FC80
FC80
FC80
FC80
7C80
0480
0480
0480
0480
0480
0480
0480
0480
0480
0480
0480
0480
ENDCHAR
STARTCHAR 00B7
ENCODING 183
SWIDTH 270 0
DWIDTH 6 0
BBX 2 3 2 6
BITMAP
80
C0
C0
ENDCHAR
STARTCHAR 00B8
ENCODING 184
SWIDTH 315 0
DWIDTH 7 0
BBX 2 4 3 -4
BITMAP
80
C0
40
C0
ENDCHAR
STARTCHAR 00B9
ENCODING 185
SWIDTH 315 0
DWIDTH 7 0
BBX 3 8 2 7
BITMAP
40
C0
40
40
40
40
40
E0
ENDCHAR
STARTCHAR 00BA
ENCODING 186
SWIDTH 315 0
DWIDTH 7 0
BBX 7 6 0 9
BITMAP
38
44
C6
C6
44
7C
ENDCHAR
STARTCHAR 00BB
ENCODING 187
SWIDTH 495 0
DWIDTH 11 0
BBX 9 10 1 0
BITMAP
8400
4600
6200
2300
3180
3180
2300
4200
4600
8400
ENDCHAR
STARTCHAR 00BC
ENCODING 188
SWIDTH 765 0
DWIDTH 17 0
BBX 14 16 2 -1
BITMAP
C010
4020
4040
4040
4080
4100
4100
E200
0418
0418
0828
0848
1088
207C
2008
4000
ENDCHAR
STARTCHAR 00BD
ENCODING 189
SWIDTH 765 0
DWIDTH 17 0
BBX 14 16 2 -1
BITMAP
C020
4020
4040
4080
4080
4100
4100
E200
0478
048C
0808
1008
1010
2020
407C
4000
ENDCHAR
STARTCHAR 00BE
ENCODING 190
SWIDTH 765 0
DWIDTH 17 0
BBX 15 16 1 -1
BITMAP
F008
1010
1020
3020
1040
1880
1080
E100
020C
020C
0414
0824
0844
103E
2004
2000
ENDCHAR
STARTCHAR 00BF
ENCODING 191
SWIDTH 450 0
DWIDTH 10 0
BBX 8 16 1 -5
BITMAP
10
18
18
00
00
10
10
10
20
60
C0
C3
C3
C3
62
3C
ENDCHAR
STARTCHAR 00C0
ENCODING 192
SWIDTH 720 0
DWIDTH 16 0
BBX 14 19 1 0
BITMAP
0600
0300
0100
0000
0200
0300
0300
0780
0580
0980
08C0
08C0
1060
1FE0
2070
2030
4030
4038
E03C
ENDCHAR
STARTCHAR 00C1
ENCODING 193
SWIDTH 720 0
DWIDTH 16 0
BBX 14 19 1 0
BITMAP
0180
0300
0200
0000
0200
0300
0300
0780
0580
0980
08C0
08C0
1060
1FE0
2070
2030
4030
4038
E03C
ENDCHAR
STARTCHAR 00C2
ENCODING 194
SWIDTH 720 0
DWIDTH 16 0
BBX 14 19 1 0
BITMAP
0780
0480
0840
0000
0200
0300
0300
0780
0580
0980
08C0
08C0
1060
1FE0
2070
2030
4030
4038
E03C
ENDCHAR
STARTCHAR 00C3
ENCODING 195
SWIDTH 720 0
DWIDTH 16 0
BBX 14 19 1 0
BITMAP
0600
0F40
01C0
0000
0200
0300
0300
0780
0580
0980
08C0
08C0
1060
1FE0
2070
2030
4030
4038
E03C
ENDCHAR
STARTCHAR 00C4
ENCODING 196
SWIDTH 720 0
DWIDTH 16 0
BBX 14 18 1 1
BITMAP
0CC0
0CC0
0000
0200
0300
0300
0780
0580
0980
08C0
08C0
1060
1FE0
2070
2030
4030
4038
E03C
ENDCHAR
STARTCHAR 00C5
ENCODING 197
SWIDTH 720 0
DWIDTH 16 0
BBX 14 18 1 0
BITMAP
0780
0480
0480
0300
0300
0300
0780
0580
0980
08C0
08C0
1060
1FE0
2070
2030
4030
4038
E03C
ENDCHAR
STARTCHAR 00C6
ENCODING 198
SWIDTH 900 0
DWIDTH 20 0
BBX 19 15 0 0
BITMAP
03FFC0
00E040
016040
016000
026000
026080
046080
047F80
086080
0FE080
106000
106000
206020
606040
F0FFC0
ENDCHAR
STARTCHAR 00C7
ENCODING 199
SWIDTH 675 0
DWIDTH 15 0
BBX 13 19 1 -4
BITMAP
0FD0
1830
3018
6008
E008
C000
C000
C000
C000
C000
E000
6000
7018
3810
1FE0
0200
0300
0100
0700
ENDCHAR
STARTCHAR 00C8
ENCODING 200
SWIDTH 630 0
DWIDTH 14 0
BBX 13 19 0 0
BITMAP
0600
0200
0100
0000
FFF0
3810
1810
1800
1800
1820
1820
1FE0
1820
1820
1800
1800
1808
3810
7FF0
ENDCHAR
STARTCHAR 00C9
ENCODING 201
SWIDTH 630 0
DWIDTH 14 0
BBX 13 19 0 0
BITMAP
0180
0300
0200
0000
FFF0
3810
1810
1800
1800
1820
1820
1FE0
1820
1820
1800
1800
1808
3810
7FF0
ENDCHAR
STARTCHAR 00CA
ENCODING 202
SWIDTH 630 0
DWIDTH 14 0
BBX 13 19 0 0
BITMAP
0700
0580
0840
0000
FFF0
3810
1810
1800
1800
1820
1820
1FE0
1820
1820
1800
1800
1808
3810
7FF0
ENDCHAR
STARTCHAR 00CB
ENCODING 203
SWIDTH 630 0
DWIDTH 14 0
BBX 13 18 0 1
BITMAP
0CC0
0CC0
0000
FFF0
3810
1810
1800
1800
1820
1820
1FE0
1820
1820
1800
1800
1808
3810
7FF0
ENDCHAR
STARTCHAR 00CC
ENCODING 204
SWIDTH 315 0
DWIDTH 7 0
BBX 6 19 1 0
BITMAP
60
20
10
00
FC
30
30
30
30
30
30
30
30
30
30
30
30
30
78
ENDCHAR
STARTCHAR 00CD
ENCODING 205
SWIDTH 315 0
DWIDTH 7 0
BBX 6 19 1 0
BITMAP
38
20
20
00
FC
30
30
30
30
30
30
30
30
30
30
30
30
30
78
ENDCHAR
STARTCHAR 00CE
ENCODING 206
SWIDTH 315 0
DWIDTH 7 0
BBX 6 19 1 0
BITMAP
70
58
88
00
FC
30
30
30
30
30
30
30
30
30
30
30
30
30
78
ENDCHAR
STARTCHAR 00CF
ENCODING 207
SWIDTH 315 0
DWIDTH 7 0
BBX 6 19 1 0
BITMAP
08
DC
C8
00
FC
30
30
30
30
30
30
30
30
30
30
30
30
30
78
ENDCHAR
STARTCHAR 00D0
ENCODING 208
SWIDTH 720 0
DWIDTH 16 0
BBX 15 15 0 0
BITMAP
FF80
3870
3818
380C
380E
380E
3806
FF86
3806
3806
380E
380C
3818
3830
7FE0
ENDCHAR
STARTCHAR 00D1
ENCODING 209
SWIDTH 720 0
DWIDTH 16 0
BBX 16 19 0 0
BITMAP
0300
07A0
00E0
0000
F01F
3804
1804
1C04
1E04
1704
1384
11C4
10C4
1064
1074
103C
101C
100C
3804
ENDCHAR
STARTCHAR 00D2
ENCODING 210
SWIDTH 720 0
DWIDTH 16 0
BBX 14 19 1 0
BITMAP
0600
0300
0100
0000
0FC0
1060
3030
6018
E01C
C00C
C00C
C00C
C00C
C00C
E01C
6018
6018
3030
0FC0
ENDCHAR
STARTCHAR 00D3
ENCODING 211
SWIDTH 720 0
DWIDTH 16 0
BBX 14 19 1 0
BITMAP
0180
0300
0200
0000
0FC0
1060
3030
6018
E01C
C00C
C00C
C00C
C00C
C00C
E01C
6018
6018
3030
0FC0
ENDCHAR
STARTCHAR 00D4
ENCODING 212
SWIDTH 720 0
DWIDTH 16 0
BBX 14 19 1 0
BITMAP
0700
0480
0840
0000
0FC0
1060
3030
6018
E01C
C00C
C00C
C00C
C00C
C00C
E01C
6018
6018
3030
0FC0
ENDCHAR
STARTCHAR 00D5
ENCODING 213
SWIDTH 720 0
DWIDTH 16 0
BBX 14 19 1 0
BITMAP
0400
0F40
01C0
0000
0FC0
1060
3030
6018
E01C
C00C
C00C
C00C
C00C
C00C
E01C
6018
6018
3030
0FC0
ENDCHAR
STARTCHAR 00D6
ENCODING 214
SWIDTH 720 0
DWIDTH 16 0
BBX 14 18 1 1
BITMAP
0CC0
0CC0
0000
0FC0
1060
3030
6018
E01C
C00C
C00C
C00C
C00C
C00C
E01C
6018
6018
3030
0FC0
ENDCHAR
STARTCHAR 00D7
ENCODING 215
SWIDTH 585 0
DWIDTH 13 0
BBX 9 9 2 3
BITMAP
8000
C100
6200
3400
1800
1C00
2600
4300
8180
ENDCHAR
STARTCHAR 00D8
ENCODING 216
SWIDTH 720 0
DWIDTH 16 0
BBX 14 16 1 -1
BITMAP
0FC8
1068
3030
6038
E05C
C09C
C10C
C10C
C20C
C40C
E81C
7018
7018
3030
4CC0
0300
ENDCHAR
STARTCHAR 00D9
ENCODING 217
SWIDTH 720 0
DWIDTH 16 0
BBX 16 19 0 0
BITMAP
0180
0080
0080
0000
FC1F
3004
3004
3004
3004
3004
3004
3004
3004
3004
3004
3808
1808
1818
0FE0
ENDCHAR
STARTCHAR 00DA
ENCODING 218
SWIDTH 720 0
DWIDTH 16 0
BBX 16 19 0 0
BITMAP
00C0
0180
0100
0000
FC1F
3004
3004
3004
3004
3004
3004
3004
3004
3004
3004
3808
1808
1818
0FE0
ENDCHAR
STARTCHAR 00DB
ENCODING 219
SWIDTH 720 0
DWIDTH 16 0
BBX 16 19 0 0
BITMAP
01C0
0360
0420
0000
FC1F
3004
3004
3004
3004
3004
3004
3004
3004
3004
3004
3808
1808
1818
0FE0
ENDCHAR
STARTCHAR 00DC
ENCODING 220
SWIDTH 720 0
DWIDTH 16 0
BBX 16 19 0 0
BITMAP
0220
0770
0220
0000
FC1F
3004
3004
3004
3004
3004
3004
3004
3004
3004
3004
3808
1808
1818
0FE0
ENDCHAR
STARTCHAR 00DD
ENCODING 221
SWIDTH 720 0
DWIDTH 16 0
BBX 16 19 0 0
BITMAP
00C0
0080
0100
0000
FC1F
380C
1808
1C10
0C10
0620
0740
0340
0180
0180
0180
0180
0180
0180
03C0
ENDCHAR
STARTCHAR 00DE
ENCODING 222
SWIDTH 540 0
DWIDTH 12 0
BBX 11 15 0 0
BITMAP
FE00
3800
3800
3800
3FC0
38E0
3860
3860
3860
3860
39C0
3F00
3800
3800
7C00
ENDCHAR
STARTCHAR 00DF
ENCODING 223
SWIDTH 495 0
DWIDTH 11 0
BBX 9 15 1 0
BITMAP
3E00
6300
6100
6100
6300
6200
6E00
6380
6180
6180
6180
6080
6980
6980
EF00
ENDCHAR
STARTCHAR 00E0
ENCODING 224
SWIDTH 450 0
DWIDTH 10 0
BBX 9 15 1 0
BITMAP
3000
1800
0800
0000
0000
7C00
C600
C600
0600
1E00
6600
C600
C600
CE80
F700
ENDCHAR
STARTCHAR 00E1
ENCODING 225
SWIDTH 450 0
DWIDTH 10 0
BBX 9 15 1 0
BITMAP
0C00
1800
1000
0000
0000
7C00
C600
C600
0600
1E00
6600
C600
C600
CE80
F700
ENDCHAR
STARTCHAR 00E2
ENCODING 226
SWIDTH 450 0
DWIDTH 10 0
BBX 9 15 1 0
BITMAP
1800
2C00
4400
0200
0000
7C00
C600
C600
0600
1E00
6600
C600
C600
CE80
F700
ENDCHAR
STARTCHAR 00E3
ENCODING 227
SWIDTH 450 0
DWIDTH 10 0
BBX 9 15 1 0
BITMAP
3000
7A00
0E00
0000
0000
7C00
C600
C600
0600
1E00
6600
C600
C600
CE80
F700
ENDCHAR
STARTCHAR 00E4
ENCODING 228
SWIDTH 450 0
DWIDTH 10 0
BBX 9 14 1 1
BITMAP
6600
6600
0000
0000
7C00
C600
C600
0600
1E00
6600
C600
C600
CE80
F700
ENDCHAR
STARTCHAR 00E5
ENCODING 229
SWIDTH 450 0
DWIDTH 10 0
BBX 9 15 1 0
BITMAP
3C00
2400
2400
1800
0000
7C00
C600
C600
0600
1E00
6600
C600
C600
CE80
F700
ENDCHAR
STARTCHAR 00E6
ENCODING 230
SWIDTH 675 0
DWIDTH 15 0
BBX 13 10 1 0
BITMAP
7DF0
C618
C618
07F8
1E00
6600
C600
C708
C790
F9E0
ENDCHAR
STARTCHAR 00E7
ENCODING 231
SWIDTH 450 0
DWIDTH 10 0
BBX 8 14 1 -4
BITMAP
3E
43
C3
C0
C0
C0
C0
E1
72
3C
10
18
0C
18
ENDCHAR
STARTCHAR 00E8
ENCODING 232
SWIDTH 450 0
DWIDTH 10 0
BBX 8 15 1 0
BITMAP
18
18
08
04
00
3E
43
83
FF
80
C0
C0
E1
72
3C
ENDCHAR
STARTCHAR 00E9
ENCODING 233
SWIDTH 450 0
DWIDTH 10 0
BBX 8 15 1 0
BITMAP
0C
08
10
00
00
3E
43
83
FF
80
C0
C0
E1
72
3C
ENDCHAR
STARTCHAR 00EA
ENCODING 234
SWIDTH 450 0
DWIDTH 10 0
BBX 8 15 1 0
BITMAP
1C
3C
22
40
00
3E
43
83
FF
80
C0
C0
E1
72
3C
ENDCHAR
STARTCHAR 00EB
ENCODING 235
SWIDTH 450 0
DWIDTH 10 0
BBX 8 14 1 0
BITMAP
76
26
00
00
3E
43
83
FF
80
C0
C0
E1
72
3C
ENDCHAR
STARTCHAR 00EC
ENCODING 236
SWIDTH 270 0
DWIDTH 6 0
BBX 4 15 1 0
BITMAP
C0
60
20
00
00
60
E0
60
60
60
60
60
60
60
70
ENDCHAR
STARTCHAR 00ED
ENCODING 237
SWIDTH 270 0
DWIDTH 6 0
BBX 4 15 1 0
BITMAP
30
60
40
00
00
60
E0
60
60
60
60
60
60
60
70
ENDCHAR
STARTCHAR 00EE
ENCODING 238
SWIDTH 270 0
DWIDTH 6 0
BBX 6 15 0 0
BITMAP
30
78
44
80
00
30
70
30
30
30
30
30
30
30
38
ENDCHAR
STARTCHAR 00EF
ENCODING 239
SWIDTH 270 0
DWIDTH 6 0
BBX 6 14 0 0
BITMAP
CC
CC
00
00
30
70
30
30
30
30
30
30
30
38
ENDCHAR
STARTCHAR 00F0
ENCODING 240
SWIDTH 495 0
DWIDTH 11 0
BBX 9 15 1 0
BITMAP
2200
1C00
3C00
4600
0300
3F00
4380
C180
C180
C180
C180
C180
C180
6100
3E00
ENDCHAR
STARTCHAR 00F1
ENCODING 241
SWIDTH 495 0
DWIDTH 11 0
BBX 9 15 1 0
BITMAP
3000
7D00
4E00
0000
0000
EF00
7300
6100
6100
6100
6100
6100
6100
6180
E380
ENDCHAR
STARTCHAR 00F2
ENCODING 242
SWIDTH 495 0
DWIDTH 11 0
BBX 9 15 1 0
BITMAP
1800
0800
0800
0400
0000
3E00
4300
C180
C180
C180
C180
C180
C180
6100
3E00
ENDCHAR
STARTCHAR 00F3
ENCODING 243
SWIDTH 495 0
DWIDTH 11 0
BBX 9 15 1 0
BITMAP
0C00
0800
0800
1000
0000
3E00
4300
C180
C180
C180
C180
C180
C180
6100
3E00
ENDCHAR
STARTCHAR 00F4
ENCODING 244
SWIDTH 495 0
DWIDTH 11 0
BBX 9 15 1 0
BITMAP
1C00
1600
2200
0100
0000
3E00
4300
C180
C180
C180
C180
C180
C180
6100
3E00
ENDCHAR
STARTCHAR 00F5
ENCODING 245
SWIDTH 495 0
DWIDTH 11 0
BBX 9 15 1 0
BITMAP
3000
7D00
4E00
0000
0000
3E00
4300
C180
C180
C180
C180
C180
C180
6100
3E00
ENDCHAR
STARTCHAR 00F6
ENCODING 246
SWIDTH 495 0
DWIDTH 11 0
BBX 9 14 1 0
BITMAP
7700
2200
0000
0000
3E00
4300
C180
C180
C180
C180
C180
C180
6100
3E00
ENDCHAR
STARTCHAR 00F7
ENCODING 247
SWIDTH 540 0
DWIDTH 12 0
BBX 12 9 0 3
BITMAP
0200
0600
0000
0000
FFF0
0000
0000
0600
0600
ENDCHAR
STARTCHAR 00F8
ENCODING 248
SWIDTH 495 0
DWIDTH 11 0
BBX 9 11 1 0
BITMAP
3E80
4300
C380
C580
C580
C980
D180
E180
6100
B600
0800
ENDCHAR
STARTCHAR 00F9
ENCODING 249
SWIDTH 495 0
DWIDTH 11 0
BBX 9 15 1 0
BITMAP
1800
0800
0400
0400
0000
E700
6100
6100
6100
6100
6100
6100
6100
6780
7980
ENDCHAR
STARTCHAR 00FA
ENCODING 250
SWIDTH 495 0
DWIDTH 11 0
BBX 9 15 1 0
BITMAP
0C00
0800
1000
1000
0000
E700
6100
6100
6100
6100
6100
6100
6100
6780
7980
ENDCHAR
STARTCHAR 00FB
ENCODING 251
SWIDTH 495 0
DWIDTH 11 0
BBX 9 15 1 0
BITMAP
1C00
1400
2200
0100
0000
E700
6100
6100
6100
6100
6100
6100
6100
6780
7980
ENDCHAR
STARTCHAR 00FC
ENCODING 252
SWIDTH 495 0
DWIDTH 11 0
BBX 9 14 1 0
BITMAP
7700
2200
0000
0000
E700
6100
6100
6100
6100
6100
6100
6100
6780
7980
ENDCHAR
STARTCHAR 00FD
ENCODING 253
SWIDTH 495 0
DWIDTH 11 0
BBX 11 20 0 -5
BITMAP
0600
0600
0400
0800
0000
F0E0
3040
3080
1080
1900
1900
0D00
0E00
0600
0400
0400
0400
0800
7800
6000
ENDCHAR
STARTCHAR 00FE
ENCODING 254
SWIDTH 495 0
DWIDTH 11 0
BBX 10 20 0 -5
BITMAP
6000
2000
2000
2000
2000
2780
29C0
30C0
20C0
20C0
20C0
20C0
20C0
3080
2900
2600
2000
2000
3000
F800
ENDCHAR
STARTCHAR 00FF
ENCODING 255
SWIDTH 495 0
DWIDTH 11 0
BBX 11 19 0 -4
BITMAP
1980
1980
0000
0000
F0E0
3040
3080
1080
1900
1900
0D00
0E00
0600
0400
0400
0400
0800
7800
6000
ENDCHAR
STARTCHAR 0100
ENCODING 256
SWIDTH 720 0
DWIDTH 16 0
BBX 14 18 1 0
BITMAP
1FC0
1FC0
0000
0200
0300
0300
0780
0580
0980
08C0
08C0
1060
1FE0
2070
2030
4030
4038
E03C
ENDCHAR
STARTCHAR 0101
ENCODING 257
SWIDTH 450 0
DWIDTH 10 0
BBX 9 14 1 0
BITMAP
FE00
FE00
0000
0000
7C00
C600
C600
0600
1E00
6600
C600
C600
CE80
F700
ENDCHAR
STARTCHAR 0102
ENCODING 258
SWIDTH 720 0
DWIDTH 16 0
BBX 14 19 1 0
BITMAP
0840
0FC0
0780
0000
0200
0300
0300
0780
0580
0980
08C0
08C0
1060
1FE0
2070
2030
4030
4038
E03C
ENDCHAR
STARTCHAR 0103
ENCODING 259
SWIDTH 450 0
DWIDTH 10 0
BBX 9 14 1 1
BITMAP
6600
3C00
0000
0000
7C00
C600
C600
0600
1E00
6600
C600
C600
CE80
F700
ENDCHAR
STARTCHAR 0104
ENCODING 260
SWIDTH 720 0
DWIDTH 16 0
BBX 15 19 1 -4
BITMAP
0200
0300
0300
0780
0580
0980
08C0
08C0
1060
1FE0
2070
2030
4030
4038
E03C
0020
0020
0030
001E
ENDCHAR
STARTCHAR 0105
ENCODING 261
SWIDTH 450 0
DWIDTH 10 0
BBX 10 14 1 -4
BITMAP
7C00
C600
C600
0600
1E00
6600
C600
C600
CE80
F700
0400
0400
0600
03C0
ENDCHAR
STARTCHAR 0106
ENCODING 262
SWIDTH 675 0
DWIDTH 15 0
BBX 13 19 1 0
BITMAP
0180
0100
0200
0000
0FD0
1830
3018
6008
E008
C000
C000
C000
C000
C000
E000
6000
7018
3810
1FE0
ENDCHAR
STARTCHAR 0107
ENCODING 263
SWIDTH 450 0
DWIDTH 10 0
BBX 8 15 1 0
BITMAP
0C
08
18
10
00
3E
43
C3
C0
C0
C0
C0
E1
72
3C
ENDCHAR
STARTCHAR 0108
ENCODING 264
SWIDTH 675 0
DWIDTH 15 0
BBX 13 20 1 0
BITMAP
0300
0700
0880
0040
0000
0FD0
1830
3018
6008
E008
C000
C000
C000
C000
C000
E000
6000
7018
3810
1FE0
ENDCHAR
STARTCHAR 0109
ENCODING 265
SWIDTH 450 0
DWIDTH 10 0
BBX 8 15 1 0
BITMAP
18
2C
44
00
00
3E
43
C3
C0
C0
C0
C0
E1
72
3C
ENDCHAR
STARTCHAR 010A
ENCODING 266
SWIDTH 675 0
DWIDTH 15 0
BBX 13 18 1 1
BITMAP
0300
0300
0000
0FD0
1830
3018
6008
E008
C000
C000
C000
C000
C000
E000
6000
7018
3810
1FE0
ENDCHAR
STARTCHAR 010B
ENCODING 267
SWIDTH 450 0
DWIDTH 10 0
BBX 8 14 1 1
BITMAP
18
18
00
00
3E
43
C3
C0
C0
C0
C0
E1
72
3C
ENDCHAR
STARTCHAR 010C
ENCODING 268
SWIDTH 675 0
DWIDTH 15 0
BBX 13 19 1 0
BITMAP
0440
0680
0380
0000
0FD0
1830
3018
6008
E008
C000
C000
C000
C000
C000
E000
6000
7018
3810
1FE0
ENDCHAR
STARTCHAR 010D
ENCODING 269
SWIDTH 450 0
DWIDTH 10 0
BBX 8 15 1 0
BITMAP
42
36
1C
18
00
3E
43
C3
C0
C0
C0
C0
E1
72
3C
ENDCHAR
STARTCHAR 010E
ENCODING 270
SWIDTH 720 0
DWIDTH 16 0
BBX 15 19 0 0
BITMAP
0440
0680
0380
0000
FF80
3870
3818
380C
380E
380E
3806
3806
3806
3806
380E
380C
381C
3830
7FC0
ENDCHAR
STARTCHAR 010F
ENCODING 271
SWIDTH 630 0
DWIDTH 14 0
BBX 13 15 1 0
BITMAP
03B8
01B8
0188
0188
0190
3F80
6380
C180
C180
C180
C180
C180
C180
6380
3D80
ENDCHAR
STARTCHAR 0110
ENCODING 272
SWIDTH 720 0
DWIDTH 16 0
BBX 15 15 0 0
BITMAP
FF80
3870
3818
380C
380E
380E
3806
FF86
3806
3806
380E
380C
3818
3830
7FE0
ENDCHAR
STARTCHAR 0111
ENCODING 273
SWIDTH 495 0
DWIDTH 11 0
BBX 10 15 0 0
BITMAP
0380
0180
0180
07C0
0180
1F80
2180
6180
4180
C180
C180
E180
6180
7180
3FC0
ENDCHAR
STARTCHAR 0112
ENCODING 274
SWIDTH 630 0
DWIDTH 14 0
BBX 13 18 0 0
BITMAP
1FC0
1FC0
0000
FFF0
3810
1810
1800
1800
1820
1820
1FE0
1820
1820
1800
1800
1808
3810
7FF0
ENDCHAR
STARTCHAR 0113
ENCODING 275
SWIDTH 450 0
DWIDTH 10 0
BBX 8 14 1 0
BITMAP
FE
FE
00
00
3E
43
83
FF
80
C0
C0
E1
72
3C
ENDCHAR
STARTCHAR 0114
ENCODING 276
SWIDTH 630 0
DWIDTH 14 0
BBX 13 19 0 0
BITMAP
0840
0F80
0700
0000
FFF0
3810
1810
1800
1800
1820
1820
1FE0
1820
1820
1800
1800
1808
3810
7FF0
ENDCHAR
STARTCHAR 0115
ENCODING 277
SWIDTH 450 0
DWIDTH 10 0
BBX 8 14 1 1
BITMAP
66
3C
00
00
3E
43
83
FF
80
C0
C0
E1
72
3C
ENDCHAR
STARTCHAR 0116
ENCODING 278
SWIDTH 630 0
DWIDTH 14 0
BBX 13 19 0 0
BITMAP
0200
0300
0300
0000
FFF0
3810
1810
1800
1800
1820
1820
1FE0
1820
1820
1800
1800
1808
3810
7FF0
ENDCHAR
STARTCHAR 0117
ENCODING 279
SWIDTH 450 0
DWIDTH 10 0
BBX 8 14 1 1
BITMAP
18
18
00
00
3E
43
83
FF
80
C0
C0
E1
72
3C
ENDCHAR
STARTCHAR 0118
ENCODING 280
SWIDTH 630 0
DWIDTH 14 0
BBX 13 19 0 -4
BITMAP
FFF0
3810
1810
1800
1800
1820
1820
1FE0
1820
1820
1800
1800
1808
3810
3FF0
4080
0080
00C0
0070
ENDCHAR
STARTCHAR 0119
ENCODING 281
SWIDTH 450 0
DWIDTH 10 0
BBX 9 14 1 -4
BITMAP
3E00
4300
8300
FF00
8000
C000
C000
E100
7200
3C00
0800
0C00
0C00
0780
ENDCHAR
STARTCHAR 011A
ENCODING 282
SWIDTH 630 0
DWIDTH 14 0
BBX 13 19 0 0
BITMAP
0880
0780
0700
0000
FFF0
3810
1810
1800
1800
1820
1820
1FE0
1820
1820
1800
1800
1808
3810
7FF0
ENDCHAR
STARTCHAR 011B
ENCODING 283
SWIDTH 450 0
DWIDTH 10 0
BBX 8 15 1 0
BITMAP
42
34
1C
18
00
3E
43
83
FF
80
C0
C0
E1
72
3C
ENDCHAR
STARTCHAR 011C
ENCODING 284
SWIDTH 720 0
DWIDTH 16 0
BBX 14 20 1 0
BITMAP
0300
0380
04C0
0800
0000
07C8
1838
3008
6008
6000
C000
C000
C03C
C018
C018
E018
6018
7018
3818
0FF0
ENDCHAR
STARTCHAR 011D
ENCODING 285
SWIDTH 495 0
DWIDTH 11 0
BBX 10 20 1 -5
BITMAP
1C00
1400
2200
0100
0000
3FC0
6300
4300
C300
6300
6300
3C00
4000
7000
7F80
40C0
8080
8080
FF00
3C00
ENDCHAR
STARTCHAR 011E
ENCODING 286
SWIDTH 720 0
DWIDTH 16 0
BBX 14 19 1 0
BITMAP
0820
07C0
0380
0000
07C8
1838
3008
6008
6000
C000
C000
C03C
C018
C018
E018
6018
7018
3818
0FF0
ENDCHAR
STARTCHAR 011F
ENCODING 287
SWIDTH 495 0
DWIDTH 11 0
BBX 10 20 1 -5
BITMAP
0100
2200
1E00
0000
0000
3FC0
6300
4300
C300
6300
6300
3C00
4000
7000
7F80
40C0
8080
8080
FF00
3C00
ENDCHAR
STARTCHAR 0120
ENCODING 288
SWIDTH 720 0
DWIDTH 16 0
BBX 14 18 1 1
BITMAP
0300
0300
0000
07C8
1838
3008
6008
6000
C000
C000
C03C
C018
C018
E018
6018
7018
3818
0FF0
ENDCHAR
STARTCHAR 0121
ENCODING 289
SWIDTH 495 0
DWIDTH 11 0
BBX 10 19 1 -4
BITMAP
1C00
0800
0000
0000
3FC0
6300
4300
C300
6300
6300
3C00
4000
7000
7F80
40C0
8080
8080
FF00
3C00
ENDCHAR
STARTCHAR 0122
ENCODING 290
SWIDTH 720 0
DWIDTH 16 0
BBX 14 19 1 -4
BITMAP
07C8
1838
3008
6008
6000
C000
C000
C03C
C018
C018
E018
6018
7018
3818
0E70
0380
0380
0180
0300
ENDCHAR
STARTCHAR 0123
ENCODING 291
SWIDTH 495 0
DWIDTH 11 0
BBX 10 21 1 -5
BITMAP
0800
1000
1C00
0C00
0000
0000
3FC0
6300
4300
C300
6300
6300
3C00
4000
7000
7F80
40C0
8080
8080
FF00
3C00
ENDCHAR
STARTCHAR 0124
ENCODING 292
SWIDTH 720 0
DWIDTH 16 0
BBX 16 20 0 0
BITMAP
0180
03C0
0240
0420
0000
FE7F
381C
3818
3818
3818
3818
3818
3FF8
3818
3818
3818
3818
3818
381C
7C3E
ENDCHAR
STARTCHAR 0125
ENCODING 293
SWIDTH 495 0
DWIDTH 11 0
BBX 9 20 1 0
BITMAP
1C00
1C00
2200
0000
0000
E000
6000
6000
6000
6000
6F00
7300
6100
6100
6100
6100
6100
6100
6180
E380
ENDCHAR
STARTCHAR 0126
ENCODING 294
SWIDTH 720 0
DWIDTH 16 0
BBX 16 15 0 0
BITMAP
FE7F
381C
3818
7FFE
3818
3818
3818
3FF8
3818
3818
3818
3818
3818
381C
7C3E
ENDCHAR
STARTCHAR 0127
ENCODING 295
SWIDTH 495 0
DWIDTH 11 0
BBX 9 15 1 0
BITMAP
E000
6000
6000
F800
6000
6F00
7300
6100
6100
6100
6100
6100
6100
6180
E380
ENDCHAR
STARTCHAR 0128
ENCODING 296
SWIDTH 315 0
DWIDTH 7 0
BBX 7 19 0 0
BITMAP
70
BE
8C
00
7E
18
18
18
18
18
18
18
18
18
18
18
18
18
3C
ENDCHAR
STARTCHAR 0129
ENCODING 297
SWIDTH 270 0
DWIDTH 6 0
BBX 7 15 0 0
BITMAP
62
F4
1C
00
00
30
70
30
30
30
30
30
30
30
38
ENDCHAR
STARTCHAR 012A
ENCODING 298
SWIDTH 315 0
DWIDTH 7 0
BBX 7 18 0 0
BITMAP
FE
FE
00
7E
18
18
18
18
18
18
18
18
18
18
18
18
18
3C
ENDCHAR
STARTCHAR 012B
ENCODING 299
SWIDTH 270 0
DWIDTH 6 0
BBX 6 14 0 0
BITMAP
FC
FC
00
00
30
70
30
30
30
30
30
30
30
38
ENDCHAR
STARTCHAR 012C
ENCODING 300
SWIDTH 315 0
DWIDTH 7 0
BBX 6 19 1 0
BITMAP
84
F8
70
00
FC
30
30
30
30
30
30
30
30
30
30
30
30
30
78
ENDCHAR
STARTCHAR 012D
ENCODING 301
SWIDTH 270 0
DWIDTH 6 0
BBX 6 14 0 1
BITMAP
CC
78
00
00
30
70
30
30
30
30
30
30
30
38
ENDCHAR
STARTCHAR 012E
ENCODING 302
SWIDTH 315 0
DWIDTH 7 0
BBX 6 19 1 -4
BITMAP
FC
30
30
30
30
30
30
30
30
30
30
30
30
30
78
20
60
60
3C
ENDCHAR
STARTCHAR 012F
ENCODING 303
SWIDTH 270 0
DWIDTH 6 0
BBX 6 19 1 -4
BITMAP
60
60
00
00
00
60
E0
60
60
60
60
60
60
60
70
40
40
60
3C
ENDCHAR
STARTCHAR 0130
ENCODING 304
SWIDTH 315 0
DWIDTH 7 0
BBX 6 19 1 0
BITMAP
20
30
30
00
FC
30
30
30
30
30
30
30
30
30
30
30
30
30
78
ENDCHAR
STARTCHAR 0131
ENCODING 305
SWIDTH 270 0
DWIDTH 6 0
BBX 4 10 1 0
BITMAP
60
E0
60
60
60
60
60
60
60
70
ENDCHAR
STARTCHAR 0132
ENCODING 306
SWIDTH 720 0
DWIDTH 16 0
BBX 15 15 1 0
BITMAP
FCFE
3038
3038
3038
3038
3038
3038
3038
3038
3038
3038
3030
3030
31B0
79E0
ENDCHAR
STARTCHAR 0133
ENCODING 307
SWIDTH 540 0
DWIDTH 12 0
BBX 9 20 1 -5
BITMAP
6180
6080
0000
0000
0000
6180
E380
6180
6080
6080
6080
6080
6080
6080
7080
0080
0080
0180
1D00
0E00
ENDCHAR
STARTCHAR 0134
ENCODING 308
SWIDTH 405 0
DWIDTH 9 0
BBX 9 20 0 0
BITMAP
0C00
0E00
1300
2000
0000
3F80
0E00
0C00
0C00
0C00
0C00
0C00
0C00
0C00
0C00
0C00
0C00
0C00
EC00
7800
ENDCHAR
STARTCHAR 0135
ENCODING 309
SWIDTH 270 0
DWIDTH 6 0
BBX 8 20 -2 -5
BITMAP
0C
1E
13
00
00
0C
1C
0C
0C
0C
0C
0C
0C
0C
0C
0C
0C
0C
E8
70
ENDCHAR
STARTCHAR 0136
ENCODING 310
SWIDTH 720 0
DWIDTH 16 0
BBX 16 19 0 -4
BITMAP
FE7C
3830
3820
3840
3880
3900
3A00
3E00
3F00
3B80
39C0
38E0
3870
3838
383F
4400
01C0
00C0
0180
ENDCHAR
STARTCHAR 0137
ENCODING 311
SWIDTH 495 0
DWIDTH 11 0
BBX 9 19 1 -4
BITMAP
E000
6000
6000
6000
6000
6380
6200
6400
6800
7800
7C00
6C00
6600
6300
E380
0000
0C00
0400
1C00
ENDCHAR
STARTCHAR 0138
ENCODING 312
SWIDTH 495 0
DWIDTH 11 0
BBX 9 10 1 0
BITMAP
F780
6200
6400
6800
7800
7C00
6C00
6600
6300
E380
ENDCHAR
STARTCHAR 0139
ENCODING 313
SWIDTH 630 0
DWIDTH 14 0
BBX 13 19 0 0
BITMAP
0700
0600
0400
0000
FE00
3800
1800
1800
1800
1800
1800
1800
1800
1800
1800
1808
1808
3810
7FF0
ENDCHAR
STARTCHAR 013A
ENCODING 314
SWIDTH 270 0
DWIDTH 6 0
BBX 4 19 1 0
BITMAP
30
20
40
00
E0
60
60
60
60
60
60
60
60
60
60
60
60
60
70
ENDCHAR
STARTCHAR 013B
ENCODING 315
SWIDTH 630 0
DWIDTH 14 0
BBX 13 19 0 -4
BITMAP
FE00
3800
1800
1800
1800
1800
1800
1800
1800
1800
1800
1808
1808
3810
3FF0
4000
0300
0100
0300
ENDCHAR
STARTCHAR 013C
ENCODING 316
SWIDTH 270 0
DWIDTH 6 0
BBX 4 19 1 -4
BITMAP
E0
60
60
60
60
60
60
60
60
60
60
60
60
60
70
00
70
30
60
ENDCHAR
STARTCHAR 013D
ENCODING 317
SWIDTH 630 0
DWIDTH 14 0
BBX 13 15 0 0
BITMAP
FE60
3870
1810
1810
1820
1840
1800
1800
1800
1800
1800
1808
1808
3810
7FF0
ENDCHAR
STARTCHAR 013E
ENCODING 318
SWIDTH 405 0
DWIDTH 9 0
BBX 8 15 1 0
BITMAP
E6
67
61
62
64
60
60
60
60
60
60
60
60
60
70
ENDCHAR
STARTCHAR 013F
ENCODING 319
SWIDTH 630 0
DWIDTH 14 0
BBX 13 15 0 0
BITMAP
FE00
3800
1800
1800
1800
1800
18C0
18C0
1800
1800
1800
1808
1808
3810
7FF0
ENDCHAR
STARTCHAR 0140
ENCODING 320
SWIDTH 360 0
DWIDTH 8 0
BBX 7 15 1 0
BITMAP
E0
60
60
60
60
60
64
6E
64
60
60
60
60
60
70
ENDCHAR
STARTCHAR 0141
ENCODING 321
SWIDTH 630 0
DWIDTH 14 0
BBX 13 15 0 0
BITMAP
FE00
3800
3800
3800
3800
3A00
3C00
3800
3800
7800
B800
3808
3808
3810
7FF0
ENDCHAR
STARTCHAR 0142
ENCODING 322
SWIDTH 270 0
DWIDTH 6 0
BBX 6 15 0 0
BITMAP
30
70
30
30
30
34
38
30
70
B0
30
30
30
30
38
ENDCHAR
STARTCHAR 0143
ENCODING 323
SWIDTH 720 0
DWIDTH 16 0
BBX 16 19 0 0
BITMAP
01C0
0100
0100
0000
F01F
3804
1804
1C04
1E04
1704
1384
11C4
10C4
1064
1074
103C
101C
100C
3804
ENDCHAR
STARTCHAR 0144
ENCODING 324
SWIDTH 495 0
DWIDTH 11 0
BBX 9 15 1 0
BITMAP
0C00
0800
1000
1000
0000
EF00
7300
6100
6100
6100
6100
6100
6100
6180
E380
ENDCHAR
STARTCHAR 0145
ENCODING 325
SWIDTH 720 0
DWIDTH 16 0
BBX 16 19 0 -4
BITMAP
F01F
3804
1804
1C04
1E04
1704
1384
11C4
10C4
1064
1074
103C
101C
100C
3004
0800
01C0
00C0
0180
ENDCHAR
STARTCHAR 0146
ENCODING 326
SWIDTH 495 0
DWIDTH 11 0
BBX 9 14 1 -4
BITMAP
EF00
7300
6100
6100
6100
6100
6100
6100
6180
E380
0000
0C00
0400
1C00
ENDCHAR
STARTCHAR 0147
ENCODING 327
SWIDTH 720 0
DWIDTH 16 0
BBX 16 19 0 0
BITMAP
0220
0340
0180
0000
F01F
3804
1804
1C04
1E04
1704
1384
11C4
10C4
1064
1074
103C
101C
100C
3804
ENDCHAR
STARTCHAR 0148
ENCODING 328
SWIDTH 495 0
DWIDTH 11 0
BBX 9 15 1 0
BITMAP
4200
3400
1C00
1800
0000
EF00
7300
6100
6100
6100
6100
6100
6100
6180
E380
ENDCHAR
STARTCHAR 0149
ENCODING 329
SWIDTH 585 0
DWIDTH 13 0
BBX 12 15 0 0
BITMAP
E000
E000
2000
2000
4000
0DE0
1E30
0C30
0C30
0C30
0C30
0C30
0C30
0C30
0E70
ENDCHAR
STARTCHAR 014A
ENCODING 330
SWIDTH 720 0
DWIDTH 16 0
BBX 15 15 0 0
BITMAP
F9F0
3A38
1C1C
180C
180C
180C
180E
180E
180E
180C
180C
180C
1888
39C8
7CF0
ENDCHAR
STARTCHAR 014B
ENCODING 331
SWIDTH 495 0
DWIDTH 11 0
BBX 8 15 1 -5
BITMAP
EF
73
61
61
61
61
61
61
61
E1
01
01
01
1A
1C
ENDCHAR
STARTCHAR 014C
ENCODING 332
SWIDTH 720 0
DWIDTH 16 0
BBX 14 18 1 0
BITMAP
0FC0
0FC0
0000
0FC0
1060
3030
6018
E01C
C00C
C00C
C00C
C00C
C00C
E01C
6018
6018
3030
0FC0
ENDCHAR
STARTCHAR 014D
ENCODING 333
SWIDTH 495 0
DWIDTH 11 0
BBX 9 14 1 0
BITMAP
7F00
7F00
0000
0000
3E00
4300
C180
C180
C180
C180
C180
C180
6100
3E00
ENDCHAR
STARTCHAR 014E
ENCODING 334
SWIDTH 720 0
DWIDTH 16 0
BBX 14 19 1 0
BITMAP
0840
0FC0
0300
0000
0FC0
1060
3030
6018
E01C
C00C
C00C
C00C
C00C
C00C
E01C
6018
6018
3030
0FC0
ENDCHAR
STARTCHAR 014F
ENCODING 335
SWIDTH 495 0
DWIDTH 11 0
BBX 9 15 1 0
BITMAP
4000
2200
3C00
0000
0000
3E00
4300
C180
C180
C180
C180
C180
C180
6100
3E00
ENDCHAR
STARTCHAR 0150
ENCODING 336
SWIDTH 720 0
DWIDTH 16 0
BBX 14 19 1 0
BITMAP
0640
04C0
0880
0000
0FC0
1060
3030
6018
E01C
C00C
C00C
C00C
C00C
C00C
E01C
6018
6018
3030
0FC0
ENDCHAR
STARTCHAR 0151
ENCODING 337
SWIDTH 495 0
DWIDTH 11 0
BBX 9 15 1 0
BITMAP
1300
3200
2200
2000
0000
3E00
4300
C180
C180
C180
C180
C180
C180
6100
3E00
ENDCHAR
STARTCHAR 0152
ENCODING 338
SWIDTH 900 0
DWIDTH 20 0
BBX 18 15 1 0
BITMAP
0FFF80
38E080
306080
606000
E06000
C06100
C06100
C07F00
C06100
C06100
E06000
606000
606040
306080
0FFF80
ENDCHAR
STARTCHAR 0153
ENCODING 339
SWIDTH 720 0
DWIDTH 16 0
BBX 14 10 1 0
BITMAP
3E78
438C
C30C
C1FC
C100
C100
C180
C184
63EC
3EF8
ENDCHAR
STARTCHAR 0154
ENCODING 340
SWIDTH 675 0
DWIDTH 15 0
BBX 14 19 0 0
BITMAP
0300
0200
0400
0000
FF80
38E0
3860
3870
3870
3870
38E0
3F80
3B80
3980
38C0
3860
3870
3830
7C1C
ENDCHAR
STARTCHAR 0155
ENCODING 341
SWIDTH 315 0
DWIDTH 7 0
BBX 6 15 1 0
BITMAP
18
30
20
00
00
EC
74
60
60
60
60
60
60
60
E0
ENDCHAR
STARTCHAR 0156
ENCODING 342
SWIDTH 675 0
DWIDTH 15 0
BBX 14 19 0 -4
BITMAP
FF80
38E0
3860
3870
3870
3870
38E0
3F80
3B80
3980
38C0
3860
3870
3830
381C
4400
0180
0080
0380
ENDCHAR
STARTCHAR 0157
ENCODING 343
SWIDTH 315 0
DWIDTH 7 0
BBX 6 14 1 -4
BITMAP
EC
74
60
60
60
60
60
60
60
E0
00
70
30
60
ENDCHAR
STARTCHAR 0158
ENCODING 344
SWIDTH 675 0
DWIDTH 15 0
BBX 14 19 0 0
BITMAP
0880
0580
0700
0000
FF80
38E0
3860
3870
3870
3870
38E0
3F80
3B80
3980
38C0
3860
3870
3830
7C1C
ENDCHAR
STARTCHAR 0159
ENCODING 345
SWIDTH 315 0
DWIDTH 7 0
BBX 6 15 1 0
BITMAP
84
48
70
30
00
EC
74
60
60
60
60
60
60
60
E0
ENDCHAR
STARTCHAR 015A
ENCODING 346
SWIDTH 540 0
DWIDTH 12 0
BBX 10 19 1 0
BITMAP
0600
0C00
0800
0000
3E80
6180
4080
C080
E000
7000
3C00
1F00
0780
03C0
00C0
80C0
40C0
4080
7F00
ENDCHAR
STARTCHAR 015B
ENCODING 347
SWIDTH 405 0
DWIDTH 9 0
BBX 7 15 1 0
BITMAP
18
10
10
20
00
7C
84
C4
E0
78
3C
0E
86
86
FC
ENDCHAR
STARTCHAR 015C
ENCODING 348
SWIDTH 540 0
DWIDTH 12 0
BBX 10 20 1 0
BITMAP
0C00
1E00
1200
2100
0000
3E80
6180
4080
C080
E000
7000
3C00
1F00
0780
03C0
00C0
80C0
40C0
4080
7F00
ENDCHAR
STARTCHAR 015D
ENCODING 349
SWIDTH 405 0
DWIDTH 9 0
BBX 7 15 1 0
BITMAP
38
78
44
80
00
7C
84
C4
E0
78
3C
0E
86
86
FC
ENDCHAR
STARTCHAR 015E
ENCODING 350
SWIDTH 540 0
DWIDTH 12 0
BBX 10 19 1 -4
BITMAP
3E80
6180
4080
C080
E000
7000
3C00
1F00
0780
03C0
00C0
80C0
40C0
4080
7F00
0800
0C00
0400
0C00
ENDCHAR
STARTCHAR 015F
ENCODING 351
SWIDTH 405 0
DWIDTH 9 0
BBX 7 14 1 -4
BITMAP
7C
84
C4
E0
78
3C
0E
86
86
EC
10
38
18
30
ENDCHAR
STARTCHAR 0160
ENCODING 352
SWIDTH 540 0
DWIDTH 12 0
BBX 10 19 1 0
BITMAP
1100
1A00
0C00
0000
3E80
6180
4080
C080
E000
7000
3C00
1F00
0780
03C0
00C0
80C0
40C0
4080
7F00
ENDCHAR
STARTCHAR 0161
ENCODING 353
SWIDTH 405 0
DWIDTH 9 0
BBX 7 15 1 0
BITMAP
84
6C
38
30
00
7C
84
C4
E0
78
3C
0E
86
86
FC
ENDCHAR
STARTCHAR 0162
ENCODING 354
SWIDTH 630 0
DWIDTH 14 0
BBX 12 20 1 -5
BITMAP
FFF0
8630
8610
0600
0600
0600
0600
0600
0600
0600
0600
0600
0600
0600
0F00
0000
0600
0600
0200
0400
ENDCHAR
STARTCHAR 0163
ENCODING 355
SWIDTH 270 0
DWIDTH 6 0
BBX 6 18 0 -5
BITMAP
10
30
30
FC
30
30
30
30
30
30
30
34
38
00
30
38
10
10
ENDCHAR
STARTCHAR 0164
ENCODING 356
SWIDTH 630 0
DWIDTH 14 0
BBX 12 19 1 0
BITMAP
1100
0F00
0E00
0000
FFF0
8630
8610
0600
0600
0600
0600
0600
0600
0600
0600
0600
0600
0600
0F00
ENDCHAR
STARTCHAR 0165
ENCODING 357
SWIDTH 450 0
DWIDTH 10 0
BBX 9 15 0 0
BITMAP
0380
0380
1080
3080
3100
FC00
3000
3000
3000
3000
3000
3000
3000
3400
3800
ENDCHAR
STARTCHAR 0166
ENCODING 358
SWIDTH 630 0
DWIDTH 14 0
BBX 12 15 1 0
BITMAP
FFF0
8630
8610
0600
0600
0600
0600
7FE0
0600
0600
0600
0600
0600
0600
0F00
ENDCHAR
STARTCHAR 0167
ENCODING 359
SWIDTH 270 0
DWIDTH 6 0
BBX 6 13 0 0
BITMAP
10
30
30
FC
30
30
30
FC
30
30
30
34
38
ENDCHAR
STARTCHAR 0168
ENCODING 360
SWIDTH 720 0
DWIDTH 16 0
BBX 16 19 0 0
BITMAP
0390
05F0
0060
0000
FC1F
3004
3004
3004
3004
3004
3004
3004
3004
3004
3004
3808
1808
1818
0FE0
ENDCHAR
STARTCHAR 0169
ENCODING 361
SWIDTH 495 0
DWIDTH 11 0
BBX 9 15 1 0
BITMAP
3000
7D00
4E00
0000
0000
E700
6100
6100
6100
6100
6100
6100
6100
6780
7980
ENDCHAR
STARTCHAR 016A
ENCODING 362
SWIDTH 720 0
DWIDTH 16 0
BBX 16 18 0 0
BITMAP
07F0
07F0
0000
FC1F
3804
3004
3004
3004
3004
3004
3004
3004
3004
3004
3808
1808
1C18
0FF0
ENDCHAR
STARTCHAR 016B
ENCODING 363
SWIDTH 495 0
DWIDTH 11 0
BBX 9 14 1 0
BITMAP
7F00
7F00
0000
0000
E700
6100
6100
6100
6100
6100
6100
6100
6780
7980
ENDCHAR
STARTCHAR 016C
ENCODING 364
SWIDTH 720 0
DWIDTH 16 0
BBX 16 19 0 0
BITMAP
0420
07E0
0180
0000
FC1F
3804
3004
3004
3004
3004
3004
3004
3004
3004
3004
3808
1808
1C18
0FF0
ENDCHAR
STARTCHAR 016D
ENCODING 365
SWIDTH 495 0
DWIDTH 11 0
BBX 9 15 1 0
BITMAP
4100
2200
3E00
0000
0000
E700
6100
6100
6100
6100
6100
6100
6100
6780
7980
ENDCHAR
STARTCHAR 016E
ENCODING 366
SWIDTH 720 0
DWIDTH 16 0
BBX 16 20 0 0
BITMAP
0080
0140
0220
0140
0080
FC1F
3004
3004
3004
3004
3004
3004
3004
3004
3004
3004
3808
1808
1818
0FE0
ENDCHAR
STARTCHAR 016F
ENCODING 367
SWIDTH 495 0
DWIDTH 11 0
BBX 9 15 1 0
BITMAP
1C00
2400
2400
1800
0000
E700
6100
6100
6100
6100
6100
6100
6100
6780
7980
ENDCHAR
STARTCHAR 0170
ENCODING 368
SWIDTH 720 0
DWIDTH 16 0
BBX 16 19 0 0
BITMAP
0330
0220
0240
0000
FC1F
3004
3004
3004
3004
3004
3004
3004
3004
3004
3004
3808
1808
1818
0FE0
ENDCHAR
STARTCHAR 0171
ENCODING 369
SWIDTH 495 0
DWIDTH 11 0
BBX 9 15 1 0
BITMAP
3200
2200
2400
0400
0000
E700
6100
6100
6100
6100
6100
6100
6100
6780
7980
ENDCHAR
STARTCHAR 0172
ENCODING 370
SWIDTH 720 0
DWIDTH 16 0
BBX 16 19 0 -4
BITMAP
FC1F
3004
3004
3004
3004
3004
3004
3004
3004
3004
3004
3808
1808
1818
0FE0
0080
0080
0080
00F0
ENDCHAR
STARTCHAR 0173
ENCODING 371
SWIDTH 495 0
DWIDTH 11 0
BBX 11 14 1 -4
BITMAP
E700
6100
6100
6100
6100
6100
6100
6100
6780
7980
0200
0200
0300
01E0
ENDCHAR
STARTCHAR 0174
ENCODING 372
SWIDTH 945 0
DWIDTH 21 0
BBX 21 20 0 0
BITMAP
007000
007000
008800
000000
000000
FDF8F8
306020
307020
183040
183040
1C3840
0C5880
0C5880
0E4C80
068D00
068D00
038700
030600
030600
010200
ENDCHAR
STARTCHAR 0175
ENCODING 373
SWIDTH 720 0
DWIDTH 16 0
BBX 16 15 0 0
BITMAP
0180
03C0
0440
0020
0000
F3C7
2182
3084
30C4
11C8
1A68
1A68
0E30
0C30
0420
ENDCHAR
STARTCHAR 0176
ENCODING 374
SWIDTH 720 0
DWIDTH 16 0
BBX 16 20 0 0
BITMAP
0180
03C0
0240
0420
0000
FC1F
380C
1808
1C10
0C10
0620
0740
0340
0180
0180
0180
0180
0180
0180
03C0
ENDCHAR
STARTCHAR 0177
ENCODING 375
SWIDTH 495 0
DWIDTH 11 0
BBX 11 20 0 -5
BITMAP
0E00
0B00
1100
0080
0000
F0E0
3040
3080
1080
1900
1900
0D00
0E00
0600
0400
0400
0400
0800
7800
6000
ENDCHAR
STARTCHAR 0178
ENCODING 376
SWIDTH 720 0
DWIDTH 16 0
BBX 16 18 0 1
BITMAP
0660
0260
0000
FC1F
380C
1808
1C10
0C10
0620
0740
0340
0180
0180
0180
0180
0180
0180
03C0
ENDCHAR
STARTCHAR 0179
ENCODING 377
SWIDTH 630 0
DWIDTH 14 0
BBX 13 19 0 0
BITMAP
0180
0300
0200
0000
3FF8
2070
4060
00E0
01C0
0180
0300
0700
0600
0C00
1C00
3808
3008
7018
FFF0
ENDCHAR
STARTCHAR 017A
ENCODING 378
SWIDTH 450 0
DWIDTH 10 0
BBX 8 15 1 0
BITMAP
0C
18
10
00
00
FF
83
86
0C
18
18
30
60
C1
FF
ENDCHAR
STARTCHAR 017B
ENCODING 379
SWIDTH 630 0
DWIDTH 14 0
BBX 13 18 0 1
BITMAP
0300
0300
0000
3FF8
2070
4060
00E0
01C0
0180
0300
0700
0600
0C00
1C00
3808
3008
7018
FFF0
ENDCHAR
STARTCHAR 017C
ENCODING 380
SWIDTH 450 0
DWIDTH 10 0
BBX 8 14 1 1
BITMAP
18
18
00
00
FF
83
86
0C
18
18
30
60
C1
FF
ENDCHAR
STARTCHAR 017D
ENCODING 381
SWIDTH 630 0
DWIDTH 14 0
BBX 13 19 0 0
BITMAP
08C0
0680
0300
0000
3FF8
2070
4060
00E0
01C0
0180
0300
0700
0600
0C00
1C00
3808
3008
7018
FFF0
ENDCHAR
STARTCHAR 017E
ENCODING 382
SWIDTH 450 0
DWIDTH 10 0
BBX 8 15 1 0
BITMAP
42
24
3C
18
00
FF
83
86
0C
18
18
30
60
C1
FF
ENDCHAR
STARTCHAR 017F
ENCODING 383
SWIDTH 270 0
DWIDTH 6 0
BBX 8 15 1 0
BITMAP
1E
23
60
60
60
60
60
60
60
60
60
60
60
60
F0
ENDCHAR
STARTCHAR 018F
ENCODING 399
SWIDTH 720 0
DWIDTH 16 0
BBX 15 15 0 0
BITMAP
17E0
1830
1018
200C
000E
000E
0006
FFFE
E006
6006
600E
700C
301C
1838
0FE0
ENDCHAR
STARTCHAR 0192
ENCODING 402
SWIDTH 495 0
DWIDTH 11 0
BBX 11 20 0 -5
BITMAP
00E0
0160
0100
0300
0300
0E00
0780
0600
0600
0600
0C00
0C00
0C00
0C00
0800
1800
1800
1000
A000
4000
ENDCHAR
STARTCHAR 01A0
ENCODING 416
SWIDTH 720 0
DWIDTH 16 0
BBX 14 17 1 0
BITMAP
0008
000C
0FC8
1070
3030
6018
E01C
C00C
C00C
C00C
C00C
C00C
E01C
6018
6018
3030
0FC0
ENDCHAR
STARTCHAR 01A1
ENCODING 417
SWIDTH 540 0
DWIDTH 12 0
BBX 11 11 1 0
BITMAP
0040
3E60
4360
C180
C180
C180
C180
C180
C180
6100
3E00
ENDCHAR
STARTCHAR 01AF
ENCODING 431
SWIDTH 765 0
DWIDTH 17 0
BBX 18 17 0 0
BITMAP
0000C0
0000C0
FC1F80
300400
300400
300400
300400
300400
300400
300400
300400
300400
300400
380800
180800
181800
0FE000
ENDCHAR
STARTCHAR 01B0
ENCODING 432
SWIDTH 540 0
DWIDTH 12 0
BBX 11 10 1 1
BITMAP
E760
6120
61C0
6100
6100
6100
6100
6100
6780
7980
ENDCHAR
STARTCHAR 01CD
ENCODING 461
SWIDTH 720 0
DWIDTH 16 0
BBX 14 19 1 0
BITMAP
08C0
0680
0300
0000
0200
0300
0300
0780
0580
0980
08C0
08C0
1060
1FE0
2070
2030
4030
4038
E03C
ENDCHAR
STARTCHAR 01CE
ENCODING 462
SWIDTH 450 0
DWIDTH 10 0
BBX 9 15 1 0
BITMAP
4200
2400
3C00
1800
0000
7C00
C600
C600
0600
1E00
6600
C600
C600
CE80
F700
ENDCHAR
STARTCHAR 01CF
ENCODING 463
SWIDTH 315 0
DWIDTH 7 0
BBX 6 19 1 0
BITMAP
88
58
70
00
FC
30
30
30
30
30
30
30
30
30
30
30
30
30
78
ENDCHAR
STARTCHAR 01D0
ENCODING 464
SWIDTH 270 0
DWIDTH 6 0
BBX 6 15 0 0
BITMAP
84
48
38
30
00
30
70
30
30
30
30
30
30
30
38
ENDCHAR
STARTCHAR 01D1
ENCODING 465
SWIDTH 720 0
DWIDTH 16 0
BBX 14 19 1 0
BITMAP
0440
0680
0300
0000
0FC0
1060
3030
6018
E01C
C00C
C00C
C00C
C00C
C00C
E01C
6018
6018
3030
0FC0
ENDCHAR
STARTCHAR 01D2
ENCODING 466
SWIDTH 495 0
DWIDTH 11 0
BBX 9 15 1 0
BITMAP
4200
3200
1C00
0C00
0000
3E00
4300
C180
C180
C180
C180
C180
C180
6100
3E00
ENDCHAR
STARTCHAR 01D3
ENCODING 467
SWIDTH 720 0
DWIDTH 16 0
BBX 16 19 0 0
BITMAP
0460
0340
0180
0000
FC1F
3004
3004
3004
3004
3004
3004
3004
3004
3004
3004
3808
1808
1818
0FE0
ENDCHAR
STARTCHAR 01D4
ENCODING 468
SWIDTH 495 0
DWIDTH 11 0
BBX 9 15 1 0
BITMAP
4200
3200
1C00
0C00
0000
E700
6100
6100
6100
6100
6100
6100
6100
6780
7980
ENDCHAR
STARTCHAR 01D5
ENCODING 469
SWIDTH 720 0
DWIDTH 16 0
BBX 16 20 0 0
BITMAP
07E0
07E0
0040
0660
0000
FC1F
3004
3004
3004
3004
3004
3004
3004
3004
3004
3004
3808
1808
1818
0FE0
ENDCHAR
STARTCHAR 01D6
ENCODING 470
SWIDTH 495 0
DWIDTH 11 0
BBX 9 17 1 0
BITMAP
7F00
7F00
0000
2200
7700
2200
0000
E700
6100
6100
6100
6100
6100
6100
6100
6780
7980
ENDCHAR
STARTCHAR 01D7
ENCODING 471
SWIDTH 720 0
DWIDTH 16 0
BBX 16 20 0 0
BITMAP
0080
0100
0040
0660
0000
FC1F
3004
3004
3004
3004
3004
3004
3004
3004
3004
3004
3808
1808
1818
0FE0
ENDCHAR
STARTCHAR 01D8
ENCODING 472
SWIDTH 495 0
DWIDTH 11 0
BBX 9 18 1 0
BITMAP
0C00
0800
0800
0000
2200
7700
2200
0000
E700
6100
6100
6100
6100
6100
6100
6100
6780
7980
ENDCHAR
STARTCHAR 01D9
ENCODING 473
SWIDTH 720 0
DWIDTH 16 0
BBX 16 20 0 0
BITMAP
0200
01C0
0040
0660
0000
FC1F
3004
3004
3004
3004
3004
3004
3004
3004
3004
3004
3808
1808
1818
0FE0
ENDCHAR
STARTCHAR 01DA
ENCODING 474
SWIDTH 495 0
DWIDTH 11 0
BBX 9 18 1 0
BITMAP
2200
3200
1C00
0000
2200
7700
2200
0000
E700
6100
6100
6100
6100
6100
6100
6100
6780
7980
ENDCHAR
STARTCHAR 01DB
ENCODING 475
SWIDTH 720 0
DWIDTH 16 0
BBX 16 20 0 0
BITMAP
0300
0100
0040
0660
0000
FC1F
3004
3004
3004
3004
3004
3004
3004
3004
3004
3004
3808
1808
1818
0FE0
ENDCHAR
STARTCHAR 01DC
ENCODING 476
SWIDTH 495 0
DWIDTH 11 0
BBX 9 18 1 0
BITMAP
1800
0800
0800
0000
2200
7700
2200
0000
E700
6100
6100
6100
6100
6100
6100
6100
6780
7980
ENDCHAR
STARTCHAR 01FA
ENCODING 506
SWIDTH 720 0
DWIDTH 16 0
BBX 14 22 1 0
BITMAP
0180
0300
0200
0000
0780
0480
0480
0300
0300
0300
0780
0580
0980
08C0
08C0
1060
1FE0
2070
2030
4030
4038
E03C
ENDCHAR
STARTCHAR 01FB
ENCODING 507
SWIDTH 450 0
DWIDTH 10 0
BBX 9 20 1 0
BITMAP
0C00
0800
1000
1000
0000
3C00
2400
2400
1800
0000
7C00
C600
C600
0600
1E00
6600
C600
C600
CE80
F700
ENDCHAR
STARTCHAR 01FC
ENCODING 508
SWIDTH 900 0
DWIDTH 20 0
BBX 19 20 0 0
BITMAP
003000
006000
004000
000000
000000
03FFC0
00E040
016040
016000
026000
026080
046080
047F80
086080
0FE080
106000
106000
206020
606040
F0FFC0
ENDCHAR
STARTCHAR 01FD
ENCODING 509
SWIDTH 675 0
DWIDTH 15 0
BBX 13 15 1 0
BITMAP
0300
0200
0200
0400
0000
7DF0
C618
C618
07F8
1E00
6600
C600
C708
C790
F9E0
ENDCHAR
STARTCHAR 01FE
ENCODING 510
SWIDTH 720 0
DWIDTH 16 0
BBX 14 21 1 -1
BITMAP
0180
0100
0200
0200
0000
0FC8
1068
3030
6038
E05C
C09C
C10C
C10C
C20C
C40C
E81C
7018
7018
3030
4CC0
0300
ENDCHAR
STARTCHAR 01FF
ENCODING 511
SWIDTH 495 0
DWIDTH 11 0
BBX 9 16 1 -1
BITMAP
0C00
0C00
0800
1000
0000
3E80
4300
C380
C580
C580
C980
D180
E180
6100
B600
0800
ENDCHAR
STARTCHAR 0218
ENCODING 536
SWIDTH 540 0
DWIDTH 12 0
BBX 10 20 1 -5
BITMAP
3E80
6180
4080
C080
E000
7000
3C00
1F00
0780
03C0
00C0
80C0
40C0
4080
7F00
0000
0C00
0E00
0200
0400
ENDCHAR
STARTCHAR 0219
ENCODING 537
SWIDTH 405 0
DWIDTH 9 0
BBX 7 15 1 -5
BITMAP
7C
84
C4
E0
78
3C
0E
86
86
EC
10
30
38
08
10
ENDCHAR
STARTCHAR 021A
ENCODING 538
SWIDTH 630 0
DWIDTH 14 0
BBX 12 20 1 -5
BITMAP
FFF0
8630
8610
0600
0600
0600
0600
0600
0600
0600
0600
0600
0600
0600
0F00
0000
0600
0600
0200
0400
ENDCHAR
STARTCHAR 021B
ENCODING 539
SWIDTH 270 0
DWIDTH 6 0
BBX 6 18 0 -5
BITMAP
10
30
30
FC
30
30
30
30
30
30
30
34
38
00
30
38
10
10
ENDCHAR
STARTCHAR 0259
ENCODING 601
SWIDTH 450 0
DWIDTH 10 0
BBX 8 10 1 0
BITMAP
3C
7E
87
03
03
01
FF
C1
C2
7C
ENDCHAR
STARTCHAR 02C6
ENCODING 710
SWIDTH 315 0
DWIDTH 7 0
BBX 6 4 1 11
BITMAP
70
58
88
04
ENDCHAR
STARTCHAR 02C7
ENCODING 711
SWIDTH 315 0
DWIDTH 7 0
BBX 5 4 1 11
BITMAP
88
48
70
30
ENDCHAR
STARTCHAR 02C9
ENCODING 713
SWIDTH 315 0
DWIDTH 7 0
BBX 7 2 0 13
BITMAP
FE
FE
ENDCHAR
STARTCHAR 02D8
ENCODING 728
SWIDTH 315 0
DWIDTH 7 0
BBX 6 3 1 12
BITMAP
04
8C
78
ENDCHAR
STARTCHAR 02D9
ENCODING 729
SWIDTH 315 0
DWIDTH 7 0
BBX 2 2 3 13
BITMAP
C0
C0
ENDCHAR
STARTCHAR 02DA
ENCODING 730
SWIDTH 315 0
DWIDTH 7 0
BBX 4 4 2 11
BITMAP
E0
90
90
60
ENDCHAR
STARTCHAR 02DB
ENCODING 731
SWIDTH 315 0
DWIDTH 7 0
BBX 4 4 2 -4
BITMAP
80
80
C0
F0
ENDCHAR
STARTCHAR 02DC
ENCODING 732
SWIDTH 315 0
DWIDTH 7 0
BBX 7 3 0 12
BITMAP
60
7A
9C
ENDCHAR
STARTCHAR 02DD
ENCODING 733
SWIDTH 315 0
DWIDTH 7 0
BBX 6 4 1 11
BITMAP
CC
C8
90
10
ENDCHAR
STARTCHAR 0300
ENCODING 768
SWIDTH 0 0
DWIDTH 0 0
BBX 3 3 -5 16
BITMAP
C0
40
20
ENDCHAR
STARTCHAR 0301
ENCODING 769
SWIDTH 0 0
DWIDTH 0 0
BBX 3 3 -4 16
BITMAP
60
C0
80
ENDCHAR
STARTCHAR 0303
ENCODING 771
SWIDTH 0 0
DWIDTH 0 0
BBX 7 3 -8 16
BITMAP
E2
BC
1C
ENDCHAR
STARTCHAR 0309
ENCODING 777
SWIDTH 0 0
DWIDTH 0 0
BBX 3 3 -4 16
BITMAP
C0
20
40
ENDCHAR
STARTCHAR 0323
ENCODING 803
SWIDTH 0 0
DWIDTH 0 0
BBX 3 3 -10 -4
BITMAP
40
E0
40
ENDCHAR
STARTCHAR 037E
ENCODING 894
SWIDTH 270 0
DWIDTH 6 0
BBX 3 14 2 -4
BITMAP
C0
C0
00
00
00
00
00
00
C0
E0
20
40
40
80
ENDCHAR
STARTCHAR 0384
ENCODING 900
SWIDTH 315 0
DWIDTH 7 0
BBX 3 3 3 11
BITMAP
60
C0
80
ENDCHAR
STARTCHAR 0385
ENCODING 901
SWIDTH 315 0
DWIDTH 7 0
BBX 8 4 0 11
BITMAP
1C
DA
D7
C2
ENDCHAR
STARTCHAR 0386
ENCODING 902
SWIDTH 720 0
DWIDTH 16 0
BBX 14 15 1 0
BITMAP
3200
6300
4300
0780
0580
0980
08C0
08C0
1060
1FE0
2070
2030
4030
4038
E03C
ENDCHAR
STARTCHAR 0387
ENCODING 903
SWIDTH 270 0
DWIDTH 6 0
BBX 2 2 2 8
BITMAP
C0
C0
ENDCHAR
STARTCHAR 0388
ENCODING 904
SWIDTH 675 0
DWIDTH 15 0
BBX 17 15 -2 0
BITMAP
6FFF00
430300
430100
830100
030000
030000
030400
03FC00
030400
030000
030000
030080
030100
038100
07FF00
ENDCHAR
STARTCHAR 0389
ENCODING 905
SWIDTH 810 0
DWIDTH 18 0
BBX 20 15 -2 0
BITMAP
6FE7F0
4381C0
430180
830180
030180
030180
030180
03FF80
030180
030180
030180
030180
030180
038180
07C3E0
ENDCHAR
STARTCHAR 038A
ENCODING 906
SWIDTH 405 0
DWIDTH 9 0
BBX 11 15 -2 0
BITMAP
6FE0
4380
4300
8300
0300
0300
0300
0300
0300
0300
0300
0300
0300
0380
07C0
ENDCHAR
STARTCHAR 038C
ENCODING 908
SWIDTH 720 0
DWIDTH 16 0
BBX 16 15 -1 0
BITMAP
63F0
4418
4C0C
9806
3807
3003
3003
3003
3003
3003
3807
1806
1806
0C0C
03F0
ENDCHAR
STARTCHAR 038E
ENCODING 910
SWIDTH 810 0
DWIDTH 18 0
BBX 20 15 -2 0
BITMAP
6FE1F0
4380C0
418080
81C100
00C100
006200
007600
003400
001800
001800
001800
001800
001800
001800
003C00
ENDCHAR
STARTCHAR 038F
ENCODING 911
SWIDTH 765 0
DWIDTH 17 0
BBX 17 15 -1 0
BITMAP
63F000
460C00
4C0600
980700
380300
380300
380300
380300
180300
180700
0C0600
060C00
411080
3F1F80
3F1F80
ENDCHAR
STARTCHAR 0390
ENCODING 912
SWIDTH 270 0
DWIDTH 6 0
BBX 8 15 -1 0
BITMAP
0C
4A
D3
42
00
18
38
18
18
18
18
18
18
18
1E
ENDCHAR
STARTCHAR 0391
ENCODING 913
SWIDTH 720 0
DWIDTH 16 0
BBX 14 15 1 0
BITMAP
0200
0300
0300
0780
0580
0980
08C0
08C0
1060
1FE0
2070
2030
4030
4038
E03C
ENDCHAR
STARTCHAR 0392
ENCODING 914
SWIDTH 675 0
DWIDTH 15 0
BBX 14 15 0 0
BITMAP
FF80
3870
3830
3818
3818
3838
3870
3FC0
3830
3818
381C
381C
3818
3838
7FE0
ENDCHAR
STARTCHAR 0393
ENCODING 915
SWIDTH 585 0
DWIDTH 13 0
BBX 12 15 0 0
BITMAP
FFF0
3810
1810
1800
1800
1800
1800
1800
1800
1800
1800
1800
1800
3800
7C00
ENDCHAR
STARTCHAR 0394
ENCODING 916
SWIDTH 630 0
DWIDTH 14 0
BBX 13 15 1 0
BITMAP
0200
0600
0700
0700
0B00
0980
1180
11C0
20C0
20C0
2060
4060
4070
8030
FFF8
ENDCHAR
STARTCHAR 0395
ENCODING 917
SWIDTH 630 0
DWIDTH 14 0
BBX 13 15 0 0
BITMAP
FFF0
3810
1810
1800
1800
1820
1820
1FE0
1820
1820
1800
1800
1808
3810
7FF0
ENDCHAR
STARTCHAR 0396
ENCODING 918
SWIDTH 630 0
DWIDTH 14 0
BBX 13 15 0 0
BITMAP
3FF8
2070
4060
00E0
01C0
0180
0300
0700
0600
0C00
1C00
3808
3008
7018
FFF0
ENDCHAR
STARTCHAR 0397
ENCODING 919
SWIDTH 720 0
DWIDTH 16 0
BBX 16 15 0 0
BITMAP
FE7F
381C
3818
3818
3818
3818
3818
3FF8
3818
3818
3818
3818
3818
381C
7C3E
ENDCHAR
STARTCHAR 0398
ENCODING 920
SWIDTH 720 0
DWIDTH 16 0
BBX 14 15 1 0
BITMAP
0FC0
1860
3030
6018
E01C
C84C
C84C
CFCC
CFCC
C84C
E01C
6018
6018
3030
0FC0
ENDCHAR
STARTCHAR 0399
ENCODING 921
SWIDTH 315 0
DWIDTH 7 0
BBX 6 15 1 0
BITMAP
FC
30
30
30
30
30
30
30
30
30
30
30
30
30
78
ENDCHAR
STARTCHAR 039A
ENCODING 922
SWIDTH 720 0
DWIDTH 16 0
BBX 16 15 0 0
BITMAP
FE7C
3830
3820
3840
3880
3900
3A00
3E00
3F00
3B80
39C0
38E0
3870
3838
7C3F
ENDCHAR
STARTCHAR 039B
ENCODING 923
SWIDTH 720 0
DWIDTH 16 0
BBX 14 15 1 0
BITMAP
0200
0300
0300
0780
0580
0980
08C0
08C0
1060
1060
2070
2030
2030
4038
E03C
ENDCHAR
STARTCHAR 039C
ENCODING 924
SWIDTH 900 0
DWIDTH 20 0
BBX 19 15 0 0
BITMAP
F801E0
380180
3C0380
2C0380
2C0580
260580
260980
230980
231180
219180
21B180
21E180
20E180
20C180
7043C0
ENDCHAR
STARTCHAR 039D
ENCODING 925
SWIDTH 720 0
DWIDTH 16 0
BBX 16 15 0 0
BITMAP
F01F
3804
1804
1C04
1E04
1704
1384
11C4
10C4
1064
1074
103C
101C
100C
3804
ENDCHAR
STARTCHAR 039E
ENCODING 926
SWIDTH 630 0
DWIDTH 14 0
BBX 12 15 1 0
BITMAP
FFF0
FFF0
8010
8000
0000
2000
2040
3FC0
3FC0
2040
0000
0000
8010
FFF0
FFF0
ENDCHAR
STARTCHAR 039F
ENCODING 927
SWIDTH 720 0
DWIDTH 16 0
BBX 14 15 1 0
BITMAP
0FC0
1060
3030
6018
E01C
C00C
C00C
C00C
C00C
C00C
E01C
6018
6018
3030
0FC0
ENDCHAR
STARTCHAR 03A0
ENCODING 928
SWIDTH 720 0
DWIDTH 16 0
BBX 16 15 0 0
BITMAP
FFFF
381C
181C
181C
181C
181C
181C
181C
181C
181C
181C
181C
181C
381C
7C3E
ENDCHAR
STARTCHAR 03A1
ENCODING 929
SWIDTH 540 0
DWIDTH 12 0
BBX 12 15 0 0
BITMAP
FF00
39C0
3860
3860
3870
3860
3860
39C0
3E00
3800
3800
3800
3800
3800
7C00
ENDCHAR
STARTCHAR 03A3
ENCODING 931
SWIDTH 585 0
DWIDTH 13 0
BBX 12 15 0 0
BITMAP
FFE0
7020
3010
1810
1C00
0E00
0700
0200
0200
0400
0800
1010
2010
7FF0
FFF0
ENDCHAR
STARTCHAR 03A4
ENCODING 932
SWIDTH 630 0
DWIDTH 14 0
BBX 12 15 1 0
BITMAP
FFF0
8630
8610
0600
0600
0600
0600
0600
0600
0600
0600
0600
0600
0600
0F00
ENDCHAR
STARTCHAR 03A5
ENCODING 933
SWIDTH 720 0
DWIDTH 16 0
BBX 16 15 0 0
BITMAP
FC1F
380C
1808
1C10
0C10
0620
0740
0340
0180
0180
0180
0180
0180
0180
03C0
ENDCHAR
STARTCHAR 03A6
ENCODING 934
SWIDTH 720 0
DWIDTH 16 0
BBX 14 15 1 0
BITMAP
0FC0
0300
07C0
3B30
6318
C30C
C30C
C30C
C30C
C30C
630C
3318
1FE0
0300
0780
ENDCHAR
STARTCHAR 03A7
ENCODING 935
SWIDTH 720 0
DWIDTH 16 0
BBX 15 15 0 0
BITMAP
FE3E
1C08
0C10
0E10
0620
0340
0380
0180
01C0
02E0
0470
0830
1838
101C
783E
ENDCHAR
STARTCHAR 03A8
ENCODING 936
SWIDTH 720 0
DWIDTH 16 0
BBX 16 15 0 0
BITMAP
C7E3
6186
6186
7186
7186
3186
318C
199C
07E0
0180
0180
0180
0180
0180
03C0
ENDCHAR
STARTCHAR 03A9
ENCODING 937
SWIDTH 765 0
DWIDTH 17 0
BBX 15 15 1 0
BITMAP
0FC0
1830
3018
601C
E00C
E00C
E00C
E00C
600C
601C
3018
1830
8442
FC7E
FC7E
ENDCHAR
STARTCHAR 03AA
ENCODING 938
SWIDTH 315 0
DWIDTH 7 0
BBX 6 19 1 0
BITMAP
08
DC
C8
00
FC
30
30
30
30
30
30
30
30
30
30
30
30
30
78
ENDCHAR
STARTCHAR 03AB
ENCODING 939
SWIDTH 720 0
DWIDTH 16 0
BBX 16 18 0 1
BITMAP
0660
0260
0000
FC1F
380C
1808
1C10
0C10
0620
0740
0340
0180
0180
0180
0180
0180
0180
03C0
ENDCHAR
STARTCHAR 03AC
ENCODING 940
SWIDTH 540 0
DWIDTH 12 0
BBX 10 15 1 0
BITMAP
0E00
0C00
0800
0000
0000
3D80
6580
C380
C380
C100
C300
C300
C300
4740
7CC0
ENDCHAR
STARTCHAR 03AD
ENCODING 941
SWIDTH 405 0
DWIDTH 9 0
BBX 8 15 1 0
BITMAP
0C
08
10
10
00
7E
C3
C0
40
3C
60
C0
C3
C3
7E
ENDCHAR
STARTCHAR 03AE
ENCODING 942
SWIDTH 540 0
DWIDTH 12 0
BBX 10 20 0 -5
BITMAP
0300
0600
0400
0000
0000
7380
BCC0
30C0
30C0
30C0
30C0
30C0
30C0
30C0
30C0
00C0
00C0
00C0
00C0
0040
ENDCHAR
STARTCHAR 03AF
ENCODING 943
SWIDTH 270 0
DWIDTH 6 0
BBX 5 15 1 0
BITMAP
30
20
40
00
00
60
E0
60
60
60
60
60
60
60
78
ENDCHAR
STARTCHAR 03B0
ENCODING 944
SWIDTH 495 0
DWIDTH 11 0
BBX 10 15 0 0
BITMAP
0600
2480
3580
2880
0000
F100
3080
30C0
30C0
30C0
30C0
30C0
30C0
3180
1F00
ENDCHAR
STARTCHAR 03B1
ENCODING 945
SWIDTH 540 0
DWIDTH 12 0
BBX 10 10 1 0
BITMAP
3D80
6580
C380
C380
C100
C300
C300
C300
4740
7CC0
ENDCHAR
STARTCHAR 03B2
ENCODING 946
SWIDTH 495 0
DWIDTH 11 0
BBX 10 20 1 -5
BITMAP
3E00
6300
4180
4180
4100
4300
4E00
4180
4180
4180
40C0
4080
4180
6180
5300
4C00
4000
4000
C000
C000
ENDCHAR
STARTCHAR 03B3
ENCODING 947
SWIDTH 450 0
DWIDTH 10 0
BBX 9 15 0 -5
BITMAP
6180
B180
9100
0B00
0A00
0A00
0A00
0C00
0400
0800
0800
0800
0800
1800
0800
ENDCHAR
STARTCHAR 03B4
ENCODING 948
SWIDTH 450 0
DWIDTH 10 0
BBX 9 15 1 0
BITMAP
7E00
4300
4000
2000
1800
0C00
3600
6300
C300
C180
C180
C180
C100
4200
7C00
ENDCHAR
STARTCHAR 03B5
ENCODING 949
SWIDTH 405 0
DWIDTH 9 0
BBX 8 10 1 0
BITMAP
7E
C3
C0
40
3C
60
C0
C3
C3
7E
ENDCHAR
STARTCHAR 03B6
ENCODING 950
SWIDTH 405 0
DWIDTH 9 0
BBX 8 20 1 -5
BITMAP
63
4E
3C
20
40
40
80
80
80
80
80
80
80
FE
7F
01
01
01
1E
0C
ENDCHAR
STARTCHAR 03B7
ENCODING 951
SWIDTH 540 0
DWIDTH 12 0
BBX 10 15 0 -5
BITMAP
7380
BCC0
30C0
30C0
30C0
30C0
30C0
30C0
30C0
30C0
00C0
00C0
00C0
00C0
0040
ENDCHAR
STARTCHAR 03B8
ENCODING 952
SWIDTH 495 0
DWIDTH 11 0
BBX 9 15 1 0
BITMAP
3E00
6200
4300
C100
C180
C180
C180
FF80
C180
C180
C100
C300
4300
6200
3C00
ENDCHAR
STARTCHAR 03B9
ENCODING 953
SWIDTH 270 0
DWIDTH 6 0
BBX 5 10 1 0
BITMAP
60
E0
60
60
60
60
60
60
60
78
ENDCHAR
STARTCHAR 03BA
ENCODING 954
SWIDTH 495 0
DWIDTH 11 0
BBX 10 10 1 0
BITMAP
E1C0
62C0
6400
6800
7800
7C00
6C00
6600
6300
63C0
ENDCHAR
STARTCHAR 03BB
ENCODING 955
SWIDTH 495 0
DWIDTH 11 0
BBX 11 15 0 0
BITMAP
7000
4800
0800
0800
0400
0400
0C00
0C00
1A00
1A00
3200
3200
6120
61A0
E1C0
ENDCHAR
STARTCHAR 03BC
ENCODING 956
SWIDTH 540 0
DWIDTH 12 0
BBX 11 15 1 -5
BITMAP
6180
6180
6180
6180
6180
6180
6180
6180
63A0
7DC0
4000
4000
C000
C000
4000
ENDCHAR
STARTCHAR 03BD
ENCODING 957
SWIDTH 450 0
DWIDTH 10 0
BBX 10 10 0 0
BITMAP
E0C0
60C0
3080
3080
1100
1900
1A00
0A00
0C00
0C00
ENDCHAR
STARTCHAR 03BE
ENCODING 958
SWIDTH 450 0
DWIDTH 10 0
BBX 9 20 1 -5
BITMAP
4600
4E00
3000
2000
4000
2200
1F00
2000
4000
8000
8000
8000
8000
FF00
7F00
0180
0080
0080
0F00
0E00
ENDCHAR
STARTCHAR 03BF
ENCODING 959
SWIDTH 495 0
DWIDTH 11 0
BBX 9 10 1 0
BITMAP
3E00
4300
C180
C180
C180
C180
C180
C180
6100
3E00
ENDCHAR
STARTCHAR 03C0
ENCODING 960
SWIDTH 495 0
DWIDTH 11 0
BBX 11 10 0 0
BITMAP
3FE0
7FE0
9100
1100
1100
1300
1300
3320
73A0
61C0
ENDCHAR
STARTCHAR 03C1
ENCODING 961
SWIDTH 495 0
DWIDTH 11 0
BBX 9 15 1 -5
BITMAP
1E00
6300
4180
C180
C180
C080
C080
C180
C100
F200
CC00
C000
C000
C000
C000
ENDCHAR
STARTCHAR 03C2
ENCODING 962
SWIDTH 405 0
DWIDTH 9 0
BBX 7 15 1 -5
BITMAP
1E
66
80
80
80
80
80
80
FC
7E
02
02
02
1E
1C
ENDCHAR
STARTCHAR 03C3
ENCODING 963
SWIDTH 540 0
DWIDTH 12 0
BBX 11 10 1 0
BITMAP
3FE0
7FE0
E200
C100
C180
C080
C080
C180
6180
3F00
ENDCHAR
STARTCHAR 03C4
ENCODING 964
SWIDTH 405 0
DWIDTH 9 0
BBX 8 10 0 0
BITMAP
3F
7F
88
08
08
18
18
19
1D
0E
ENDCHAR
STARTCHAR 03C5
ENCODING 965
SWIDTH 495 0
DWIDTH 11 0
BBX 10 10 0 0
BITMAP
F100
3080
30C0
30C0
30C0
30C0
30C0
30C0
3180
1F00
ENDCHAR
STARTCHAR 03C6
ENCODING 966
SWIDTH 585 0
DWIDTH 13 0
BBX 11 15 1 -5
BITMAP
3780
44C0
C460
C460
C460
C460
C460
C440
64C0
3580
0E00
0400
0400
0400
0400
ENDCHAR
STARTCHAR 03C7
ENCODING 967
SWIDTH 450 0
DWIDTH 10 0
BBX 11 15 0 -5
BITMAP
7080
5180
9100
0B00
0A00
0E00
0400
0C00
0C00
1C00
1400
3220
2240
63C0
C180
ENDCHAR
STARTCHAR 03C8
ENCODING 968
SWIDTH 630 0
DWIDTH 14 0
BBX 12 15 1 -5
BITMAP
C630
C660
6660
6660
6660
6660
6660
26C0
36C0
1F00
0600
0600
0600
0600
0600
ENDCHAR
STARTCHAR 03C9
ENCODING 969
SWIDTH 675 0
DWIDTH 15 0
BBX 13 10 1 0
BITMAP
30C0
6030
C630
C618
C618
C618
C218
C218
4630
79E0
ENDCHAR
STARTCHAR 03CA
ENCODING 970
SWIDTH 270 0
DWIDTH 6 0
BBX 6 14 0 0
BITMAP
CC
CC
CC
00
30
70
30
30
30
30
30
30
30
3C
ENDCHAR
STARTCHAR 03CB
ENCODING 971
SWIDTH 495 0
DWIDTH 11 0
BBX 10 14 0 0
BITMAP
1100
3B00
1100
0000
F100
3080
30C0
30C0
30C0
30C0
30C0
30C0
3180
1F00
ENDCHAR
STARTCHAR 03CC
ENCODING 972
SWIDTH 495 0
DWIDTH 11 0
BBX 9 15 1 0
BITMAP
0C00
0800
0800
1000
0000
3E00
4300
C180
C180
C180
C180
C180
C180
6100
3E00
ENDCHAR
STARTCHAR 03CD
ENCODING 973
SWIDTH 495 0
DWIDTH 11 0
BBX 10 15 0 0
BITMAP
0600
0400
0400
0800
0000
F100
3080
30C0
30C0
30C0
30C0
30C0
30C0
3180
1F00
ENDCHAR
STARTCHAR 03CE
ENCODING 974
SWIDTH 675 0
DWIDTH 15 0
BBX 13 15 1 0
BITMAP
0300
0200
0200
0400
0000
30C0
6030
C630
C618
C618
C618
C218
C218
4630
79E0
ENDCHAR
STARTCHAR 0401
ENCODING 1025
SWIDTH 630 0
DWIDTH 14 0
BBX 13 18 0 1
BITMAP
0CC0
0CC0
0000
FFF0
3810
1810
1800
1800
1820
1820
1FE0
1820
1820
1800
1800
1808
3810
7FF0
ENDCHAR
STARTCHAR 0402
ENCODING 1026
SWIDTH 765 0
DWIDTH 17 0
BBX 15 15 1 0
BITMAP
FFE0
8C60
8C20
0C00
0C00
0CF8
0D1C
0E0C
0C0E
0C0E
0C0E
0C0E
0C0E
0C0C
1E38
ENDCHAR
STARTCHAR 0403
ENCODING 1027
SWIDTH 585 0
DWIDTH 13 0
BBX 12 20 0 0
BITMAP
0300
0300
0200
0400
0000
FFF0
3810
1810
1800
1800
1800
1800
1800
1800
1800
1800
1800
1800
3800
7C00
ENDCHAR
STARTCHAR 0404
ENCODING 1028
SWIDTH 675 0
DWIDTH 15 0
BBX 13 15 1 0
BITMAP
0FD0
1830
3010
6010
E000
E000
C000
FF00
C000
C000
E000
6000
7008
3810
0FE0
ENDCHAR
STARTCHAR 0405
ENCODING 1029
SWIDTH 540 0
DWIDTH 12 0
BBX 10 15 1 0
BITMAP
3E80
6180
4080
C080
E000
7000
3C00
1F00
0780
03C0
00C0
80C0
40C0
4080
7F00
ENDCHAR
STARTCHAR 0406
ENCODING 1030
SWIDTH 315 0
DWIDTH 7 0
BBX 6 15 1 0
BITMAP
FC
30
30
30
30
30
30
30
30
30
30
30
30
30
78
ENDCHAR
STARTCHAR 0407
ENCODING 1031
SWIDTH 315 0
DWIDTH 7 0
BBX 6 19 1 0
BITMAP
08
DC
C8
00
FC
30
30
30
30
30
30
30
30
30
30
30
30
30
78
ENDCHAR
STARTCHAR 0408
ENCODING 1032
SWIDTH 405 0
DWIDTH 9 0
BBX 9 15 0 0
BITMAP
3F80
0E00
0C00
0C00
0C00
0C00
0C00
0C00
0C00
0C00
0C00
0C00
0C00
EC00
7800
ENDCHAR
STARTCHAR 0409
ENCODING 1033
SWIDTH 855 0
DWIDTH 19 0
BBX 19 15 0 0
BITMAP
1FFC00
043000
043000
043000
043000
043000
043000
043F00
0431C0
0430C0
0430E0
0830E0
0830C0
D831C0
F07F00
ENDCHAR
STARTCHAR 040A
ENCODING 1034
SWIDTH 855 0
DWIDTH 19 0
BBX 19 15 0 0
BITMAP
FEFC00
383000
183000
183000
183000
183000
183000
1FFF00
1831C0
1830C0
1830E0
1830E0
1830C0
3831C0
7C7F00
ENDCHAR
STARTCHAR 040B
ENCODING 1035
SWIDTH 720 0
DWIDTH 16 0
BBX 14 15 1 0
BITMAP
FFE0
8C60
8C20
0C00
0C00
0CF0
0D38
0E18
0C18
0C18
0C18
0C18
0C18
0C18
1E3C
ENDCHAR
STARTCHAR 040C
ENCODING 1036
SWIDTH 675 0
DWIDTH 15 0
BBX 14 19 0 0
BITMAP
0180
0100
0200
0000
FE1C
383C
1840
1840
1880
1880
1900
1E00
1B80
1980
18C0
18E0
1870
3830
7C1C
ENDCHAR
STARTCHAR 040D
ENCODING 1037
SWIDTH 720 0
DWIDTH 16 0
BBX 16 19 0 0
BITMAP
0300
0100
0080
0000
FE7F
381C
181C
181C
183C
185C
189C
189C
191C
1A1C
1C1C
181C
181C
381C
7C3E
ENDCHAR
STARTCHAR 040E
ENCODING 1038
SWIDTH 720 0
DWIDTH 16 0
BBX 15 20 0 0
BITMAP
0810
0C30
0C30
03C0
0000
FC1E
380C
1808
1808
0C10
0E10
0620
0720
0320
01C0
01C0
0080
0080
0900
1E00
ENDCHAR
STARTCHAR 040F
ENCODING 1039
SWIDTH 720 0
DWIDTH 16 0
BBX 16 18 0 -4
BITMAP
FE7F
381C
181C
181C
181C
181C
181C
181C
181C
181C
181C
181C
181C
381C
7FFE
03C0
0180
0100
ENDCHAR
STARTCHAR 0410
ENCODING 1040
SWIDTH 720 0
DWIDTH 16 0
BBX 14 15 1 0
BITMAP
0200
0300
0300
0780
0580
0980
08C0
08C0
1060
1FE0
2070
2030
4030
4038
E03C
ENDCHAR
STARTCHAR 0411
ENCODING 1041
SWIDTH 585 0
DWIDTH 13 0
BBX 11 15 1 0
BITMAP
FFC0
7040
3040
3000
3000
3000
3000
3F80
31C0
30E0
3060
3060
30E0
71C0
FF80
ENDCHAR
STARTCHAR 0412
ENCODING 1042
SWIDTH 675 0
DWIDTH 15 0
BBX 14 15 0 0
BITMAP
FF80
3870
3830
3818
3818
3838
3870
3FC0
3830
3818
381C
381C
3818
3838
7FE0
ENDCHAR
STARTCHAR 0413
ENCODING 1043
SWIDTH 585 0
DWIDTH 13 0
BBX 12 15 0 0
BITMAP
FFF0
3810
1810
1800
1800
1800
1800
1800
1800
1800
1800
1800
1800
3800
7C00
ENDCHAR
STARTCHAR 0414
ENCODING 1044
SWIDTH 675 0
DWIDTH 15 0
BBX 15 19 0 -4
BITMAP
1FFE
0418
0418
0418
0418
0418
0418
0418
0818
0818
0818
0818
1018
3038
7FFC
E00E
C006
8002
8002
ENDCHAR
STARTCHAR 0415
ENCODING 1045
SWIDTH 630 0
DWIDTH 14 0
BBX 13 15 0 0
BITMAP
FFF0
3810
1810
1800
1800
1820
1820
1FE0
1820
1820
1800
1800
1808
3810
7FF0
ENDCHAR
STARTCHAR 0416
ENCODING 1046
SWIDTH 900 0
DWIDTH 20 0
BBX 19 15 0 0
BITMAP
71F8E0
F861E0
086100
086200
046200
046200
026400
03F800
026C00
066600
0C6300
0C6300
186180
386180
70F0E0
ENDCHAR
STARTCHAR 0417
ENCODING 1047
SWIDTH 495 0
DWIDTH 11 0
BBX 9 15 1 0
BITMAP
BE00
C300
8180
8180
0180
0300
0600
3E00
0300
0380
0180
0180
0380
8300
7E00
ENDCHAR
STARTCHAR 0418
ENCODING 1048
SWIDTH 720 0
DWIDTH 16 0
BBX 16 15 0 0
BITMAP
FE7F
381C
181C
181C
183C
185C
189C
189C
191C
1A1C
1C1C
181C
181C
381C
7C3E
ENDCHAR
STARTCHAR 0419
ENCODING 1049
SWIDTH 720 0
DWIDTH 16 0
BBX 16 20 0 0
BITMAP
0810
0C30
0C30
03C0
0000
FE7F
381C
181C
181C
183C
185C
189C
189C
191C
1A1C
1C1C
181C
181C
381C
7C3E
ENDCHAR
STARTCHAR 041A
ENCODING 1050
SWIDTH 675 0
DWIDTH 15 0
BBX 14 15 0 0
BITMAP
FE1C
383C
1840
1840
1880
1880
1900
1E00
1B80
1980
18C0
18E0
1870
3830
7C1C
ENDCHAR
STARTCHAR 041B
ENCODING 1051
SWIDTH 675 0
DWIDTH 15 0
BBX 15 15 0 0
BITMAP
1FFE
0438
0438
0438
0438
0438
0438
0438
0438
0438
0438
0838
0838
D838
F07C
ENDCHAR
STARTCHAR 041C
ENCODING 1052
SWIDTH 900 0
DWIDTH 20 0
BBX 19 15 0 0
BITMAP
F801E0
380180
3C0380
2C0380
2C0580
260580
260980
230980
231180
219180
21B180
21E180
20E180
20C180
7043C0
ENDCHAR
STARTCHAR 041D
ENCODING 1053
SWIDTH 720 0
DWIDTH 16 0
BBX 16 15 0 0
BITMAP
FE7F
381C
3818
3818
3818
3818
3818
3FF8
3818
3818
3818
3818
3818
381C
7C3E
ENDCHAR
STARTCHAR 041E
ENCODING 1054
SWIDTH 720 0
DWIDTH 16 0
BBX 14 15 1 0
BITMAP
0FC0
1060
3030
6018
E01C
C00C
C00C
C00C
C00C
C00C
E01C
6018
6018
3030
0FC0
ENDCHAR
STARTCHAR 041F
ENCODING 1055
SWIDTH 720 0
DWIDTH 16 0
BBX 16 15 0 0
BITMAP
FFFF
381C
181C
181C
181C
181C
181C
181C
181C
181C
181C
181C
181C
381C
7C3E
ENDCHAR
STARTCHAR 0420
ENCODING 1056
SWIDTH 540 0
DWIDTH 12 0
BBX 12 15 0 0
BITMAP
FF00
39C0
3860
3860
3870
3860
3860
39C0
3E00
3800
3800
3800
3800
3800
7C00
ENDCHAR
STARTCHAR 0421
ENCODING 1057
SWIDTH 675 0
DWIDTH 15 0
BBX 13 15 1 0
BITMAP
0FD0
1830
3018
6008
E008
C000
C000
C000
C000
C000
E000
6000
7018
3810
1FE0
ENDCHAR
STARTCHAR 0422
ENCODING 1058
SWIDTH 630 0
DWIDTH 14 0
BBX 12 15 1 0
BITMAP
FFF0
8630
8610
0600
0600
0600
0600
0600
0600
0600
0600
0600
0600
0600
0F00
ENDCHAR
STARTCHAR 0423
ENCODING 1059
SWIDTH 720 0
DWIDTH 16 0
BBX 15 15 0 0
BITMAP
FC1E
380C
1808
1808
0C10
0E10
0620
0720
0320
01C0
01C0
0080
0080
0900
1E00
ENDCHAR
STARTCHAR 0424
ENCODING 1060
SWIDTH 810 0
DWIDTH 18 0
BBX 16 15 1 0
BITMAP
07E0
0180
07C0
39BC
6186
C186
C187
C183
C187
C186
6186
318C
1FF0
0180
03C0
ENDCHAR
STARTCHAR 0425
ENCODING 1061
SWIDTH 720 0
DWIDTH 16 0
BBX 15 15 0 0
BITMAP
FE3E
1C08
0C10
0E10
0620
0340
0380
0180
01C0
02E0
0470
0830
1838
101C
783E
ENDCHAR
STARTCHAR 0426
ENCODING 1062
SWIDTH 720 0
DWIDTH 16 0
BBX 16 19 0 -4
BITMAP
FE7F
381C
181C
181C
181C
181C
181C
181C
181C
181C
181C
181C
181C
381C
7FFC
0007
0003
0001
0001
ENDCHAR
STARTCHAR 0427
ENCODING 1063
SWIDTH 630 0
DWIDTH 14 0
BBX 14 15 0 0
BITMAP
FCFC
3030
3030
3030
3030
3030
3030
3030
1FF0
0430
0030
0030
0030
0030
0078
ENDCHAR
STARTCHAR 0428
ENCODING 1064
SWIDTH 990 0
DWIDTH 22 0
BBX 21 15 1 0
BITMAP
F9F9F8
706060
306060
306060
306060
306060
306060
306060
306060
306060
306060
306060
306060
706060
FFFFF0
ENDCHAR
STARTCHAR 0429
ENCODING 1065
SWIDTH 990 0
DWIDTH 22 0
BBX 21 19 1 -4
BITMAP
F9F9F8
706060
306060
306060
306060
306060
306060
306060
306060
306060
306060
306060
306060
706060
FFFFF0
000038
000018
000008
000008
ENDCHAR
STARTCHAR 042A
ENCODING 1066
SWIDTH 720 0
DWIDTH 16 0
BBX 14 15 1 0
BITMAP
FF80
8E00
8E00
0E00
0E00
0E00
0E00
0FF0
0E38
0E1C
0E1C
0E1C
0E1C
0E38
1FF0
ENDCHAR
STARTCHAR 042B
ENCODING 1067
SWIDTH 855 0
DWIDTH 19 0
BBX 19 15 0 0
BITMAP
FE07E0
380180
180180
180180
180180
180180
180180
1FC180
18E180
187180
183180
183180
187180
38E180
7FC3C0
ENDCHAR
STARTCHAR 042C
ENCODING 1068
SWIDTH 585 0
DWIDTH 13 0
BBX 12 15 0 0
BITMAP
FE00
3800
1800
1800
1800
1800
1800
1FC0
18E0
1870
1830
1830
1870
38E0
7FC0
ENDCHAR
STARTCHAR 042D
ENCODING 1069
SWIDTH 675 0
DWIDTH 15 0
BBX 13 15 1 0
BITMAP
9F00
E0C0
C060
8030
8030
0038
0038
07F8
0038
0038
0030
0030
8060
40C0
3F80
ENDCHAR
STARTCHAR 042E
ENCODING 1070
SWIDTH 1035 0
DWIDTH 23 0
BBX 22 15 0 0
BITMAP
FE0FC0
383060
186030
186018
18C018
18C01C
18C01C
1FC00C
18C00C
18C01C
18C01C
18E018
186030
383030
7C1FC0
ENDCHAR
STARTCHAR 042F
ENCODING 1071
SWIDTH 675 0
DWIDTH 15 0
BBX 14 15 0 0
BITMAP
03FC
0E30
1C30
1830
1830
1C30
0C30
07F0
0330
0730
0630
0C30
1C30
3830
F078
ENDCHAR
STARTCHAR 0430
ENCODING 1072
SWIDTH 450 0
DWIDTH 10 0
BBX 9 10 1 0
BITMAP
7C00
C600
C600
0600
1E00
6600
C600
C600
CE80
F700
ENDCHAR
STARTCHAR 0431
ENCODING 1073
SWIDTH 495 0
DWIDTH 11 0
BBX 10 15 1 0
BITMAP
0F80
3F00
6000
4000
8000
BE00
E300
C180
C180
C1C0
C1C0
C180
6180
6100
3E00
ENDCHAR
STARTCHAR 0432
ENCODING 1074
SWIDTH 450 0
DWIDTH 10 0
BBX 9 10 1 0
BITMAP
FE00
6300
6300
6300
6E00
7700
6380
6180
6300
FE00
ENDCHAR
STARTCHAR 0433
ENCODING 1075
SWIDTH 405 0
DWIDTH 9 0
BBX 8 10 1 0
BITMAP
FF
61
61
60
60
60
60
60
60
E0
ENDCHAR
STARTCHAR 0434
ENCODING 1076
SWIDTH 495 0
DWIDTH 11 0
BBX 11 13 0 -3
BITMAP
3FE0
1180
1180
1180
1180
1180
1180
2180
2180
7FC0
C060
8020
8020
ENDCHAR
STARTCHAR 0435
ENCODING 1077
SWIDTH 450 0
DWIDTH 10 0
BBX 8 10 1 0
BITMAP
3E
43
83
FF
80
C0
C0
E1
72
3C
ENDCHAR
STARTCHAR 0436
ENCODING 1078
SWIDTH 675 0
DWIDTH 15 0
BBX 14 10 1 0
BITMAP
CF9C
E33C
2320
1340
0FC0
1B60
3360
6330
6330
C79C
ENDCHAR
STARTCHAR 0437
ENCODING 1079
SWIDTH 405 0
DWIDTH 9 0
BBX 8 10 0 0
BITMAP
7E
43
83
06
1C
06
03
03
83
7E
ENDCHAR
STARTCHAR 0438
ENCODING 1080
SWIDTH 540 0
DWIDTH 12 0
BBX 10 10 1 0
BITMAP
F3C0
6180
6180
6380
6580
6980
7180
6180
6180
E3C0
ENDCHAR
STARTCHAR 0439
ENCODING 1081
SWIDTH 540 0
DWIDTH 12 0
BBX 10 15 1 0
BITMAP
2100
6100
3300
0C00
0000
F3C0
6180
6180
6380
6580
6980
7180
6180
6180
E3C0
ENDCHAR
STARTCHAR 043A
ENCODING 1082
SWIDTH 495 0
DWIDTH 11 0
BBX 9 10 1 0
BITMAP
F380
6380
6400
6400
7800
6C00
6600
6600
6300
E380
ENDCHAR
STARTCHAR 043B
ENCODING 1083
SWIDTH 495 0
DWIDTH 11 0
BBX 10 10 0 0
BITMAP
3FC0
1180
1180
1180
1180
1180
1180
1180
D180
E3C0
ENDCHAR
STARTCHAR 043C
ENCODING 1084
SWIDTH 630 0
DWIDTH 14 0
BBX 12 10 1 0
BITMAP
E070
7060
70E0
5160
5960
5960
4E60
4E60
4460
C470
ENDCHAR
STARTCHAR 043D
ENCODING 1085
SWIDTH 540 0
DWIDTH 12 0
BBX 10 10 1 0
BITMAP
F3C0
6180
6180
6180
7F80
6180
6180
6180
6180
E3C0
ENDCHAR
STARTCHAR 043E
ENCODING 1086
SWIDTH 495 0
DWIDTH 11 0
BBX 9 10 1 0
BITMAP
3E00
4300
C180
C180
C180
C180
C180
C180
6100
3E00
ENDCHAR
STARTCHAR 043F
ENCODING 1087
SWIDTH 540 0
DWIDTH 12 0
BBX 10 10 1 0
BITMAP
FFC0
6180
6180
6180
6180
6180
6180
6180
6180
E3C0
ENDCHAR
STARTCHAR 0440
ENCODING 1088
SWIDTH 495 0
DWIDTH 11 0
BBX 10 15 0 -5
BITMAP
6780
69C0
30C0
20C0
20C0
20C0
20C0
20C0
3080
2900
2600
2000
2000
2000
F800
ENDCHAR
STARTCHAR 0441
ENCODING 1089
SWIDTH 450 0
DWIDTH 10 0
BBX 8 10 1 0
BITMAP
3E
43
C3
C0
C0
C0
C0
E1
72
3C
ENDCHAR
STARTCHAR 0442
ENCODING 1090
SWIDTH 450 0
DWIDTH 10 0
BBX 10 10 0 0
BITMAP
FF80
8C80
8C40
0C00
0C00
0C00
0C00
0C00
0C00
1E00
ENDCHAR
STARTCHAR 0443
ENCODING 1091
SWIDTH 495 0
DWIDTH 11 0
BBX 11 15 0 -5
BITMAP
F0E0
3040
3080
1080
1900
1900
0D00
0E00
0600
0400
0400
0400
0800
7800
6000
ENDCHAR
STARTCHAR 0444
ENCODING 1092
SWIDTH 630 0
DWIDTH 14 0
BBX 12 20 1 -5
BITMAP
0E00
0600
0600
0600
0600
3FE0
4630
C630
C630
C610
C610
C630
C630
4630
2F60
1680
0600
0600
0600
0F80
ENDCHAR
STARTCHAR 0445
ENCODING 1093
SWIDTH 495 0
DWIDTH 11 0
BBX 9 10 1 0
BITMAP
F380
6200
3400
3C00
1800
1C00
2600
2600
4300
C380
ENDCHAR
STARTCHAR 0446
ENCODING 1094
SWIDTH 540 0
DWIDTH 12 0
BBX 10 12 1 -3
BITMAP
F3C0
6180
6180
6180
6180
6180
6180
6180
6180
FFC0
0040
0040
ENDCHAR
STARTCHAR 0447
ENCODING 1095
SWIDTH 495 0
DWIDTH 11 0
BBX 10 10 0 0
BITMAP
FBC0
3180
2180
2180
3180
3F80
0180
0180
0180
01C0
ENDCHAR
STARTCHAR 0448
ENCODING 1096
SWIDTH 765 0
DWIDTH 17 0
BBX 15 10 1 0
BITMAP
F7DE
610C
610C
610C
610C
610C
610C
610C
610C
FFFE
ENDCHAR
STARTCHAR 0449
ENCODING 1097
SWIDTH 765 0
DWIDTH 17 0
BBX 16 13 1 -3
BITMAP
F7DE
610C
610C
610C
610C
610C
610C
610C
610C
FFFE
0003
0001
0001
ENDCHAR
STARTCHAR 044A
ENCODING 1098
SWIDTH 495 0
DWIDTH 11 0
BBX 11 10 0 0
BITMAP
FE00
9800
9800
1800
1F00
18C0
1860
1860
18C0
1F80
ENDCHAR
STARTCHAR 044B
ENCODING 1099
SWIDTH 675 0
DWIDTH 15 0
BBX 13 10 1 0
BITMAP
F078
6030
6030
6030
7830
6730
6330
6330
6330
FE78
ENDCHAR
STARTCHAR 044C
ENCODING 1100
SWIDTH 450 0
DWIDTH 10 0
BBX 8 10 1 0
BITMAP
F0
60
60
60
78
67
63
63
63
FE
ENDCHAR
STARTCHAR 044D
ENCODING 1101
SWIDTH 450 0
DWIDTH 10 0
BBX 9 10 0 0
BITMAP
7E00
4300
4300
0180
1F80
0180
0180
0100
8300
7E00
ENDCHAR
STARTCHAR 044E
ENCODING 1102
SWIDTH 765 0
DWIDTH 17 0
BBX 15 10 1 0
BITMAP
F0F8
610C
620C
6606
7E06
6606
6706
6304
630C
E1F8
ENDCHAR
STARTCHAR 044F
ENCODING 1103
SWIDTH 450 0
DWIDTH 10 0
BBX 9 10 1 0
BITMAP
3F80
6600
C600
6600
7600
1E00
3600
6600
6600
C700
ENDCHAR
STARTCHAR 0451
ENCODING 1105
SWIDTH 450 0
DWIDTH 10 0
BBX 8 14 1 0
BITMAP
76
26
00
00
3E
43
83
FF
80
C0
C0
E1
72
3C
ENDCHAR
STARTCHAR 0452
ENCODING 1106
SWIDTH 495 0
DWIDTH 11 0
BBX 9 20 0 -5
BITMAP
7000
3000
FF00
3000
3000
3700
3980
3180
3180
3180
3180
3180
3180
3180
7980
0180
0100
0100
0200
0C00
ENDCHAR
STARTCHAR 0453
ENCODING 1107
SWIDTH 405 0
DWIDTH 9 0
BBX 8 15 1 0
BITMAP
18
18
10
20
00
FF
61
61
60
60
60
60
60
60
E0
ENDCHAR
STARTCHAR 0454
ENCODING 1108
SWIDTH 450 0
DWIDTH 10 0
BBX 8 10 1 0
BITMAP
3F
61
C1
C0
F8
C0
C0
C0
41
3E
ENDCHAR
STARTCHAR 0455
ENCODING 1109
SWIDTH 405 0
DWIDTH 9 0
BBX 7 10 1 0
BITMAP
7C
84
C4
E0
78
3C
0E
86
86
FC
ENDCHAR
STARTCHAR 0456
ENCODING 1110
SWIDTH 270 0
DWIDTH 6 0
BBX 4 15 1 0
BITMAP
60
60
00
00
00
60
E0
60
60
60
60
60
60
60
70
ENDCHAR
STARTCHAR 0457
ENCODING 1111
SWIDTH 270 0
DWIDTH 6 0
BBX 6 14 0 1
BITMAP
CC
CC
00
00
30
70
30
30
30
30
30
30
30
38
ENDCHAR
STARTCHAR 0458
ENCODING 1112
SWIDTH 270 0
DWIDTH 6 0
BBX 6 20 -2 -5
BITMAP
0C
0C
00
00
00
0C
1C
0C
0C
0C
0C
0C
0C
0C
0C
0C
0C
0C
E8
70
ENDCHAR
STARTCHAR 0459
ENCODING 1113
SWIDTH 720 0
DWIDTH 16 0
BBX 15 10 0 0
BITMAP
1FE0
08C0
08C0
08C0
08F0
08CE
08C6
08C6
D0C6
F1FC
ENDCHAR
STARTCHAR 045A
ENCODING 1114
SWIDTH 720 0
DWIDTH 16 0
BBX 14 10 1 0
BITMAP
F3C0
6180
6180
6180
7FC0
61BC
618C
618C
618C
E3F8
ENDCHAR
STARTCHAR 045B
ENCODING 1115
SWIDTH 495 0
DWIDTH 11 0
BBX 9 15 1 0
BITMAP
E000
6000
6000
FE00
6000
6F00
7300
6100
6100
6100
6100
6100
6100
6180
E380
ENDCHAR
STARTCHAR 045C
ENCODING 1116
SWIDTH 495 0
DWIDTH 11 0
BBX 9 15 1 0
BITMAP
0C00
0800
0800
1000
0000
F380
6380
6400
6400
7800
6C00
6600
6600
6300
E380
ENDCHAR
STARTCHAR 045D
ENCODING 1117
SWIDTH 540 0
DWIDTH 12 0
BBX 10 15 1 0
BITMAP
1800
0800
0800
0400
0000
F3C0
6180
6180
6380
6580
6980
7180
6180
6180
E3C0
ENDCHAR
STARTCHAR 045E
ENCODING 1118
SWIDTH 495 0
DWIDTH 11 0
BBX 11 20 0 -5
BITMAP
3080
3180
1900
0600
0000
F0E0
3040
3080
1080
1900
1900
0D00
0E00
0600
0400
0400
0400
0800
7800
6000
ENDCHAR
STARTCHAR 045F
ENCODING 1119
SWIDTH 540 0
DWIDTH 12 0
BBX 10 12 1 -3
BITMAP
F3C0
6180
6180
6180
6180
6180
6180
6180
6180
FFC0
0C00
0800
ENDCHAR
STARTCHAR 0490
ENCODING 1168
SWIDTH 450 0
DWIDTH 10 0
BBX 10 17 0 0
BITMAP
0040
0040
FFC0
3800
1800
1800
1800
1800
1800
1800
1800
1800
1800
1800
1800
3800
7C00
ENDCHAR
STARTCHAR 0491
ENCODING 1169
SWIDTH 360 0
DWIDTH 8 0
BBX 7 12 1 0
BITMAP
02
02
FE
60
60
60
60
60
60
60
60
E0
ENDCHAR
STARTCHAR 0492
ENCODING 1170
SWIDTH 585 0
DWIDTH 13 0
BBX 12 15 0 0
BITMAP
FFF0
3810
1810
1800
1800
1800
1800
FF80
1800
1800
1800
1800
1800
3800
7C00
ENDCHAR
STARTCHAR 0493
ENCODING 1171
SWIDTH 405 0
DWIDTH 9 0
BBX 9 10 0 0
BITMAP
7F80
3080
3080
3000
FC00
3000
3000
3000
3000
7000
ENDCHAR
STARTCHAR 0496
ENCODING 1174
SWIDTH 900 0
DWIDTH 20 0
BBX 20 19 0 -4
BITMAP
71F8E0
F861E0
086100
086200
046200
046200
026400
03F800
026C00
066600
0C6300
0C6300
186180
386180
70F0E0
000030
000010
000010
000010
ENDCHAR
STARTCHAR 0497
ENCODING 1175
SWIDTH 675 0
DWIDTH 15 0
BBX 14 12 1 -3
BITMAP
CF9C
E33C
2320
1340
0FC0
1B60
3360
6330
6330
C79C
0004
0004
ENDCHAR
STARTCHAR 049A
ENCODING 1178
SWIDTH 675 0
DWIDTH 15 0
BBX 15 19 0 -4
BITMAP
FE1C
383C
1840
1840
1880
1880
1900
1E00
1B80
1980
18C0
18E0
1870
3830
7C1C
0006
0002
0002
0002
ENDCHAR
STARTCHAR 049B
ENCODING 1179
SWIDTH 495 0
DWIDTH 11 0
BBX 10 13 1 -3
BITMAP
F380
6380
6400
6400
7800
6C00
6600
6600
6300
E380
00C0
0040
0040
ENDCHAR
STARTCHAR 049C
ENCODING 1180
SWIDTH 675 0
DWIDTH 15 0
BBX 14 15 0 0
BITMAP
FE1C
383C
1840
1A40
1A80
1A80
1B00
1E00
1B80
1B80
1AC0
1AE0
1870
3830
7C1C
ENDCHAR
STARTCHAR 049D
ENCODING 1181
SWIDTH 495 0
DWIDTH 11 0
BBX 9 10 1 0
BITMAP
F380
6380
6C00
6C00
7800
6C00
6E00
6E00
6300
E380
ENDCHAR
STARTCHAR 04A2
ENCODING 1186
SWIDTH 720 0
DWIDTH 16 0
BBX 16 19 0 -4
BITMAP
FE7F
381C
3818
3818
3818
3818
3818
3FF8
3818
3818
3818
3818
3818
381C
381C
4427
0003
0001
0001
ENDCHAR
STARTCHAR 04A3
ENCODING 1187
SWIDTH 540 0
DWIDTH 12 0
BBX 10 12 1 -3
BITMAP
F3C0
6180
6180
6180
7F80
6180
6180
6180
6180
E3C0
0040
0040
ENDCHAR
STARTCHAR 04AE
ENCODING 1198
SWIDTH 720 0
DWIDTH 16 0
BBX 16 15 0 0
BITMAP
FC1F
380C
1808
1C10
0C10
0620
0740
0340
0180
0180
0180
0180
0180
0180
03C0
ENDCHAR
STARTCHAR 04AF
ENCODING 1199
SWIDTH 495 0
DWIDTH 11 0
BBX 11 15 0 -5
BITMAP
F9E0
30C0
3080
3080
1900
1900
0A00
0E00
0E00
0400
0400
0400
0400
0600
1F00
ENDCHAR
STARTCHAR 04B0
ENCODING 1200
SWIDTH 720 0
DWIDTH 16 0
BBX 16 15 0 0
BITMAP
FC1F
380C
1808
1C10
0C10
0620
0740
0340
0180
1FF8
0180
0180
0180
0180
03C0
ENDCHAR
STARTCHAR 04B1
ENCODING 1201
SWIDTH 495 0
DWIDTH 11 0
BBX 11 15 0 -5
BITMAP
F9E0
30C0
3080
3080
1900
1900
0A00
0E00
0E00
FFE0
0400
0400
0400
0600
1F00
ENDCHAR
STARTCHAR 04B2
ENCODING 1202
SWIDTH 720 0
DWIDTH 16 0
BBX 16 19 0 -4
BITMAP
FE3E
1C08
0C10
0E10
0620
0340
0380
0180
01C0
02E0
0470
0830
1838
301C
783E
0007
0003
0001
0001
ENDCHAR
STARTCHAR 04B3
ENCODING 1203
SWIDTH 495 0
DWIDTH 11 0
BBX 10 12 1 -3
BITMAP
F380
6200
3400
3C00
1800
1C00
2600
2600
4300
C380
00C0
0040
ENDCHAR
STARTCHAR 04B8
ENCODING 1208
SWIDTH 630 0
DWIDTH 14 0
BBX 14 15 0 0
BITMAP
FCFC
3030
3030
3130
3130
3130
3130
3130
1FF0
0530
0130
0130
0030
0030
0078
ENDCHAR
STARTCHAR 04B9
ENCODING 1209
SWIDTH 495 0
DWIDTH 11 0
BBX 10 10 0 0
BITMAP
FBC0
3180
2580
2580
3580
3F80
0580
0580
0180
01C0
ENDCHAR
STARTCHAR 04BA
ENCODING 1210
SWIDTH 630 0
DWIDTH 14 0
BBX 14 15 0 0
BITMAP
FE00
3800
1800
1800
1800
1800
1BF0
1C30
1830
1830
1830
1830
1830
3830
7C7C
ENDCHAR
STARTCHAR 04BB
ENCODING 1211
SWIDTH 495 0
DWIDTH 11 0
BBX 9 15 1 0
BITMAP
E000
6000
6000
6000
6000
6F00
7300
6100
6100
6100
6100
6100
6100
6180
E380
ENDCHAR
STARTCHAR 04D8
ENCODING 1240
SWIDTH 720 0
DWIDTH 16 0
BBX 15 15 0 0
BITMAP
17E0
1830
1018
200C
000E
000E
0006
FFFE
E006
6006
600E
700C
301C
1838
0FE0
ENDCHAR
STARTCHAR 04D9
ENCODING 1241
SWIDTH 450 0
DWIDTH 10 0
BBX 8 10 1 0
BITMAP
3C
7E
87
03
03
01
FF
C1
C2
7C
ENDCHAR
STARTCHAR 04E8
ENCODING 1256
SWIDTH 720 0
DWIDTH 16 0
BBX 14 15 1 0
BITMAP
0FC0
1060
3030
6018
E01C
C00C
C00C
FFFC
C00C
C00C
E01C
6018
6018
3030
1FC0
ENDCHAR
STARTCHAR 04E9
ENCODING 1257
SWIDTH 495 0
DWIDTH 11 0
BBX 9 10 1 0
BITMAP
3E00
4300
C180
C180
FF80
C180
C180
C180
6100
3E00
ENDCHAR
STARTCHAR 05B0
ENCODING 1456
SWIDTH 315 0
DWIDTH 7 0
BBX 2 4 3 -5
BITMAP
C0
00
C0
80
ENDCHAR
STARTCHAR 05B1
ENCODING 1457
SWIDTH 315 0
DWIDTH 7 0
BBX 7 4 0 -5
BITMAP
DE
00
26
22
ENDCHAR
STARTCHAR 05B2
ENCODING 1458
SWIDTH 315 0
DWIDTH 7 0
BBX 6 4 1 -5
BITMAP
EC
00
0C
0C
ENDCHAR
STARTCHAR 05B3
ENCODING 1459
SWIDTH 315 0
DWIDTH 7 0
BBX 7 4 0 -5
BITMAP
F6
20
66
02
ENDCHAR
STARTCHAR 05B4
ENCODING 1460
SWIDTH 315 0
DWIDTH 7 0
BBX 2 1 3 -3
BITMAP
C0
ENDCHAR
STARTCHAR 05B5
ENCODING 1461
SWIDTH 315 0
DWIDTH 7 0
BBX 4 1 2 -3
BITMAP
B0
ENDCHAR
STARTCHAR 05B6
ENCODING 1462
SWIDTH 315 0
DWIDTH 7 0
BBX 4 4 2 -5
BITMAP
B0
00
60
40
ENDCHAR
STARTCHAR 05B7
ENCODING 1463
SWIDTH 315 0
DWIDTH 7 0
BBX 4 1 2 -3
BITMAP
F0
ENDCHAR
STARTCHAR 05B8
ENCODING 1464
SWIDTH 315 0
DWIDTH 7 0
BBX 4 4 2 -5
BITMAP
F0
40
60
40
ENDCHAR
STARTCHAR 05B9
ENCODING 1465
SWIDTH 315 0
DWIDTH 7 0
BBX 1 2 3 13
BITMAP
80
80
ENDCHAR
STARTCHAR 05BA
ENCODING 1466
SWIDTH 315 0
DWIDTH 7 0
BBX 1 2 3 13
BITMAP
80
80
ENDCHAR
STARTCHAR 05BB
ENCODING 1467
SWIDTH 315 0
DWIDTH 7 0
BBX 7 4 0 -5
BITMAP
C0
18
16
02
ENDCHAR
STARTCHAR 05BC
ENCODING 1468
SWIDTH 315 0
DWIDTH 7 0
BBX 2 1 3 5
BITMAP
C0
ENDCHAR
STARTCHAR 05BD
ENCODING 1469
SWIDTH 315 0
DWIDTH 7 0
BBX 1 4 3 -5
BITMAP
80
80
80
80
ENDCHAR
STARTCHAR 05BE
ENCODING 1470
SWIDTH 360 0
DWIDTH 8 0
BBX 6 2 1 9
BITMAP
FC
FC
ENDCHAR
STARTCHAR 05BF
ENCODING 1471
SWIDTH 315 0
DWIDTH 7 0
BBX 4 1 2 13
BITMAP
F0
ENDCHAR
STARTCHAR 05C0
ENCODING 1472
SWIDTH 270 0
DWIDTH 6 0
BBX 2 14 2 -1
BITMAP
C0
C0
C0
C0
C0
C0
C0
C0
C0
C0
C0
C0
C0
C0
ENDCHAR
STARTCHAR 05C1
ENCODING 1473
SWIDTH 360 0
DWIDTH 8 0
BBX 1 2 8 13
BITMAP
80
80
ENDCHAR
STARTCHAR 05C2
ENCODING 1474
SWIDTH 360 0
DWIDTH 8 0
BBX 2 2 -2 13
BITMAP
40
C0
ENDCHAR
STARTCHAR 05C3
ENCODING 1475
SWIDTH 270 0
DWIDTH 6 0
BBX 2 12 2 0
BITMAP
C0
C0
C0
00
00
00
00
00
00
00
C0
C0
ENDCHAR
STARTCHAR 05D0
ENCODING 1488
SWIDTH 495 0
DWIDTH 11 0
BBX 9 12 1 0
BITMAP
8600
C780
E380
7200
3A00
5A00
8E00
8E00
C700
E380
6180
6080
ENDCHAR
STARTCHAR 05D1
ENCODING 1489
SWIDTH 450 0
DWIDTH 10 0
BBX 8 12 1 0
BITMAP
80
FE
FF
03
01
01
01
01
02
02
FF
FF
ENDCHAR
STARTCHAR 05D2
ENCODING 1490
SWIDTH 315 0
DWIDTH 7 0
BBX 7 12 0 0
BITMAP
60
78
38
08
08
08
08
0C
0C
16
72
E2
ENDCHAR
STARTCHAR 05D3
ENCODING 1491
SWIDTH 405 0
DWIDTH 9 0
BBX 8 12 1 0
BITMAP
80
FF
FF
02
04
04
04
04
04
04
04
04
ENDCHAR
STARTCHAR 05D4
ENCODING 1492
SWIDTH 450 0
DWIDTH 10 0
BBX 8 12 1 0
BITMAP
80
FF
FF
01
01
01
01
41
C1
C1
C1
C1
ENDCHAR
STARTCHAR 05D5
ENCODING 1493
SWIDTH 270 0
DWIDTH 6 0
BBX 4 12 1 0
BITMAP
80
F0
F0
10
10
10
10
10
10
10
10
10
ENDCHAR
STARTCHAR 05D6
ENCODING 1494
SWIDTH 270 0
DWIDTH 6 0
BBX 5 12 1 0
BITMAP
C0
F8
F8
40
40
40
40
60
60
60
20
20
ENDCHAR
STARTCHAR 05D7
ENCODING 1495
SWIDTH 495 0
DWIDTH 11 0
BBX 9 12 1 0
BITMAP
C000
FF80
FF80
4100
4100
8100
8100
C100
C100
C100
C100
8100
ENDCHAR
STARTCHAR 05D8
ENCODING 1496
SWIDTH 495 0
DWIDTH 11 0
BBX 8 12 1 0
BITMAP
82
E7
EF
49
81
81
81
41
41
41
7F
7E
ENDCHAR
STARTCHAR 05D9
ENCODING 1497
SWIDTH 270 0
DWIDTH 6 0
BBX 4 7 1 5
BITMAP
80
F0
F0
10
10
10
20
ENDCHAR
STARTCHAR 05DA
ENCODING 1498
SWIDTH 450 0
DWIDTH 10 0
BBX 8 16 1 -4
BITMAP
80
FF
FF
02
02
02
02
02
02
02
02
02
02
03
03
02
ENDCHAR
STARTCHAR 05DB
ENCODING 1499
SWIDTH 450 0
DWIDTH 10 0
BBX 8 12 1 0
BITMAP
80
FC
FE
02
02
01
01
01
02
06
FE
FC
ENDCHAR
STARTCHAR 05DC
ENCODING 1500
SWIDTH 450 0
DWIDTH 10 0
BBX 9 17 0 0
BITMAP
8000
C000
4000
4000
4000
4000
7F00
7F80
0080
0080
0080
0100
0200
0400
0400
0800
0800
ENDCHAR
STARTCHAR 05DD
ENCODING 1501
SWIDTH 495 0
DWIDTH 11 0
BBX 9 12 1 0
BITMAP
C000
FF00
FF80
2080
4080
8080
8080
8080
8080
8080
FF80
FF80
ENDCHAR
STARTCHAR 05DE
ENCODING 1502
SWIDTH 495 0
DWIDTH 11 0
BBX 9 12 1 0
BITMAP
C400
E600
EF00
3100
2180
4080
4080
8080
8080
8100
9F00
9F00
ENDCHAR
STARTCHAR 05DF
ENCODING 1503
SWIDTH 270 0
DWIDTH 6 0
BBX 4 16 1 -4
BITMAP
80
F0
F0
10
10
20
20
20
20
20
30
30
30
30
30
20
ENDCHAR
STARTCHAR 05E0
ENCODING 1504
SWIDTH 315 0
DWIDTH 7 0
BBX 6 12 0 0
BITMAP
70
78
3C
08
08
08
08
08
08
0C
7C
FC
ENDCHAR
STARTCHAR 05E1
ENCODING 1505
SWIDTH 495 0
DWIDTH 11 0
BBX 9 12 1 0
BITMAP
C000
FE00
FF00
4100
8100
8080
8080
8100
8100
C100
7F00
3E00
ENDCHAR
STARTCHAR 05E2
ENCODING 1506
SWIDTH 450 0
DWIDTH 10 0
BBX 8 12 1 0
BITMAP
86
E7
E7
41
42
62
32
12
14
14
FC
F8
ENDCHAR
STARTCHAR 05E3
ENCODING 1507
SWIDTH 450 0
DWIDTH 10 0
BBX 8 16 1 -4
BITMAP
C0
FE
FF
83
81
81
E1
A1
01
01
01
01
01
01
01
01
ENDCHAR
STARTCHAR 05E4
ENCODING 1508
SWIDTH 450 0
DWIDTH 10 0
BBX 8 12 1 0
BITMAP
C0
FE
7E
83
81
E1
E1
01
01
02
FE
FC
ENDCHAR
STARTCHAR 05E5
ENCODING 1509
SWIDTH 495 0
DWIDTH 11 0
BBX 9 16 1 -4
BITMAP
C600
F780
F380
2200
2400
2800
3000
2000
2000
2000
2000
2000
2000
2000
2000
2000
ENDCHAR
STARTCHAR 05E6
ENCODING 1510
SWIDTH 450 0
DWIDTH 10 0
BBX 8 12 1 0
BITMAP
84
E7
E7
22
24
24
3C
0C
06
03
FF
FF
ENDCHAR
STARTCHAR 05E7
ENCODING 1511
SWIDTH 495 0
DWIDTH 11 0
BBX 8 16 1 -4
BITMAP
C0
FF
FF
01
01
81
81
82
8C
90
90
90
80
80
80
80
ENDCHAR
STARTCHAR 05E8
ENCODING 1512
SWIDTH 450 0
DWIDTH 10 0
BBX 8 12 1 0
BITMAP
80
FF
FF
01
01
01
01
01
01
01
01
01
ENDCHAR
STARTCHAR 05E9
ENCODING 1513
SWIDTH 630 0
DWIDTH 14 0
BBX 12 12 1 0
BITMAP
CC60
EE70
E670
8420
8420
8840
8840
4880
5080
5180
3F00
3F00
ENDCHAR
STARTCHAR 05EA
ENCODING 1514
SWIDTH 495 0
DWIDTH 11 0
BBX 10 12 0 0
BITMAP
2000
7F80
3FC0
10C0
2040
2040
2040
2040
2040
2040
7040
F040
ENDCHAR
STARTCHAR 05F0
ENCODING 1520
SWIDTH 540 0
DWIDTH 12 0
BBX 10 12 1 0
BITMAP
8300
F3C0
F3C0
1040
1040
1040
1040
1040
1040
1040
1040
1040
ENDCHAR
STARTCHAR 05F1
ENCODING 1521
SWIDTH 540 0
DWIDTH 12 0
BBX 10 12 1 0
BITMAP
8200
F3C0
F3C0
1040
1040
1040
2040
0040
0040
0040
0040
0040
ENDCHAR
STARTCHAR 05F2
ENCODING 1522
SWIDTH 540 0
DWIDTH 12 0
BBX 10 7 1 5
BITMAP
8200
F3C0
F3C0
1040
1040
1080
2080
ENDCHAR
STARTCHAR 05F3
ENCODING 1523
SWIDTH 225 0
DWIDTH 5 0
BBX 2 5 1 7
BITMAP
40
C0
C0
C0
80
ENDCHAR
STARTCHAR 05F4
ENCODING 1524
SWIDTH 360 0
DWIDTH 8 0
BBX 6 5 1 7
BITMAP
4C
CC
CC
C8
88
ENDCHAR
STARTCHAR 060C
ENCODING 1548
SWIDTH 315 0
DWIDTH 7 0
BBX 3 6 2 4
BITMAP
40
80
80
E0
E0
60
ENDCHAR
STARTCHAR 061B
ENCODING 1563
SWIDTH 315 0
DWIDTH 7 0
BBX 3 10 2 4
BITMAP
40
80
80
E0
E0
E0
00
40
E0
60
ENDCHAR
STARTCHAR 061F
ENCODING 1567
SWIDTH 360 0
DWIDTH 8 0
BBX 6 13 1 3
BITMAP
38
C4
CC
DC
E8
E0
60
30
10
00
30
30
30
ENDCHAR
STARTCHAR 0621
ENCODING 1569
SWIDTH 405 0
DWIDTH 9 0
BBX 7 7 1 2
BITMAP
18
38
40
C2
FE
38
20
ENDCHAR
STARTCHAR 0622
ENCODING 1570
SWIDTH 225 0
DWIDTH 5 0
BBX 3 15 1 3
BITMAP
E0
00
40
40
40
40
40
40
40
60
60
60
60
40
40
ENDCHAR
STARTCHAR 0623
ENCODING 1571
SWIDTH 225 0
DWIDTH 5 0
BBX 3 16 1 4
BITMAP
C0
E0
80
40
40
40
40
40
40
40
60
60
60
60
40
40
ENDCHAR
STARTCHAR 0624
ENCODING 1572
SWIDTH 450 0
DWIDTH 10 0
BBX 9 14 1 -2
BITMAP
0800
1800
1000
0000
0700
0580
0480
0780
0380
0100
0100
0200
8E00
7800
ENDCHAR
STARTCHAR 0625
ENCODING 1573
SWIDTH 225 0
DWIDTH 5 0
BBX 3 18 1 -2
BITMAP
40
40
40
40
40
40
40
60
60
60
60
40
40
00
00
C0
80
C0
ENDCHAR
STARTCHAR 0626
ENCODING 1574
SWIDTH 630 0
DWIDTH 14 0
BBX 12 13 1 -1
BITMAP
4000
C000
8070
00F0
4100
8100
8100
81F0
8010
8020
81E0
FFC0
7F00
ENDCHAR
STARTCHAR 0627
ENCODING 1575
SWIDTH 225 0
DWIDTH 5 0
BBX 2 13 2 3
BITMAP
80
80
80
80
80
80
80
C0
C0
C0
C0
80
80
ENDCHAR
STARTCHAR 0628
ENCODING 1576
SWIDTH 720 0
DWIDTH 16 0
BBX 15 11 1 -1
BITMAP
8004
8006
8002
8002
C002
FFFE
3FFE
0000
0000
0380
0100
ENDCHAR
STARTCHAR 0629
ENCODING 1577
SWIDTH 270 0
DWIDTH 6 0
BBX 6 11 0 3
BITMAP
18
D8
C0
00
00
30
3C
4C
44
7C
78
ENDCHAR
STARTCHAR 062A
ENCODING 1578
SWIDTH 720 0
DWIDTH 16 0
BBX 15 11 1 3
BITMAP
0080
0580
0600
0000
8004
8006
8002
8002
C002
FFFE
3FFE
ENDCHAR
STARTCHAR 062B
ENCODING 1579
SWIDTH 720 0
DWIDTH 16 0
BBX 15 13 1 3
BITMAP
0200
0600
0080
0580
0600
0000
8004
8006
8002
8002
C002
FFFE
3FFE
ENDCHAR
STARTCHAR 062C
ENCODING 1580
SWIDTH 585 0
DWIDTH 13 0
BBX 10 15 1 -5
BITMAP
3800
FFC0
CFC0
1800
2000
4000
8400
8600
8200
8000
8000
C000
7800
3FC0
0F00
ENDCHAR
STARTCHAR 062D
ENCODING 1581
SWIDTH 585 0
DWIDTH 13 0
BBX 10 15 1 -5
BITMAP
3800
FFC0
CFC0
1800
2000
4000
8000
8000
8000
8000
8000
C000
7800
3FC0
0F00
ENDCHAR
STARTCHAR 062E
ENCODING 1582
SWIDTH 585 0
DWIDTH 13 0
BBX 10 19 1 -5
BITMAP
0C00
0C00
0000
0000
3800
FFC0
CFC0
1800
2000
4000
8000
8000
8000
8000
8000
C000
7800
3FC0
0F00
ENDCHAR
STARTCHAR 062F
ENCODING 1583
SWIDTH 360 0
DWIDTH 8 0
BBX 6 9 1 3
BITMAP
10
18
0C
04
04
04
84
FC
7C
ENDCHAR
STARTCHAR 0630
ENCODING 1584
SWIDTH 360 0
DWIDTH 8 0
BBX 6 14 1 3
BITMAP
20
60
20
00
00
10
18
0C
04
04
04
84
FC
7C
ENDCHAR
STARTCHAR 0631
ENCODING 1585
SWIDTH 495 0
DWIDTH 11 0
BBX 10 11 1 -1
BITMAP
0080
00C0
00C0
0040
0040
0040
00C0
0180
0380
8F00
7C00
ENDCHAR
STARTCHAR 0632
ENCODING 1586
SWIDTH 495 0
DWIDTH 11 0
BBX 10 16 1 -2
BITMAP
0300
0300
0000
0000
0000
0080
00C0
00C0
0040
0040
0040
00C0
0180
0380
8F00
7C00
ENDCHAR
STARTCHAR 0633
ENCODING 1587
SWIDTH 810 0
DWIDTH 18 0
BBX 17 11 1 -2
BITMAP
004080
004480
806480
802280
803F80
803D80
802000
804000
C3C000
FF8000
1C0000
ENDCHAR
STARTCHAR 0634
ENCODING 1588
SWIDTH 810 0
DWIDTH 18 0
BBX 17 18 1 -2
BITMAP
000800
000C00
000200
000B00
001D00
000000
000000
004080
004480
806480
802280
803F80
803D80
802000
804000
C3C000
FF8000
1C0000
ENDCHAR
STARTCHAR 0635
ENCODING 1589
SWIDTH 1080 0
DWIDTH 24 0
BBX 23 11 1 -2
BITMAP
00403C
00407E
806186
802606
803FFE
803FFE
804000
804000
C3C000
FF8000
1C0000
ENDCHAR
STARTCHAR 0636
ENCODING 1590
SWIDTH 1080 0
DWIDTH 24 0
BBX 23 15 1 -2
BITMAP
000300
000300
000000
000000
00403C
00407E
806186
802606
803FFE
803FFE
804000
804000
C3C000
FF8000
1C0000
ENDCHAR
STARTCHAR 0637
ENCODING 1591
SWIDTH 585 0
DWIDTH 13 0
BBX 14 14 -1 4
BITMAP
0C00
0C00
0C00
0400
0400
0400
0400
0400
0478
05FC
070C
0C0C
FFFC
FFFC
ENDCHAR
STARTCHAR 0638
ENCODING 1592
SWIDTH 585 0
DWIDTH 13 0
BBX 14 14 -1 4
BITMAP
0C00
0C00
0C00
0460
0460
0400
0400
0400
0478
05FC
070C
0C0C
FFFC
FFFC
ENDCHAR
STARTCHAR 0639
ENCODING 1593
SWIDTH 540 0
DWIDTH 12 0
BBX 11 17 0 -5
BITMAP
1C00
7C00
4000
4040
6380
7F00
1C00
3000
6000
4000
8000
8000
C000
6000
7800
3FE0
0780
ENDCHAR
STARTCHAR 063A
ENCODING 1594
SWIDTH 540 0
DWIDTH 12 0
BBX 11 21 0 -5
BITMAP
1800
1800
0000
0000
1C00
7C00
4000
4040
6380
7F00
1C00
3000
6000
4000
8000
8000
C000
6000
7800
3FE0
0780
ENDCHAR
STARTCHAR 0640
ENCODING 1600
SWIDTH 225 0
DWIDTH 5 0
BBX 6 2 -1 3
BITMAP
FC
FC
ENDCHAR
STARTCHAR 0641
ENCODING 1601
SWIDTH 810 0
DWIDTH 18 0
BBX 18 12 0 3
BITMAP
000600
000600
000000
000000
000100
400380
800680
800680
C007C0
6001C0
7FFFC0
0FFFC0
ENDCHAR
STARTCHAR 0642
ENCODING 1602
SWIDTH 585 0
DWIDTH 13 0
BBX 12 17 1 -2
BITMAP
0040
03C0
0300
0000
0000
00C0
00E0
0130
8130
81F0
80D0
8010
8010
8030
E1E0
7FC0
1E00
ENDCHAR
STARTCHAR 0643
ENCODING 1603
SWIDTH 585 0
DWIDTH 13 0
BBX 13 14 0 3
BITMAP
0020
0038
0038
0090
0110
0210
0398
0088
4088
8F08
8008
4008
7FF8
3FF8
ENDCHAR
STARTCHAR 0644
ENCODING 1604
SWIDTH 495 0
DWIDTH 11 0
BBX 10 17 1 0
BITMAP
0080
00C0
00C0
0080
0080
00C0
0040
0040
4040
8040
8040
8040
8040
8040
C1C0
FF80
3E00
ENDCHAR
STARTCHAR 0645
ENCODING 1605
SWIDTH 360 0
DWIDTH 8 0
BBX 8 12 0 -5
BITMAP
18
3C
06
3F
7F
C0
80
80
40
40
40
40
ENDCHAR
STARTCHAR 0646
ENCODING 1606
SWIDTH 540 0
DWIDTH 12 0
BBX 11 14 1 -2
BITMAP
0E00
0400
0000
0040
0040
4060
8020
8020
8020
8020
8040
E3C0
7F80
1C00
ENDCHAR
STARTCHAR 0647
ENCODING 1607
SWIDTH 270 0
DWIDTH 6 0
BBX 5 6 1 4
BITMAP
60
70
98
88
F8
F0
ENDCHAR
STARTCHAR 0648
ENCODING 1608
SWIDTH 450 0
DWIDTH 10 0
BBX 9 10 1 -1
BITMAP
0700
0580
0480
0780
0380
0100
0100
0200
8E00
7800
ENDCHAR
STARTCHAR 0649
ENCODING 1609
SWIDTH 630 0
DWIDTH 14 0
BBX 12 11 1 -1
BITMAP
0070
00F0
4100
8100
8100
81F0
8010
8020
81E0
FFC0
7F00
ENDCHAR
STARTCHAR 064A
ENCODING 1610
SWIDTH 630 0
DWIDTH 14 0
BBX 12 14 1 -5
BITMAP
0070
00F0
4100
8100
8100
81F0
8010
8020
81E0
FFC0
7F00
0200
0B00
1D00
ENDCHAR
STARTCHAR 064B
ENCODING 1611
SWIDTH 180 0
DWIDTH 4 0
BBX 3 4 1 13
BITMAP
60
80
60
80
ENDCHAR
STARTCHAR 064C
ENCODING 1612
SWIDTH 225 0
DWIDTH 5 0
BBX 4 5 1 13
BITMAP
10
30
B0
B0
C0
ENDCHAR
STARTCHAR 064D
ENCODING 1613
SWIDTH 180 0
DWIDTH 4 0
BBX 3 4 1 -3
BITMAP
20
C0
60
80
ENDCHAR
STARTCHAR 064E
ENCODING 1614
SWIDTH 180 0
DWIDTH 4 0
BBX 3 2 1 15
BITMAP
20
C0
ENDCHAR
STARTCHAR 064F
ENCODING 1615
SWIDTH 225 0
DWIDTH 5 0
BBX 4 5 1 13
BITMAP
20
60
30
50
80
ENDCHAR
STARTCHAR 0650
ENCODING 1616
SWIDTH 180 0
DWIDTH 4 0
BBX 3 1 1 1
BITMAP
E0
ENDCHAR
STARTCHAR 0651
ENCODING 1617
SWIDTH 225 0
DWIDTH 5 0
BBX 4 4 1 13
BITMAP
10
50
E0
80
ENDCHAR
STARTCHAR 0652
ENCODING 1618
SWIDTH 180 0
DWIDTH 4 0
BBX 3 4 1 13
BITMAP
C0
A0
E0
80
ENDCHAR
STARTCHAR 0653
ENCODING 1619
SWIDTH 225 0
DWIDTH 5 0
BBX 3 2 1 15
BITMAP
80
60
ENDCHAR
STARTCHAR 0654
ENCODING 1620
SWIDTH 225 0
DWIDTH 5 0
BBX 3 3 1 17
BITMAP
C0
E0
80
ENDCHAR
STARTCHAR 0655
ENCODING 1621
SWIDTH 225 0
DWIDTH 5 0
BBX 3 3 1 -1
BITMAP
C0
E0
80
ENDCHAR
STARTCHAR 0660
ENCODING 1632
SWIDTH 540 0
DWIDTH 12 0
BBX 3 5 4 5
BITMAP
40
60
E0
E0
20
ENDCHAR
STARTCHAR 0661
ENCODING 1633
SWIDTH 540 0
DWIDTH 12 0
BBX 4 13 3 3
BITMAP
40
40
E0
60
30
30
10
10
10
10
10
10
10
ENDCHAR
STARTCHAR 0662
ENCODING 1634
SWIDTH 540 0
DWIDTH 12 0
BBX 7 13 2 3
BITMAP
82
C2
FE
7C
38
30
10
18
18
08
08
08
08
ENDCHAR
STARTCHAR 0663
ENCODING 1635
SWIDTH 540 0
DWIDTH 12 0
BBX 9 12 1 3
BITMAP
0400
4680
FF80
7B80
2000
3000
1000
1000
1800
0800
1000
1000
ENDCHAR
STARTCHAR 0664
ENCODING 1636
SWIDTH 540 0
DWIDTH 12 0
BBX 6 13 3 3
BITMAP
08
10
30
40
E0
F8
70
20
20
40
78
7C
38
ENDCHAR
STARTCHAR 0665
ENCODING 1637
SWIDTH 540 0
DWIDTH 12 0
BBX 8 8 2 5
BITMAP
18
3C
4E
83
81
81
E6
FC
ENDCHAR
STARTCHAR 0666
ENCODING 1638
SWIDTH 540 0
DWIDTH 12 0
BBX 7 11 2 4
BITMAP
FC
F8
F8
08
08
08
0C
0C
06
06
06
ENDCHAR
STARTCHAR 0667
ENCODING 1639
SWIDTH 540 0
DWIDTH 12 0
BBX 9 11 1 4
BITMAP
4080
4080
E180
7100
3200
1200
1C00
0C00
0C00
0C00
0800
ENDCHAR
STARTCHAR 0668
ENCODING 1640
SWIDTH 540 0
DWIDTH 12 0
BBX 8 11 2 4
BITMAP
10
10
28
28
2C
2C
46
47
C3
83
81
ENDCHAR
STARTCHAR 0669
ENCODING 1641
SWIDTH 540 0
DWIDTH 12 0
BBX 7 13 2 3
BITMAP
38
7C
4C
84
FC
7C
04
04
04
04
06
06
02
ENDCHAR
STARTCHAR 066A
ENCODING 1642
SWIDTH 540 0
DWIDTH 12 0
BBX 8 15 2 2
BITMAP
E1
E2
42
04
04
08
08
10
10
20
20
40
42
87
87
ENDCHAR
STARTCHAR 066B
ENCODING 1643
SWIDTH 315 0
DWIDTH 7 0
BBX 3 5 2 1
BITMAP
60
E0
60
60
40
ENDCHAR
STARTCHAR 066C
ENCODING 1644
SWIDTH 315 0
DWIDTH 7 0
BBX 3 6 2 4
BITMAP
40
80
80
E0
E0
60
ENDCHAR
STARTCHAR 066D
ENCODING 1645
SWIDTH 540 0
DWIDTH 12 0
BBX 7 7 2 10
BITMAP
54
74
28
F6
3C
54
10
ENDCHAR
STARTCHAR 066E
ENCODING 1646
SWIDTH 720 0
DWIDTH 16 0
BBX 15 7 1 3
BITMAP
8004
8006
8002
8002
C002
FFFE
3FFE
ENDCHAR
STARTCHAR 066F
ENCODING 1647
SWIDTH 585 0
DWIDTH 13 0
BBX 12 12 1 -2
BITMAP
00C0
00E0
0130
8130
81F0
80D0
8010
8010
8030
E1E0
7FC0
1E00
ENDCHAR
STARTCHAR 0670
ENCODING 1648
SWIDTH 0 0
DWIDTH 0 0
BBX 2 5 -1 13
BITMAP
80
80
80
40
80
ENDCHAR
STARTCHAR 0671
ENCODING 1649
SWIDTH 225 0
DWIDTH 5 0
BBX 5 17 0 3
BITMAP
10
68
F0
80
20
20
20
20
20
20
20
30
30
30
30
20
20
ENDCHAR
STARTCHAR 0672
ENCODING 1650
SWIDTH 225 0
DWIDTH 5 0
BBX 3 17 1 3
BITMAP
40
80
60
80
40
40
40
40
40
40
40
60
60
60
60
40
40
ENDCHAR
STARTCHAR 0673
ENCODING 1651
SWIDTH 225 0
DWIDTH 5 0
BBX 4 18 0 -2
BITMAP
20
20
20
20
20
20
20
30
30
30
30
20
20
00
00
30
20
F0
ENDCHAR
STARTCHAR 0674
ENCODING 1652
SWIDTH 225 0
DWIDTH 5 0
BBX 3 3 1 17
BITMAP
C0
E0
80
ENDCHAR
STARTCHAR 0675
ENCODING 1653
SWIDTH 225 0
DWIDTH 5 0
BBX 4 13 2 3
BITMAP
B0
A0
B0
80
80
80
80
C0
C0
C0
C0
80
80
ENDCHAR
STARTCHAR 0676
ENCODING 1654
SWIDTH 450 0
DWIDTH 10 0
BBX 10 15 1 -2
BITMAP
00C0
0080
00C0
0000
0000
0700
0580
0480
0780
0380
0100
0100
0200
8E00
7800
ENDCHAR
STARTCHAR 0677
ENCODING 1655
SWIDTH 450 0
DWIDTH 10 0
BBX 10 16 1 -2
BITMAP
0800
14C0
0880
0CC0
1000
0000
0700
0580
0480
0780
0380
0100
0100
0200
8E00
7800
ENDCHAR
STARTCHAR 0678
ENCODING 1656
SWIDTH 630 0
DWIDTH 14 0
BBX 13 16 1 -1
BITMAP
0008
0010
0018
0000
0000
0070
00F0
4100
8100
8100
81F0
8010
8020
81E0
FFC0
7F00
ENDCHAR
STARTCHAR 0679
ENCODING 1657
SWIDTH 720 0
DWIDTH 16 0
BBX 15 15 1 3
BITMAP
0600
0400
0200
0200
03C0
0440
0B80
0000
8004
8006
8002
8002
C002
FFFE
3FFE
ENDCHAR
STARTCHAR 067A
ENCODING 1658
SWIDTH 720 0
DWIDTH 16 0
BBX 15 14 1 3
BITMAP
0200
0300
0100
0100
0300
0000
0000
8004
8006
8002
8002
C002
FFFE
3FFE
ENDCHAR
STARTCHAR 067B
ENCODING 1659
SWIDTH 720 0
DWIDTH 16 0
BBX 15 14 1 -4
BITMAP
8004
8006
8002
8002
C002
FFFE
3FFE
0000
0000
0180
0100
0100
0180
0080
ENDCHAR
STARTCHAR 067C
ENCODING 1660
SWIDTH 720 0
DWIDTH 16 0
BBX 15 13 1 1
BITMAP
0080
0580
0600
0000
8004
8006
8002
8002
C002
FFFE
3FFE
0280
0380
ENDCHAR
STARTCHAR 067D
ENCODING 1661
SWIDTH 720 0
DWIDTH 16 0
BBX 15 13 1 4
BITMAP
05C0
0680
0300
0180
0080
0000
8004
8006
8002
8002
C002
FFFE
3FFE
ENDCHAR
STARTCHAR 067E
ENCODING 1662
SWIDTH 720 0
DWIDTH 16 0
BBX 15 14 1 -4
BITMAP
8004
8006
8002
8002
C002
FFFE
3FFE
0000
0000
00C0
0780
0200
01C0
0080
ENDCHAR
STARTCHAR 067F
ENCODING 1663
SWIDTH 720 0
DWIDTH 16 0
BBX 15 13 1 4
BITMAP
0580
0680
0080
07C0
0600
0000
8004
8006
8002
8002
C002
FFFE
3FFE
ENDCHAR
STARTCHAR 0680
ENCODING 1664
SWIDTH 720 0
DWIDTH 16 0
BBX 15 14 1 -5
BITMAP
8004
8006
8002
8002
C002
FFFE
3FFE
0000
0000
00C0
0680
0280
02C0
0740
ENDCHAR
STARTCHAR 0681
ENCODING 1665
SWIDTH 585 0
DWIDTH 13 0
BBX 10 20 1 -5
BITMAP
0600
0400
0600
0000
0000
3800
FFC0
CFC0
1800
2000
4000
8000
8000
8000
8000
8000
C000
7800
3FC0
0F00
ENDCHAR
STARTCHAR 0682
ENCODING 1666
SWIDTH 585 0
DWIDTH 13 0
BBX 10 22 1 -5
BITMAP
0800
0C00
0000
0C00
0C00
0000
0000
3800
FFC0
CFC0
1800
2000
4000
8000
8000
8000
8000
8000
C000
7800
3FC0
0F00
ENDCHAR
STARTCHAR 0683
ENCODING 1667
SWIDTH 585 0
DWIDTH 13 0
BBX 10 15 1 -5
BITMAP
3800
FFC0
CFC0
1800
2000
4000
8000
8300
9D00
8800
8000
C000
7800
3FC0
0F00
ENDCHAR
STARTCHAR 0684
ENCODING 1668
SWIDTH 585 0
DWIDTH 13 0
BBX 10 15 1 -5
BITMAP
3800
FFC0
CFC0
1800
2000
4000
8600
8400
8000
8600
8200
C000
7800
3FC0
0F00
ENDCHAR
STARTCHAR 0685
ENCODING 1669
SWIDTH 585 0
DWIDTH 13 0
BBX 10 22 1 -5
BITMAP
0800
0C00
0A00
0300
1800
0800
0000
3800
FFC0
CFC0
1800
2000
4000
8000
8000
8000
8000
8000
C000
7800
3FC0
0F00
ENDCHAR
STARTCHAR 0686
ENCODING 1670
SWIDTH 585 0
DWIDTH 13 0
BBX 10 15 1 -5
BITMAP
3800
FFC0
CFC0
1800
2000
4200
8B00
9D00
8200
8700
8000
C000
7800
3FC0
0F00
ENDCHAR
STARTCHAR 0687
ENCODING 1671
SWIDTH 585 0
DWIDTH 13 0
BBX 10 15 1 -5
BITMAP
3800
FFC0
CFC0
1800
2000
4300
8F00
8C00
8180
8F00
8400
C000
7800
3FC0
0F00
ENDCHAR
STARTCHAR 0688
ENCODING 1672
SWIDTH 360 0
DWIDTH 8 0
BBX 6 17 1 3
BITMAP
40
40
40
40
48
34
FC
00
10
18
0C
04
04
04
84
FC
7C
ENDCHAR
STARTCHAR 0689
ENCODING 1673
SWIDTH 360 0
DWIDTH 8 0
BBX 6 11 1 1
BITMAP
10
18
0C
04
04
04
84
FC
7C
28
38
ENDCHAR
STARTCHAR 068A
ENCODING 1674
SWIDTH 360 0
DWIDTH 8 0
BBX 6 13 1 -1
BITMAP
10
18
0C
04
04
04
84
FC
7C
00
00
18
10
ENDCHAR
STARTCHAR 068B
ENCODING 1675
SWIDTH 360 0
DWIDTH 8 0
BBX 6 21 1 -1
BITMAP
40
40
40
40
48
34
FC
00
10
18
0C
04
04
04
84
FC
7C
00
00
18
10
ENDCHAR
STARTCHAR 068C
ENCODING 1676
SWIDTH 360 0
DWIDTH 8 0
BBX 6 14 1 3
BITMAP
10
18
C0
40
00
10
18
0C
04
04
04
84
FC
7C
ENDCHAR
STARTCHAR 068D
ENCODING 1677
SWIDTH 360 0
DWIDTH 8 0
BBX 6 14 1 -2
BITMAP
10
18
0C
04
04
04
84
FC
7C
00
00
1C
68
20
ENDCHAR
STARTCHAR 068E
ENCODING 1678
SWIDTH 360 0
DWIDTH 8 0
BBX 6 16 1 3
BITMAP
40
60
30
58
E8
00
00
10
18
0C
04
04
04
84
FC
7C
ENDCHAR
STARTCHAR 068F
ENCODING 1679
SWIDTH 360 0
DWIDTH 8 0
BBX 6 16 1 3
BITMAP
10
B0
C0
20
30
10
00
10
18
0C
04
04
04
84
FC
7C
ENDCHAR
STARTCHAR 0690
ENCODING 1680
SWIDTH 360 0
DWIDTH 8 0
BBX 6 16 1 3
BITMAP
10
B8
C0
58
58
C0
00
10
18
0C
04
04
04
84
FC
7C
ENDCHAR
STARTCHAR 0691
ENCODING 1681
SWIDTH 495 0
DWIDTH 11 0
BBX 10 20 1 -2
BITMAP
0C00
0800
0400
0400
0780
0880
1700
0000
0000
0080
00C0
00C0
0040
0040
0040
00C0
0180
0380
8F00
7C00
ENDCHAR
STARTCHAR 0692
ENCODING 1682
SWIDTH 495 0
DWIDTH 11 0
BBX 10 16 1 -2
BITMAP
0500
0300
0000
0000
0000
0080
00C0
00C0
0040
0040
0040
00C0
0180
0380
8F00
7C00
ENDCHAR
STARTCHAR 0693
ENCODING 1683
SWIDTH 495 0
DWIDTH 11 0
BBX 10 12 1 -2
BITMAP
0080
00C0
00C0
0040
0040
0040
00C0
0180
0380
8FC0
7E40
0180
ENDCHAR
STARTCHAR 0694
ENCODING 1684
SWIDTH 495 0
DWIDTH 11 0
BBX 10 12 1 -2
BITMAP
0080
00C0
00C0
0040
0040
0040
00C0
0180
0380
8F00
7CC0
00C0
ENDCHAR
STARTCHAR 0695
ENCODING 1685
SWIDTH 495 0
DWIDTH 11 0
BBX 10 13 1 -3
BITMAP
0080
00C0
00C0
0040
0040
0040
00C0
0180
0380
8F00
7C00
0280
0180
ENDCHAR
STARTCHAR 0696
ENCODING 1686
SWIDTH 495 0
DWIDTH 11 0
BBX 10 12 1 -2
BITMAP
0080
00C0
00C0
0040
0040
1840
08C0
0180
0380
8F00
7CC0
00C0
ENDCHAR
STARTCHAR 0697
ENCODING 1687
SWIDTH 495 0
DWIDTH 11 0
BBX 10 16 1 -2
BITMAP
0100
0F00
0C00
0000
0000
0080
00C0
00C0
0040
0040
0040
00C0
0180
0380
8F00
7C00
ENDCHAR
STARTCHAR 0698
ENCODING 1688
SWIDTH 495 0
DWIDTH 11 0
BBX 10 18 1 -2
BITMAP
0600
0600
0180
0780
0600
0000
0000
0080
00C0
00C0
0040
0040
0040
00C0
0180
0380
8F00
7C00
ENDCHAR
STARTCHAR 0699
ENCODING 1689
SWIDTH 495 0
DWIDTH 11 0
BBX 10 19 1 -2
BITMAP
0200
0300
1800
0900
0F00
0C00
0000
0000
0080
00C0
00C0
0040
0040
0040
00C0
0180
0380
8F00
7C00
ENDCHAR
STARTCHAR 069A
ENCODING 1690
SWIDTH 810 0
DWIDTH 18 0
BBX 17 15 1 -2
BITMAP
000C00
000C00
000000
000000
004080
004480
806480
802280
803F80
803D80
802000
804000
C3C300
FF8300
1C0000
ENDCHAR
STARTCHAR 069B
ENCODING 1691
SWIDTH 810 0
DWIDTH 18 0
BBX 17 13 1 -4
BITMAP
004080
004480
806480
802280
803F80
803D80
802000
804100
C3C180
FF8E80
1C0400
000180
000100
ENDCHAR
STARTCHAR 069C
ENCODING 1692
SWIDTH 810 0
DWIDTH 18 0
BBX 17 20 1 -4
BITMAP
001000
001800
000600
001600
003000
000000
000000
004080
004480
806480
802280
803F80
803D80
802000
804100
C3C180
FF8E80
1C0400
000180
000100
ENDCHAR
STARTCHAR 069D
ENCODING 1693
SWIDTH 1080 0
DWIDTH 24 0
BBX 23 11 1 -2
BITMAP
00403C
00407E
806186
802606
803FFE
803FFE
804000
804000
C3C060
FF81A0
1C0100
ENDCHAR
STARTCHAR 069E
ENCODING 1694
SWIDTH 1080 0
DWIDTH 24 0
BBX 23 18 1 -2
BITMAP
000180
000180
000060
000160
000180
000000
000000
00403C
00407E
806186
802606
803FFE
803FFE
804000
804000
C3C000
FF8000
1C0000
ENDCHAR
STARTCHAR 069F
ENCODING 1695
SWIDTH 585 0
DWIDTH 13 0
BBX 14 14 -1 4
BITMAP
0C00
0C40
0CC0
0410
04F8
04C0
0400
0400
0478
05FC
070C
0C0C
FFFC
FFFC
ENDCHAR
STARTCHAR 06A0
ENCODING 1696
SWIDTH 540 0
DWIDTH 12 0
BBX 11 24 0 -5
BITMAP
2000
3000
1800
2C00
7400
0000
0000
1C00
7C00
4000
4040
6380
7F00
1C00
3000
6000
4000
8000
8000
C000
6000
7800
3FE0
0780
ENDCHAR
STARTCHAR 06A1
ENCODING 1697
SWIDTH 810 0
DWIDTH 18 0
BBX 18 8 0 3
BITMAP
000100
400380
800680
800680
C007C0
6001C0
7FFFC0
0FFFC0
ENDCHAR
STARTCHAR 06A2
ENCODING 1698
SWIDTH 810 0
DWIDTH 18 0
BBX 18 12 0 -1
BITMAP
000100
400380
800680
800680
C007C0
6001C0
7FFFC0
0FFFC0
000000
000000
000180
000100
ENDCHAR
STARTCHAR 06A3
ENCODING 1699
SWIDTH 810 0
DWIDTH 18 0
BBX 18 15 0 -1
BITMAP
000300
000300
000000
000100
400380
800680
800680
C007C0
6001C0
7FFFC0
0FFFC0
000000
000000
006000
004000
ENDCHAR
STARTCHAR 06A4
ENCODING 1700
SWIDTH 810 0
DWIDTH 18 0
BBX 18 14 0 3
BITMAP
000600
000600
000180
000580
000C00
000000
000100
400380
800680
800680
C007C0
6001C0
7FFFC0
0FFFC0
ENDCHAR
STARTCHAR 06A5
ENCODING 1701
SWIDTH 810 0
DWIDTH 18 0
BBX 18 15 0 -4
BITMAP
000100
400380
800680
800680
C007C0
6001C0
7FFFC0
0FFFC0
000000
000080
0000C0
000740
000200
0000C0
000080
ENDCHAR
STARTCHAR 06A6
ENCODING 1702
SWIDTH 810 0
DWIDTH 18 0
BBX 18 15 0 3
BITMAP
000100
000B80
000C00
000580
000580
000E00
000000
000100
400380
800680
800680
C007C0
6001C0
7FFFC0
0FFFC0
ENDCHAR
STARTCHAR 06A7
ENCODING 1703
SWIDTH 585 0
DWIDTH 13 0
BBX 12 16 1 -2
BITMAP
0080
0180
0000
0000
00C0
00E0
0130
8130
81F0
80D0
8010
8010
8030
E1E0
7FC0
1E00
ENDCHAR
STARTCHAR 06A8
ENCODING 1704
SWIDTH 585 0
DWIDTH 13 0
BBX 12 18 1 -2
BITMAP
0300
0300
00C0
02C0
0700
0000
00C0
00E0
0130
8130
81F0
80D0
8010
8010
8030
E1E0
7FC0
1E00
ENDCHAR
STARTCHAR 06A9
ENCODING 1705
SWIDTH 810 0
DWIDTH 18 0
BBX 18 13 0 3
BITMAP
000180
000780
001C00
003000
003000
003800
001C00
800700
800100
800080
C000C0
7FFFC0
3FFFC0
ENDCHAR
STARTCHAR 06AA
ENCODING 1706
SWIDTH 810 0
DWIDTH 18 0
BBX 18 12 0 3
BITMAP
006000
01E000
078000
0C0000
080000
1E0000
07F000
007F00
800380
C000C0
7FFFC0
3FFFC0
ENDCHAR
STARTCHAR 06AB
ENCODING 1707
SWIDTH 810 0
DWIDTH 18 0
BBX 18 13 0 3
BITMAP
000180
000780
001E80
003280
003100
003800
001C00
800700
800100
800080
C000C0
7FFFC0
3FFFC0
ENDCHAR
STARTCHAR 06AC
ENCODING 1708
SWIDTH 585 0
DWIDTH 13 0
BBX 13 14 0 3
BITMAP
0320
0338
0038
0090
0110
0210
0398
0088
4088
8F08
8008
4008
7FF8
3FF8
ENDCHAR
STARTCHAR 06AD
ENCODING 1709
SWIDTH 585 0
DWIDTH 13 0
BBX 13 16 0 4
BITMAP
0600
0700
01A0
0EB8
0438
0090
0110
0210
0398
0088
4088
8F08
8008
4008
7FF8
3FF8
ENDCHAR
STARTCHAR 06AE
ENCODING 1710
SWIDTH 585 0
DWIDTH 13 0
BBX 13 21 0 -4
BITMAP
0020
0038
0038
0090
0110
0210
0398
0088
4088
8F08
8008
4008
7FF8
3FF8
0000
0000
01C0
0680
0700
0180
0080
ENDCHAR
STARTCHAR 06AF
ENCODING 1711
SWIDTH 810 0
DWIDTH 18 0
BBX 18 16 0 3
BITMAP
000180
000780
000E00
003180
002780
001C00
003000
003000
003800
001C00
800700
800100
800080
C000C0
7FFFC0
3FFFC0
ENDCHAR
STARTCHAR 06B0
ENCODING 1712
SWIDTH 810 0
DWIDTH 18 0
BBX 18 16 0 3
BITMAP
000180
000780
000E00
003180
002780
001E80
003280
003100
003800
001C00
800700
800100
800080
C000C0
7FFFC0
3FFFC0
ENDCHAR
STARTCHAR 06B1
ENCODING 1713
SWIDTH 810 0
DWIDTH 18 0
BBX 18 17 0 3
BITMAP
000400
003580
001780
000E00
003180
002780
001C00
003000
003000
003800
001C00
800700
800100
800080
C000C0
7FFFC0
3FFFC0
ENDCHAR
STARTCHAR 06B2
ENCODING 1714
SWIDTH 810 0
DWIDTH 18 0
BBX 18 21 0 -2
BITMAP
000180
000780
000E00
003180
002780
001C00
003000
003000
003800
001C00
800700
800100
800080
C000C0
7FFFC0
3FFFC0
000000
000000
003000
00D000
008000
ENDCHAR
STARTCHAR 06B3
ENCODING 1715
SWIDTH 810 0
DWIDTH 18 0
BBX 18 23 0 -4
BITMAP
000180
000780
000E00
003180
002780
001C00
003000
003000
003800
001C00
800700
800100
800080
C000C0
7FFFC0
3FFFC0
000000
000000
006000
004000
004000
006000
002000
ENDCHAR
STARTCHAR 06B4
ENCODING 1716
SWIDTH 810 0
DWIDTH 18 0
BBX 18 17 0 3
BITMAP
001000
001D80
003780
000E00
003180
002780
001C00
003000
003000
003800
001C00
800700
800100
800080
C000C0
7FFFC0
3FFFC0
ENDCHAR
STARTCHAR 06B5
ENCODING 1717
SWIDTH 495 0
DWIDTH 11 0
BBX 10 20 1 0
BITMAP
0240
0180
0000
0080
00C0
00C0
0080
0080
00C0
0040
0040
4040
8040
8040
8040
8040
8040
C1C0
FF80
3E00
ENDCHAR
STARTCHAR 06B6
ENCODING 1718
SWIDTH 495 0
DWIDTH 11 0
BBX 10 19 1 1
BITMAP
01C0
0080
0080
00C0
00C0
0080
0080
00C0
0040
0040
4040
8040
8040
8040
8040
8040
C1C0
FF80
3E00
ENDCHAR
STARTCHAR 06B7
ENCODING 1719
SWIDTH 495 0
DWIDTH 11 0
BBX 10 20 1 0
BITMAP
0100
01C0
0200
0080
00C0
00C0
0080
0080
00C0
0040
0040
4040
8040
8040
8040
8040
8040
C1C0
FF80
3E00
ENDCHAR
STARTCHAR 06B8
ENCODING 1720
SWIDTH 495 0
DWIDTH 11 0
BBX 10 21 1 -5
BITMAP
0080
00C0
00C0
0080
0080
00C0
0040
0040
4040
8040
8040
8040
8040
8040
C1C0
FF80
3E00
0000
1600
3800
0600
ENDCHAR
STARTCHAR 06B9
ENCODING 1721
SWIDTH 540 0
DWIDTH 12 0
BBX 11 16 1 -5
BITMAP
0E00
0400
0000
0040
0040
4060
8020
8020
8020
8020
8040
E3C0
7F80
1C00
0400
0E00
ENDCHAR
STARTCHAR 06BA
ENCODING 1722
SWIDTH 540 0
DWIDTH 12 0
BBX 11 11 1 -2
BITMAP
0040
0040
4060
8020
8020
8020
8020
8040
E3C0
7F80
1C00
ENDCHAR
STARTCHAR 06BB
ENCODING 1723
SWIDTH 540 0
DWIDTH 12 0
BBX 11 19 1 -1
BITMAP
0800
0800
0800
0800
0780
3F80
0000
0000
0040
0040
4060
8020
8020
8020
8020
8040
E3C0
7F80
1C00
ENDCHAR
STARTCHAR 06BC
ENCODING 1724
SWIDTH 540 0
DWIDTH 12 0
BBX 11 16 1 -4
BITMAP
0E00
0400
0000
0040
0040
4060
8020
8020
8020
8020
8040
E3C0
7F80
1C00
1400
0C00
ENDCHAR
STARTCHAR 06BD
ENCODING 1725
SWIDTH 540 0
DWIDTH 12 0
BBX 11 18 1 -2
BITMAP
1800
1800
0200
1E00
1800
0000
0000
0040
0040
4060
8020
8020
8020
8020
8040
E3C0
7F80
1C00
ENDCHAR
STARTCHAR 06BE
ENCODING 1726
SWIDTH 450 0
DWIDTH 10 0
BBX 9 9 -1 3
BITMAP
0800
0C00
0E00
1F00
2380
3780
1C80
FF80
E380
ENDCHAR
STARTCHAR 06BF
ENCODING 1727
SWIDTH 585 0
DWIDTH 13 0
BBX 10 19 1 -5
BITMAP
0C00
0C00
0000
0000
3800
FFC0
CFC0
1800
2000
4200
8B00
9D00
8200
8700
8000
C000
7800
3FC0
0F00
ENDCHAR
STARTCHAR 06C0
ENCODING 1728
SWIDTH 270 0
DWIDTH 6 0
BBX 5 11 1 3
BITMAP
20
40
60
00
00
60
70
98
88
F8
F0
ENDCHAR
STARTCHAR 06C1
ENCODING 1729
SWIDTH 405 0
DWIDTH 9 0
BBX 9 5 0 2
BITMAP
1C00
3E00
2780
4180
8000
ENDCHAR
STARTCHAR 06C2
ENCODING 1730
SWIDTH 405 0
DWIDTH 9 0
BBX 9 10 0 2
BITMAP
0800
1000
1800
0000
0000
1C00
3E00
2780
4180
8000
ENDCHAR
STARTCHAR 06C3
ENCODING 1731
SWIDTH 405 0
DWIDTH 9 0
BBX 9 10 0 2
BITMAP
0C00
3C00
2000
0000
0000
1C00
3E00
2780
4180
8000
ENDCHAR
STARTCHAR 06C4
ENCODING 1732
SWIDTH 450 0
DWIDTH 10 0
BBX 9 10 1 -1
BITMAP
0700
0580
0480
0780
0380
0100
1D00
1600
9E00
7800
ENDCHAR
STARTCHAR 06C5
ENCODING 1733
SWIDTH 450 0
DWIDTH 10 0
BBX 9 10 1 -1
BITMAP
0700
0580
0480
0780
0380
1900
0700
0200
8E00
7800
ENDCHAR
STARTCHAR 06C6
ENCODING 1734
SWIDTH 450 0
DWIDTH 10 0
BBX 9 15 1 -2
BITMAP
0500
0300
0000
0000
0000
0700
0580
0480
0780
0380
0100
0100
0200
8E00
7800
ENDCHAR
STARTCHAR 06C7
ENCODING 1735
SWIDTH 450 0
DWIDTH 10 0
BBX 9 17 1 -2
BITMAP
0100
0300
0300
0300
0400
0000
0000
0700
0580
0480
0780
0380
0100
0100
0200
8E00
7800
ENDCHAR
STARTCHAR 06C8
ENCODING 1736
SWIDTH 450 0
DWIDTH 10 0
BBX 9 18 1 -2
BITMAP
0400
0200
0200
0200
0200
0200
0000
0000
0700
0580
0480
0780
0380
0100
0100
0200
8E00
7800
ENDCHAR
STARTCHAR 06C9
ENCODING 1737
SWIDTH 450 0
DWIDTH 10 0
BBX 9 15 1 -2
BITMAP
0200
0300
0480
0000
0000
0700
0580
0480
0780
0380
0100
0100
0200
8E00
7800
ENDCHAR
STARTCHAR 06CA
ENCODING 1738
SWIDTH 450 0
DWIDTH 10 0
BBX 9 15 1 -1
BITMAP
0B00
0D00
0000
0000
0000
0700
0580
0480
0780
0380
0100
0100
0200
8E00
7800
ENDCHAR
STARTCHAR 06CB
ENCODING 1739
SWIDTH 450 0
DWIDTH 10 0
BBX 9 17 1 -1
BITMAP
0C00
0500
0B00
0C00
0000
0000
0000
0700
0580
0480
0780
0380
0100
0100
0200
8E00
7800
ENDCHAR
STARTCHAR 06CC
ENCODING 1740
SWIDTH 630 0
DWIDTH 14 0
BBX 12 11 1 -1
BITMAP
0070
00F0
4100
8100
8100
81F0
8010
8020
81E0
FFC0
7F00
ENDCHAR
STARTCHAR 06CD
ENCODING 1741
SWIDTH 630 0
DWIDTH 14 0
BBX 13 11 0 -1
BITMAP
0038
0078
2080
C080
4080
40F8
8008
4010
40F0
7FE0
3F80
ENDCHAR
STARTCHAR 06CE
ENCODING 1742
SWIDTH 630 0
DWIDTH 14 0
BBX 12 13 1 -1
BITMAP
1000
1400
0870
00F0
4100
8100
8100
81F0
8010
8020
81E0
FFC0
7F00
ENDCHAR
STARTCHAR 06CF
ENCODING 1743
SWIDTH 450 0
DWIDTH 10 0
BBX 9 15 1 -2
BITMAP
0400
0E00
0000
0000
0000
0700
0580
0480
0780
0380
0100
0100
0200
8E00
7800
ENDCHAR
STARTCHAR 06D0
ENCODING 1744
SWIDTH 630 0
DWIDTH 14 0
BBX 12 14 1 -4
BITMAP
0070
00F0
4100
8100
8100
81F0
8010
8020
81E0
FFC0
7F00
0000
0800
0400
ENDCHAR
STARTCHAR 06D1
ENCODING 1745
SWIDTH 630 0
DWIDTH 14 0
BBX 12 14 1 -4
BITMAP
0070
00F0
4100
8100
8100
81F0
8010
8020
81E0
FFC0
7F00
0000
0A00
0400
ENDCHAR
STARTCHAR 06D2
ENCODING 1746
SWIDTH 810 0
DWIDTH 18 0
BBX 16 9 1 -1
BITMAP
0180
0380
0480
1800
7000
C000
8000
FFFF
FFFC
ENDCHAR
STARTCHAR 06D3
ENCODING 1747
SWIDTH 810 0
DWIDTH 18 0
BBX 16 12 1 -1
BITMAP
0C00
1000
0C00
0180
0380
0480
1800
7000
C000
8000
FFFF
FFFC
ENDCHAR
STARTCHAR 06D4
ENCODING 1748
SWIDTH 225 0
DWIDTH 5 0
BBX 4 2 0 3
BITMAP
F0
F0
ENDCHAR
STARTCHAR 06D5
ENCODING 1749
SWIDTH 270 0
DWIDTH 6 0
BBX 5 6 1 4
BITMAP
60
70
98
88
F8
F0
ENDCHAR
STARTCHAR 06D6
ENCODING 1750
SWIDTH 0 0
DWIDTH 0 0
BBX 10 7 -5 13
BITMAP
1000
2000
10C0
1940
7FC0
8000
FE00
ENDCHAR
STARTCHAR 06D7
ENCODING 1751
SWIDTH 0 0
DWIDTH 0 0
BBX 8 7 -4 13
BITMAP
14
16
16
12
3E
C0
FF
ENDCHAR
STARTCHAR 06D8
ENCODING 1752
SWIDTH 0 0
DWIDTH 0 0
BBX 4 2 -2 12
BITMAP
30
F0
ENDCHAR
STARTCHAR 06D9
ENCODING 1753
SWIDTH 0 0
DWIDTH 0 0
BBX 4 6 -2 12
BITMAP
90
90
50
30
20
70
ENDCHAR
STARTCHAR 06DA
ENCODING 1754
SWIDTH 0 0
DWIDTH 0 0
BBX 5 6 -3 12
BITMAP
78
40
80
90
80
78
ENDCHAR
STARTCHAR 06DB
ENCODING 1755
SWIDTH 0 0
DWIDTH 0 0
BBX 2 2 -1 12
BITMAP
80
C0
ENDCHAR
STARTCHAR 06DC
ENCODING 1756
SWIDTH 0 0
DWIDTH 0 0
BBX 8 5 -4 12
BITMAP
08
89
87
88
F8
ENDCHAR
STARTCHAR 06DD
ENCODING 1757
SWIDTH 1125 0
DWIDTH 25 0
BBX 23 24 1 -4
BITMAP
007C00
03FF80
1E00E0
1BFFB0
340058
200008
400004
400004
800002
800002
800002
800002
800002
800002
800002
800002
C00006
400004
60000C
300018
1C0070
13FFA0
0F01E0
01FE00
ENDCHAR
STARTCHAR 06DE
ENCODING 1758
SWIDTH 1080 0
DWIDTH 24 0
BBX 22 22 1 -2
BITMAP
003000
004800
008400
1FFFE0
120120
1400A0
180060
100020
300030
507828
904824
904824
507828
300030
100020
180060
1400A0
120120
1FFFE0
008400
004800
003000
ENDCHAR
STARTCHAR 06DF
ENCODING 1759
SWIDTH 0 0
DWIDTH 0 0
BBX 2 1 -1 12
BITMAP
C0
ENDCHAR
STARTCHAR 06E0
ENCODING 1760
SWIDTH 0 0
DWIDTH 0 0
BBX 2 1 -1 12
BITMAP
C0
ENDCHAR
STARTCHAR 06E1
ENCODING 1761
SWIDTH 0 0
DWIDTH 0 0
BBX 4 3 -2 12
BITMAP
40
60
F0
ENDCHAR
STARTCHAR 06E2
ENCODING 1762
SWIDTH 0 0
DWIDTH 0 0
BBX 4 4 -2 13
BITMAP
60
70
80
80
ENDCHAR
STARTCHAR 06E3
ENCODING 1763
SWIDTH 0 0
DWIDTH 0 0
BBX 8 5 -4 -4
BITMAP
09
8B
87
88
F0
ENDCHAR
STARTCHAR 06E4
ENCODING 1764
SWIDTH 0 0
DWIDTH 0 0
BBX 0 0 -1 11
BITMAP
ENDCHAR
STARTCHAR 06E5
ENCODING 1765
SWIDTH 180 0
DWIDTH 4 0
BBX 3 4 1 12
BITMAP
60
20
20
E0
ENDCHAR
STARTCHAR 06E6
ENCODING 1766
SWIDTH 360 0
DWIDTH 8 0
BBX 8 4 0 12
BITMAP
10
20
40
FF
ENDCHAR
STARTCHAR 06E7
ENCODING 1767
SWIDTH 0 0
DWIDTH 0 0
BBX 8 4 -4 12
BITMAP
10
20
40
FF
ENDCHAR
STARTCHAR 06E8
ENCODING 1768
SWIDTH 0 0
DWIDTH 0 0
BBX 6 6 -3 12
BITMAP
30
00
04
84
84
F8
ENDCHAR
STARTCHAR 06E9
ENCODING 1769
SWIDTH 585 0
DWIDTH 13 0
BBX 11 18 1 0
BITMAP
0400
0A00
1500
2A80
5F40
B1A0
B1A0
5B40
3B40
3B80
3B80
3B80
3B80
3B80
3B80
3540
5F40
FFE0
ENDCHAR
STARTCHAR 06EA
ENCODING 1770
SWIDTH 0 0
DWIDTH 0 0
BBX 3 2 -2 -3
BITMAP
E0
60
ENDCHAR
STARTCHAR 06EB
ENCODING 1771
SWIDTH 0 0
DWIDTH 0 0
BBX 4 3 -2 12
BITMAP
60
90
60
ENDCHAR
STARTCHAR 06EC
ENCODING 1772
SWIDTH 0 0
DWIDTH 0 0
BBX 2 1 -1 12
BITMAP
C0
ENDCHAR
STARTCHAR 06ED
ENCODING 1773
SWIDTH 0 0
DWIDTH 0 0
BBX 4 5 -2 -4
BITMAP
60
30
C0
80
80
ENDCHAR
STARTCHAR 06F0
ENCODING 1776
SWIDTH 540 0
DWIDTH 12 0
BBX 3 5 4 5
BITMAP
40
60
E0
E0
20
ENDCHAR
STARTCHAR 06F1
ENCODING 1777
SWIDTH 540 0
DWIDTH 12 0
BBX 4 13 3 3
BITMAP
40
40
E0
60
30
30
10
10
10
10
10
10
10
ENDCHAR
STARTCHAR 06F2
ENCODING 1778
SWIDTH 540 0
DWIDTH 12 0
BBX 7 13 2 3
BITMAP
82
C2
FE
7C
38
30
10
18
18
08
08
08
08
ENDCHAR
STARTCHAR 06F3
ENCODING 1779
SWIDTH 540 0
DWIDTH 12 0
BBX 9 12 1 3
BITMAP
0400
4680
FF80
7B80
2000
3000
1000
1000
1800
0800
1000
1000
ENDCHAR
STARTCHAR 06F4
ENCODING 1780
SWIDTH 540 0
DWIDTH 12 0
BBX 8 12 2 3
BITMAP
8E
98
D0
E1
7E
7C
20
30
30
30
10
20
ENDCHAR
STARTCHAR 06F5
ENCODING 1781
SWIDTH 540 0
DWIDTH 12 0
BBX 8 12 2 4
BITMAP
10
18
18
0C
3E
46
42
81
81
81
FE
FE
ENDCHAR
STARTCHAR 06F6
ENCODING 1782
SWIDTH 540 0
DWIDTH 12 0
BBX 8 12 2 3
BITMAP
18
3C
40
41
FE
FE
18
10
30
20
20
40
ENDCHAR
STARTCHAR 06F7
ENCODING 1783
SWIDTH 540 0
DWIDTH 12 0
BBX 9 11 1 4
BITMAP
4080
4080
E180
7100
3200
1200
1C00
0C00
0C00
0C00
0800
ENDCHAR
STARTCHAR 06F8
ENCODING 1784
SWIDTH 540 0
DWIDTH 12 0
BBX 8 11 2 4
BITMAP
10
10
28
28
2C
2C
46
47
C3
83
81
ENDCHAR
STARTCHAR 06F9
ENCODING 1785
SWIDTH 540 0
DWIDTH 12 0
BBX 7 13 2 3
BITMAP
38
7C
4C
84
FC
7C
04
04
04
04
06
06
02
ENDCHAR
STARTCHAR 06FA
ENCODING 1786
SWIDTH 810 0
DWIDTH 18 0
BBX 17 18 1 -2
BITMAP
001000
001800
000600
001600
003000
000000
000000
004080
004480
806480
802280
803F80
803D80
802000
804000
C3C300
FF8300
1C0000
ENDCHAR
STARTCHAR 06FB
ENCODING 1787
SWIDTH 1080 0
DWIDTH 24 0
BBX 23 15 1 -2
BITMAP
000300
000300
000000
000000
00403C
00407E
806186
802606
803FFE
803FFE
804000
804000
C3C0C0
FF80C0
1C0000
ENDCHAR
STARTCHAR 06FC
ENCODING 1788
SWIDTH 540 0
DWIDTH 12 0
BBX 11 21 0 -5
BITMAP
1800
1800
0000
0000
1C00
7C00
4000
4040
6380
7F00
1C00
3000
6000
4000
8380
8100
C000
6000
7800
3FE0
0780
ENDCHAR
STARTCHAR 06FD
ENCODING 1789
SWIDTH 405 0
DWIDTH 9 0
BBX 7 12 1 -3
BITMAP
18
38
40
C2
FE
38
20
00
28
28
28
28
ENDCHAR
STARTCHAR 06FE
ENCODING 1790
SWIDTH 360 0
DWIDTH 8 0
BBX 8 12 0 -5
BITMAP
18
3C
06
3F
7F
C0
80
94
54
54
54
40
ENDCHAR
STARTCHAR 1E80
ENCODING 7808
SWIDTH 945 0
DWIDTH 21 0
BBX 21 20 0 0
BITMAP
00E000
006000
002000
001000
000000
FDF8F8
306020
307020
183040
183040
1C3840
0C5880
0C5880
0E4C80
068D00
068D00
038700
030600
030600
010200
ENDCHAR
STARTCHAR 1E81
ENCODING 7809
SWIDTH 720 0
DWIDTH 16 0
BBX 16 15 0 0
BITMAP
0300
0180
0080
0000
0000
F3C7
2182
3084
30C4
11C8
1A68
1A68
0E30
0C30
0420
ENDCHAR
STARTCHAR 1E82
ENCODING 7810
SWIDTH 945 0
DWIDTH 21 0
BBX 21 20 0 0
BITMAP
003800
003000
002000
004000
000000
FDF8F8
306020
307020
183040
183040
1C3840
0C5880
0C5880
0E4C80
068D00
068D00
038700
030600
030600
010200
ENDCHAR
STARTCHAR 1E83
ENCODING 7811
SWIDTH 720 0
DWIDTH 16 0
BBX 16 15 0 0
BITMAP
00C0
0080
0100
0000
0000
F3C7
2182
3084
30C4
11C8
1A68
1A68
0E30
0C30
0420
ENDCHAR
STARTCHAR 1E84
ENCODING 7812
SWIDTH 945 0
DWIDTH 21 0
BBX 21 19 0 0
BITMAP
008800
01DC00
008800
000000
FDF8F8
306020
307020
183040
183040
1C3840
0C5880
0C5880
0E4C80
068D00
068D00
038700
030600
030600
010200
ENDCHAR
STARTCHAR 1E85
ENCODING 7813
SWIDTH 720 0
DWIDTH 16 0
BBX 16 14 0 1
BITMAP
0660
0660
0000
0000
F3C7
2182
3084
30C4
11C8
1A68
1A68
0E30
0C30
0420
ENDCHAR
STARTCHAR 1EA0
ENCODING 7840
SWIDTH 720 0
DWIDTH 16 0
BBX 14 19 1 -4
BITMAP
0200
0300
0300
0780
0580
0980
08C0
08C0
1060
1FE0
2070
2030
4030
4038
E03C
0000
0200
0700
0200
ENDCHAR
STARTCHAR 1EA1
ENCODING 7841
SWIDTH 450 0
DWIDTH 10 0
BBX 9 14 1 -4
BITMAP
7C00
C600
C600
0600
1E00
6600
C600
C600
CE80
F700
0000
1000
3000
1000
ENDCHAR
STARTCHAR 1EA2
ENCODING 7842
SWIDTH 720 0
DWIDTH 16 0
BBX 14 20 1 0
BITMAP
0300
0280
0100
0000
0000
0200
0300
0300
0780
0580
0980
08C0
08C0
1060
1FE0
2070
2030
4030
4038
E03C
ENDCHAR
STARTCHAR 1EA3
ENCODING 7843
SWIDTH 450 0
DWIDTH 10 0
BBX 9 15 1 0
BITMAP
2800
0400
0800
0000
0000
7C00
C600
C600
0600
1E00
6600
C600
C600
CE80
F700
ENDCHAR
STARTCHAR 1EA4
ENCODING 7844
SWIDTH 720 0
DWIDTH 16 0
BBX 14 20 1 0
BITMAP
0180
0200
0300
0C80
0000
0200
0300
0300
0780
0580
0980
08C0
08C0
1060
1FE0
2070
2030
4030
4038
E03C
ENDCHAR
STARTCHAR 1EA5
ENCODING 7845
SWIDTH 450 0
DWIDTH 10 0
BBX 9 20 1 0
BITMAP
0C00
0800
1800
1000
0000
1800
2C00
4400
0200
0000
7C00
C600
C600
0600
1E00
6600
C600
C600
CE80
F700
ENDCHAR
STARTCHAR 1EA6
ENCODING 7846
SWIDTH 720 0
DWIDTH 16 0
BBX 14 20 1 0
BITMAP
0600
0200
0300
0C80
0000
0200
0300
0300
0780
0580
0980
08C0
08C0
1060
1FE0
2070
2030
4030
4038
E03C
ENDCHAR
STARTCHAR 1EA7
ENCODING 7847
SWIDTH 450 0
DWIDTH 10 0
BBX 9 20 1 0
BITMAP
3000
1000
1800
0800
0000
1800
2C00
4400
0200
0000
7C00
C600
C600
0600
1E00
6600
C600
C600
CE80
F700
ENDCHAR
STARTCHAR 1EA8
ENCODING 7848
SWIDTH 720 0
DWIDTH 16 0
BBX 14 20 1 0
BITMAP
0500
0100
0300
0C80
0000
0200
0300
0300
0780
0580
0980
08C0
08C0
1060
1FE0
2070
2030
4030
4038
E03C
ENDCHAR
STARTCHAR 1EA9
ENCODING 7849
SWIDTH 450 0
DWIDTH 10 0
BBX 9 20 1 0
BITMAP
1800
1400
0800
0000
0000
1800
2C00
4400
0200
0000
7C00
C600
C600
0600
1E00
6600
C600
C600
CE80
F700
ENDCHAR
STARTCHAR 1EAA
ENCODING 7850
SWIDTH 720 0
DWIDTH 16 0
BBX 14 20 1 0
BITMAP
0E00
0380
0300
0C80
0000
0200
0300
0300
0780
0580
0980
08C0
08C0
1060
1FE0
2070
2030
4030
4038
E03C
ENDCHAR
STARTCHAR 1EAB
ENCODING 7851
SWIDTH 450 0
DWIDTH 10 0
BBX 9 19 1 0
BITMAP
7000
BE00
8C00
0000
1800
2C00
4400
0200
0000
7C00
C600
C600
0600
1E00
6600
C600
C600
CE80
F700
ENDCHAR
STARTCHAR 1EAC
ENCODING 7852
SWIDTH 720 0
DWIDTH 16 0
BBX 14 22 1 -4
BITMAP
0300
0C80
0000
0200
0300
0300
0780
0580
0980
08C0
08C0
1060
1FE0
2070
2030
4030
4038
E03C
0000
0200
0700
0200
ENDCHAR
STARTCHAR 1EAD
ENCODING 7853
SWIDTH 450 0
DWIDTH 10 0
BBX 9 19 1 -4
BITMAP
1800
2C00
4400
0200
0000
7C00
C600
C600
0600
1E00
6600
C600
C600
CE80
F700
0000
1000
3000
1000
ENDCHAR
STARTCHAR 1EAE
ENCODING 7854
SWIDTH 720 0
DWIDTH 16 0
BBX 14 20 1 0
BITMAP
0180
0200
0840
0780
0000
0200
0300
0300
0780
0580
0980
08C0
08C0
1060
1FE0
2070
2030
4030
4038
E03C
ENDCHAR
STARTCHAR 1EAF
ENCODING 7855
SWIDTH 450 0
DWIDTH 10 0
BBX 9 20 1 0
BITMAP
0C00
0800
1000
0000
0000
0000
6600
3C00
0000
0000
7C00
C600
C600
0600
1E00
6600
C600
C600
CE80
F700
ENDCHAR
STARTCHAR 1EB0
ENCODING 7856
SWIDTH 720 0
DWIDTH 16 0
BBX 14 20 1 0
BITMAP
0600
0200
0840
0780
0000
0200
0300
0300
0780
0580
0980
08C0
08C0
1060
1FE0
2070
2030
4030
4038
E03C
ENDCHAR
STARTCHAR 1EB1
ENCODING 7857
SWIDTH 450 0
DWIDTH 10 0
BBX 9 20 1 0
BITMAP
3000
1000
0800
0800
0000
0000
6600
3C00
0000
0000
7C00
C600
C600
0600
1E00
6600
C600
C600
CE80
F700
ENDCHAR
STARTCHAR 1EB2
ENCODING 7858
SWIDTH 720 0
DWIDTH 16 0
BBX 14 20 1 0
BITMAP
0500
0100
0840
0780
0000
0200
0300
0300
0780
0580
0980
08C0
08C0
1060
1FE0
2070
2030
4030
4038
E03C
ENDCHAR
STARTCHAR 1EB3
ENCODING 7859
SWIDTH 450 0
DWIDTH 10 0
BBX 9 20 1 0
BITMAP
1800
0400
0800
0000
0000
0000
6600
3C00
0000
0000
7C00
C600
C600
0600
1E00
6600
C600
C600
CE80
F700
ENDCHAR
STARTCHAR 1EB4
ENCODING 7860
SWIDTH 720 0
DWIDTH 16 0
BBX 14 20 1 0
BITMAP
0E00
0380
0840
0780
0000
0200
0300
0300
0780
0580
0980
08C0
08C0
1060
1FE0
2070
2030
4030
4038
E03C
ENDCHAR
STARTCHAR 1EB5
ENCODING 7861
SWIDTH 450 0
DWIDTH 10 0
BBX 9 19 1 0
BITMAP
7000
BE00
8C00
0000
0000
6600
3C00
0000
0000
7C00
C600
C600
0600
1E00
6600
C600
C600
CE80
F700
ENDCHAR
STARTCHAR 1EB6
ENCODING 7862
SWIDTH 720 0
DWIDTH 16 0
BBX 14 22 1 -4
BITMAP
0840
0780
0000
0200
0300
0300
0780
0580
0980
08C0
08C0
1060
1FE0
2070
2030
4030
4038
E03C
0000
0200
0700
0200
ENDCHAR
STARTCHAR 1EB7
ENCODING 7863
SWIDTH 450 0
DWIDTH 10 0
BBX 9 18 1 -3
BITMAP
6600
3C00
0000
0000
7C00
C600
C600
0600
1E00
6600
C600
C600
CE80
F700
0000
1000
3000
1000
ENDCHAR
STARTCHAR 1EB8
ENCODING 7864
SWIDTH 630 0
DWIDTH 14 0
BBX 13 19 0 -4
BITMAP
FFF0
3810
1810
1800
1800
1820
1820
1FE0
1820
1820
1800
1800
1808
3810
3FF0
4000
0200
0700
0200
ENDCHAR
STARTCHAR 1EB9
ENCODING 7865
SWIDTH 450 0
DWIDTH 10 0
BBX 8 14 1 -4
BITMAP
3E
43
83
FF
80
C0
C0
E1
72
3C
00
18
18
18
ENDCHAR
STARTCHAR 1EBA
ENCODING 7866
SWIDTH 630 0
DWIDTH 14 0
BBX 13 20 0 0
BITMAP
0300
0280
0100
0000
0000
FFF0
3810
1810
1800
1800
1820
1820
1FE0
1820
1820
1800
1800
1808
3810
7FF0
ENDCHAR
STARTCHAR 1EBB
ENCODING 7867
SWIDTH 450 0
DWIDTH 10 0
BBX 8 15 1 0
BITMAP
1C
14
08
00
00
3E
43
83
FF
80
C0
C0
E1
72
3C
ENDCHAR
STARTCHAR 1EBC
ENCODING 7868
SWIDTH 630 0
DWIDTH 14 0
BBX 13 19 0 0
BITMAP
0620
0F20
01C0
0000
FFF0
3810
1810
1800
1800
1820
1820
1FE0
1820
1820
1800
1800
1808
3810
7FF0
ENDCHAR
STARTCHAR 1EBD
ENCODING 7869
SWIDTH 450 0
DWIDTH 10 0
BBX 8 15 1 0
BITMAP
31
79
0E
00
00
3E
43
83
FF
80
C0
C0
E1
72
3C
ENDCHAR
STARTCHAR 1EBE
ENCODING 7870
SWIDTH 630 0
DWIDTH 14 0
BBX 13 20 0 0
BITMAP
0180
0100
0380
0440
0000
FFF0
3810
1810
1800
1800
1820
1820
1FE0
1820
1820
1800
1800
1808
3810
7FF0
ENDCHAR
STARTCHAR 1EBF
ENCODING 7871
SWIDTH 450 0
DWIDTH 10 0
BBX 8 20 1 0
BITMAP
0E
0C
08
10
00
1C
3C
22
40
00
3E
43
83
FF
80
C0
C0
E1
72
3C
ENDCHAR
STARTCHAR 1EC0
ENCODING 7872
SWIDTH 630 0
DWIDTH 14 0
BBX 13 20 0 0
BITMAP
0600
0100
0380
0440
0000
FFF0
3810
1810
1800
1800
1820
1820
1FE0
1820
1820
1800
1800
1808
3810
7FF0
ENDCHAR
STARTCHAR 1EC1
ENCODING 7873
SWIDTH 450 0
DWIDTH 10 0
BBX 8 20 1 0
BITMAP
30
18
08
00
00
1C
3C
22
40
00
3E
43
83
FF
80
C0
C0
E1
72
3C
ENDCHAR
STARTCHAR 1EC2
ENCODING 7874
SWIDTH 630 0
DWIDTH 14 0
BBX 13 20 0 0
BITMAP
0380
0100
0380
0440
0000
FFF0
3810
1810
1800
1800
1820
1820
1FE0
1820
1820
1800
1800
1808
3810
7FF0
ENDCHAR
STARTCHAR 1EC3
ENCODING 7875
SWIDTH 450 0
DWIDTH 10 0
BBX 8 20 1 0
BITMAP
1C
14
04
08
00
1C
3C
22
40
00
3E
43
83
FF
80
C0
C0
E1
72
3C
ENDCHAR
STARTCHAR 1EC4
ENCODING 7876
SWIDTH 630 0
DWIDTH 14 0
BBX 13 20 0 0
BITMAP
0720
09C0
0380
0440
0000
FFF0
3810
1810
1800
1800
1820
1820
1FE0
1820
1820
1800
1800
1808
3810
7FF0
ENDCHAR
STARTCHAR 1EC5
ENCODING 7877
SWIDTH 450 0
DWIDTH 10 0
BBX 8 19 1 0
BITMAP
31
5D
0E
00
1C
3C
22
40
00
3E
43
83
FF
80
C0
C0
E1
72
3C
ENDCHAR
STARTCHAR 1EC6
ENCODING 7878
SWIDTH 630 0
DWIDTH 14 0
BBX 13 22 0 -4
BITMAP
0380
0440
0000
FFF0
3810
1810
1800
1800
1820
1820
1FE0
1820
1820
1800
1800
1808
3810
3FF0
4000
0200
0700
0200
ENDCHAR
STARTCHAR 1EC7
ENCODING 7879
SWIDTH 450 0
DWIDTH 10 0
BBX 8 19 1 -4
BITMAP
1C
3C
22
40
00
3E
43
83
FF
80
C0
C0
E1
72
3C
00
18
18
18
ENDCHAR
STARTCHAR 1EC8
ENCODING 7880
SWIDTH 315 0
DWIDTH 7 0
BBX 6 20 1 0
BITMAP
30
48
10
00
00
FC
30
30
30
30
30
30
30
30
30
30
30
30
30
78
ENDCHAR
STARTCHAR 1EC9
ENCODING 7881
SWIDTH 270 0
DWIDTH 6 0
BBX 4 15 1 0
BITMAP
70
50
20
00
00
60
E0
60
60
60
60
60
60
60
70
ENDCHAR
STARTCHAR 1ECA
ENCODING 7882
SWIDTH 315 0
DWIDTH 7 0
BBX 6 19 1 -4
BITMAP
FC
30
30
30
30
30
30
30
30
30
30
30
30
30
78
00
20
30
20
ENDCHAR
STARTCHAR 1ECB
ENCODING 7883
SWIDTH 270 0
DWIDTH 6 0
BBX 4 19 1 -4
BITMAP
60
60
00
00
00
60
E0
60
60
60
60
60
60
60
70
00
20
60
20
ENDCHAR
STARTCHAR 1ECC
ENCODING 7884
SWIDTH 720 0
DWIDTH 16 0
BBX 14 19 1 -4
BITMAP
0FC0
1060
3030
6018
E01C
C00C
C00C
C00C
C00C
C00C
E01C
6018
6018
3030
0CC0
0300
0300
0300
0300
ENDCHAR
STARTCHAR 1ECD
ENCODING 7885
SWIDTH 495 0
DWIDTH 11 0
BBX 9 14 1 -4
BITMAP
3E00
4300
C180
C180
C180
C180
C180
C180
6100
3600
0800
0800
1C00
0800
ENDCHAR
STARTCHAR 1ECE
ENCODING 7886
SWIDTH 720 0
DWIDTH 16 0
BBX 14 20 1 0
BITMAP
0300
0280
0100
0000
0000
0FC0
1060
3030
6018
E01C
C00C
C00C
C00C
C00C
C00C
E01C
6018
6018
3030
0FC0
ENDCHAR
STARTCHAR 1ECF
ENCODING 7887
SWIDTH 495 0
DWIDTH 11 0
BBX 9 15 1 0
BITMAP
1C00
1400
0800
0800
0000
3E00
4300
C180
C180
C180
C180
C180
C180
6100
3E00
ENDCHAR
STARTCHAR 1ED0
ENCODING 7888
SWIDTH 720 0
DWIDTH 16 0
BBX 14 20 1 0
BITMAP
0180
0000
0300
0480
0000
0FC0
1060
3030
6018
E01C
C00C
C00C
C00C
C00C
C00C
E01C
6018
6018
3030
0FC0
ENDCHAR
STARTCHAR 1ED1
ENCODING 7889
SWIDTH 495 0
DWIDTH 11 0
BBX 9 20 1 0
BITMAP
0600
0C00
0800
0000
0000
1C00
1600
2200
0100
0000
3E00
4300
C180
C180
C180
C180
C180
C180
6100
3E00
ENDCHAR
STARTCHAR 1ED2
ENCODING 7890
SWIDTH 720 0
DWIDTH 16 0
BBX 14 20 1 0
BITMAP
0300
0100
0300
0480
0000
0FC0
1060
3030
6018
E01C
C00C
C00C
C00C
C00C
C00C
E01C
6018
6018
3030
0FC0
ENDCHAR
STARTCHAR 1ED3
ENCODING 7891
SWIDTH 495 0
DWIDTH 11 0
BBX 9 20 1 0
BITMAP
3800
1800
0800
0400
0000
1C00
1600
2200
0100
0000
3E00
4300
C180
C180
C180
C180
C180
C180
6100
3E00
ENDCHAR
STARTCHAR 1ED4
ENCODING 7892
SWIDTH 720 0
DWIDTH 16 0
BBX 14 20 1 0
BITMAP
0300
0100
0300
0480
0000
0FC0
1060
3030
6018
E01C
C00C
C00C
C00C
C00C
C00C
E01C
6018
6018
3030
0FC0
ENDCHAR
STARTCHAR 1ED5
ENCODING 7893
SWIDTH 495 0
DWIDTH 11 0
BBX 9 20 1 0
BITMAP
0C00
1400
0400
0000
0000
1C00
1600
2200
0100
0000
3E00
4300
C180
C180
C180
C180
C180
C180
6100
3E00
ENDCHAR
STARTCHAR 1ED6
ENCODING 7894
SWIDTH 720 0
DWIDTH 16 0
BBX 14 20 1 0
BITMAP
0600
09C0
0300
0480
0000
0FC0
1060
3030
6018
E01C
C00C
C00C
C00C
C00C
C00C
E01C
6018
6018
3030
0FC0
ENDCHAR
STARTCHAR 1ED7
ENCODING 7895
SWIDTH 495 0
DWIDTH 11 0
BBX 9 19 1 0
BITMAP
3800
5F00
4600
0000
1C00
1600
2200
0100
0000
3E00
4300
C180
C180
C180
C180
C180
C180
6100
3E00
ENDCHAR
STARTCHAR 1ED8
ENCODING 7896
SWIDTH 720 0
DWIDTH 16 0
BBX 14 22 1 -4
BITMAP
0300
0480
0000
0FC0
1060
3030
6018
E01C
C00C
C00C
C00C
C00C
C00C
E01C
6018
6018
3030
0CC0
0300
0300
0300
0300
ENDCHAR
STARTCHAR 1ED9
ENCODING 7897
SWIDTH 495 0
DWIDTH 11 0
BBX 9 19 1 -4
BITMAP
1C00
1600
2200
0100
0000
3E00
4300
C180
C180
C180
C180
C180
C180
6100
3600
0800
0800
1C00
0800
ENDCHAR
STARTCHAR 1EDA
ENCODING 7898
SWIDTH 720 0
DWIDTH 16 0
BBX 14 19 1 0
BITMAP
00C0
0080
0108
000C
0FC8
1070
3030
6018
E01C
C00C
C00C
C00C
C00C
C00C
E01C
6018
6018
3030
0FC0
ENDCHAR
STARTCHAR 1EDB
ENCODING 7899
SWIDTH 540 0
DWIDTH 12 0
BBX 11 15 1 0
BITMAP
0600
0C00
0800
0000
0040
3E60
4360
C180
C180
C180
C180
C180
C180
6100
3E00
ENDCHAR
STARTCHAR 1EDC
ENCODING 7900
SWIDTH 720 0
DWIDTH 16 0
BBX 14 19 1 0
BITMAP
0700
0100
0108
000C
0FC8
1070
3030
6018
E01C
C00C
C00C
C00C
C00C
C00C
E01C
6018
6018
3030
0FC0
ENDCHAR
STARTCHAR 1EDD
ENCODING 7901
SWIDTH 540 0
DWIDTH 12 0
BBX 11 15 1 0
BITMAP
1800
1800
0800
0400
0040
3E60
4360
C180
C180
C180
C180
C180
C180
6100
3E00
ENDCHAR
STARTCHAR 1EDE
ENCODING 7902
SWIDTH 720 0
DWIDTH 16 0
BBX 14 20 1 0
BITMAP
0180
0280
0080
0008
000C
0FC8
1070
3030
6018
E01C
C00C
C00C
C00C
C00C
C00C
E01C
6018
6018
3030
0FC0
ENDCHAR
STARTCHAR 1EDF
ENCODING 7903
SWIDTH 540 0
DWIDTH 12 0
BBX 11 15 1 0
BITMAP
1C00
1400
0800
0800
0040
3E60
4360
C180
C180
C180
C180
C180
C180
6100
3E00
ENDCHAR
STARTCHAR 1EE0
ENCODING 7904
SWIDTH 720 0
DWIDTH 16 0
BBX 14 19 1 0
BITMAP
0600
07A0
09C8
000C
0FC8
1070
3030
6018
E01C
C00C
C00C
C00C
C00C
C00C
E01C
6018
6018
3030
0FC0
ENDCHAR
STARTCHAR 1EE1
ENCODING 7905
SWIDTH 540 0
DWIDTH 12 0
BBX 11 15 1 0
BITMAP
3000
7D00
4E00
0000
0040
3E60
4360
C180
C180
C180
C180
C180
C180
6100
3E00
ENDCHAR
STARTCHAR 1EE2
ENCODING 7906
SWIDTH 720 0
DWIDTH 16 0
BBX 14 21 1 -4
BITMAP
0008
000C
0FC8
1070
3030
6018
E01C
C00C
C00C
C00C
C00C
C00C
E01C
6018
6018
3030
0CC0
0300
0100
0380
0100
ENDCHAR
STARTCHAR 1EE3
ENCODING 7907
SWIDTH 540 0
DWIDTH 12 0
BBX 11 15 1 -4
BITMAP
0040
3E60
4360
C180
C180
C180
C180
C180
C180
6100
3600
0800
0800
1C00
0800
ENDCHAR
STARTCHAR 1EE4
ENCODING 7908
SWIDTH 720 0
DWIDTH 16 0
BBX 16 19 0 -4
BITMAP
FC1F
3004
3004
3004
3004
3004
3004
3004
3004
3004
3004
3808
1808
1818
0FE0
0000
0100
0180
0100
ENDCHAR
STARTCHAR 1EE5
ENCODING 7909
SWIDTH 495 0
DWIDTH 11 0
BBX 9 14 1 -4
BITMAP
E700
6100
6100
6100
6100
6100
6100
6100
6780
7980
0000
1800
1800
1800
ENDCHAR
STARTCHAR 1EE6
ENCODING 7910
SWIDTH 720 0
DWIDTH 16 0
BBX 16 20 0 0
BITMAP
0180
0240
0080
0000
0000
FC1F
3004
3004
3004
3004
3004
3004
3004
3004
3004
3004
3808
1808
1818
0FE0
ENDCHAR
STARTCHAR 1EE7
ENCODING 7911
SWIDTH 495 0
DWIDTH 11 0
BBX 9 15 1 0
BITMAP
1C00
1400
0800
0800
0000
E700
6100
6100
6100
6100
6100
6100
6100
6780
7980
ENDCHAR
STARTCHAR 1EE8
ENCODING 7912
SWIDTH 765 0
DWIDTH 17 0
BBX 18 19 0 0
BITMAP
00C000
018000
0100C0
0000C0
FC1F80
300400
300400
300400
300400
300400
300400
300400
300400
300400
300400
380800
180800
181800
0FE000
ENDCHAR
STARTCHAR 1EE9
ENCODING 7913
SWIDTH 540 0
DWIDTH 12 0
BBX 11 15 1 0
BITMAP
0C00
0800
0800
1000
0000
E760
6120
61C0
6100
6100
6100
6100
6100
6780
7980
ENDCHAR
STARTCHAR 1EEA
ENCODING 7914
SWIDTH 765 0
DWIDTH 17 0
BBX 18 19 0 0
BITMAP
038000
008000
0080C0
0000C0
FC1F80
300400
300400
300400
300400
300400
300400
300400
300400
300400
300400
380800
180800
181800
0FE000
ENDCHAR
STARTCHAR 1EEB
ENCODING 7915
SWIDTH 540 0
DWIDTH 12 0
BBX 11 15 1 0
BITMAP
1800
1800
0800
0400
0000
E760
6120
61C0
6100
6100
6100
6100
6100
6780
7980
ENDCHAR
STARTCHAR 1EEC
ENCODING 7916
SWIDTH 765 0
DWIDTH 17 0
BBX 18 20 0 0
BITMAP
018000
024000
008000
0000C0
0000C0
FC1F80
300400
300400
300400
300400
300400
300400
300400
300400
300400
300400
380800
180800
181800
0FE000
ENDCHAR
STARTCHAR 1EED
ENCODING 7917
SWIDTH 540 0
DWIDTH 12 0
BBX 11 15 1 0
BITMAP
1C00
1400
0800
0800
0000
E760
6120
61C0
6100
6100
6100
6100
6100
6780
7980
ENDCHAR
STARTCHAR 1EEE
ENCODING 7918
SWIDTH 765 0
DWIDTH 17 0
BBX 18 19 0 0
BITMAP
031000
07A000
00E0C0
0000C0
FC1F80
300400
300400
300400
300400
300400
300400
300400
300400
300400
300400
380800
180800
181800
0FE000
ENDCHAR
STARTCHAR 1EEF
ENCODING 7919
SWIDTH 540 0
DWIDTH 12 0
BBX 11 15 1 0
BITMAP
3000
7D00
4E00
0000
0000
E760
6120
61C0
6100
6100
6100
6100
6100
6780
7980
ENDCHAR
STARTCHAR 1EF0
ENCODING 7920
SWIDTH 765 0
DWIDTH 17 0
BBX 18 21 0 -4
BITMAP
0000C0
0000C0
FC1F80
300400
300400
300400
300400
300400
300400
300400
300400
300400
300400
380800
180800
181800
0FE000
000000
010000
018000
010000
ENDCHAR
STARTCHAR 1EF1
ENCODING 7921
SWIDTH 540 0
DWIDTH 12 0
BBX 11 14 1 -3
BITMAP
E760
6120
61C0
6100
6100
6100
6100
6100
6780
7980
0000
1800
1800
1800
ENDCHAR
STARTCHAR 1EF2
ENCODING 7922
SWIDTH 720 0
DWIDTH 16 0
BBX 16 20 0 0
BITMAP
0300
0100
0080
0000
0000
FC1F
380C
1808
1C10
0C10
0620
0740
0340
0180
0180
0180
0180
0180
0180
03C0
ENDCHAR
STARTCHAR 1EF3
ENCODING 7923
SWIDTH 495 0
DWIDTH 11 0
BBX 11 20 0 -5
BITMAP
0C00
0C00
0400
0200
0000
F0E0
3040
3080
1080
1900
1900
0D00
0E00
0600
0400
0400
0400
0800
7800
6000
ENDCHAR
STARTCHAR 1EF4
ENCODING 7924
SWIDTH 720 0
DWIDTH 16 0
BBX 16 19 0 -4
BITMAP
FC1F
380C
1808
1C10
0C10
0620
0740
0340
0180
0180
0180
0180
0180
0180
03C0
0000
0180
0180
0180
ENDCHAR
STARTCHAR 1EF5
ENCODING 7925
SWIDTH 495 0
DWIDTH 11 0
BBX 11 15 0 -5
BITMAP
F0E0
3040
3080
1080
1900
1900
0D00
0E00
0600
0400
0400
0580
0980
7980
6000
ENDCHAR
STARTCHAR 1EF6
ENCODING 7926
SWIDTH 720 0
DWIDTH 16 0
BBX 16 20 0 0
BITMAP
0180
0280
0080
0000
0000
FC1F
380C
1808
1C10
0C10
0620
0740
0340
0180
0180
0180
0180
0180
0180
03C0
ENDCHAR
STARTCHAR 1EF7
ENCODING 7927
SWIDTH 495 0
DWIDTH 11 0
BBX 11 20 0 -5
BITMAP
0E00
0A00
0200
0000
0000
F0E0
3040
3080
1080
1900
1900
0D00
0E00
0600
0400
0400
0400
0800
7800
6000
ENDCHAR
STARTCHAR 1EF8
ENCODING 7928
SWIDTH 720 0
DWIDTH 16 0
BBX 16 19 0 0
BITMAP
0200
07A0
00E0
0000
FC1F
380C
1808
1C10
0C10
0620
0740
0340
0180
0180
0180
0180
0180
0180
03C0
ENDCHAR
STARTCHAR 1EF9
ENCODING 7929
SWIDTH 495 0
DWIDTH 11 0
BBX 11 20 0 -5
BITMAP
1800
3E80
2700
0000
0000
F0E0
3040
3080
1080
1900
1900
0D00
0E00
0600
0400
0400
0400
0800
7800
6000
ENDCHAR
STARTCHAR 200C
ENCODING 8204
SWIDTH 0 0
DWIDTH 0 0
BBX 1 15 -1 -2
BITMAP
80
80
80
80
80
80
80
80
80
80
80
80
80
80
80
ENDCHAR
STARTCHAR 200D
ENCODING 8205
SWIDTH 0 0
DWIDTH 0 0
BBX 4 17 -2 -3
BITMAP
90
60
60
D0
40
40
40
40
40
40
40
40
40
40
40
40
40
ENDCHAR
STARTCHAR 200E
ENCODING 8206
SWIDTH 0 0
DWIDTH 0 0
BBX 4 17 0 -3
BITMAP
20
10
F0
A0
80
80
80
80
80
80
80
80
80
80
80
80
80
ENDCHAR
STARTCHAR 200F
ENCODING 8207
SWIDTH 0 0
DWIDTH 0 0
BBX 4 17 -4 -3
BITMAP
40
80
F0
50
10
10
10
10
10
10
10
10
10
10
10
10
10
ENDCHAR
STARTCHAR 2013
ENCODING 8211
SWIDTH 495 0
DWIDTH 11 0
BBX 11 1 0 4
BITMAP
FFE0
ENDCHAR
STARTCHAR 2014
ENCODING 8212
SWIDTH 990 0
DWIDTH 22 0
BBX 22 1 0 4
BITMAP
FFFFFC
ENDCHAR
STARTCHAR 2015
ENCODING 8213
SWIDTH 990 0
DWIDTH 22 0
BBX 21 2 1 5
BITMAP
FFFFF8
FFFFF8
ENDCHAR
STARTCHAR 2017
ENCODING 8215
SWIDTH 495 0
DWIDTH 11 0
BBX 11 3 0 -5
BITMAP
FFE0
0000
FFE0
ENDCHAR
STARTCHAR 2018
ENCODING 8216
SWIDTH 315 0
DWIDTH 7 0
BBX 3 6 2 9
BITMAP
20
C0
80
E0
E0
40
ENDCHAR
STARTCHAR 2019
ENCODING 8217
SWIDTH 315 0
DWIDTH 7 0
BBX 3 5 2 9
BITMAP
E0
E0
20
20
40
ENDCHAR
STARTCHAR 201A
ENCODING 8218
SWIDTH 315 0
DWIDTH 7 0
BBX 3 6 2 -4
BITMAP
E0
E0
20
20
40
80
ENDCHAR
STARTCHAR 201B
ENCODING 8219
SWIDTH 315 0
DWIDTH 7 0
BBX 3 5 2 9
BITMAP
60
E0
80
80
40
ENDCHAR
STARTCHAR 201C
ENCODING 8220
SWIDTH 450 0
DWIDTH 10 0
BBX 8 6 1 9
BITMAP
41
86
84
E7
E7
42
ENDCHAR
STARTCHAR 201D
ENCODING 8221
SWIDTH 450 0
DWIDTH 10 0
BBX 8 6 1 9
BITMAP
C7
E7
21
21
42
04
ENDCHAR
STARTCHAR 201E
ENCODING 8222
SWIDTH 450 0
DWIDTH 10 0
BBX 8 5 1 -3
BITMAP
C7
E7
21
21
42
ENDCHAR
STARTCHAR 2020
ENCODING 8224
SWIDTH 495 0
DWIDTH 11 0
BBX 9 20 1 -5
BITMAP
1C00
1C00
0800
0800
EB80
FF80
0800
0800
1C00
0800
0800
0800
0800
0800
0800
0800
0800
0800
0800
0800
ENDCHAR
STARTCHAR 2021
ENCODING 8225
SWIDTH 495 0
DWIDTH 11 0
BBX 8 20 2 -5
BITMAP
38
10
10
D2
FF
10
38
10
10
10
10
10
10
10
D6
FF
10
10
38
10
ENDCHAR
STARTCHAR 2022
ENCODING 8226
SWIDTH 360 0
DWIDTH 8 0
BBX 6 5 1 5
BITMAP
78
F8
FC
FC
78
ENDCHAR
STARTCHAR 2026
ENCODING 8230
SWIDTH 990 0
DWIDTH 22 0
BBX 17 2 3 0
BITMAP
C18380
C18380
ENDCHAR
STARTCHAR 202A
ENCODING 8234
SWIDTH 765 0
DWIDTH 17 0
BBX 11 14 3 0
BITMAP
FFE0
8020
8020
8020
8020
8020
8020
8020
8020
8020
8020
8020
8020
FFE0
ENDCHAR
STARTCHAR 202B
ENCODING 8235
SWIDTH 765 0
DWIDTH 17 0
BBX 11 14 3 0
BITMAP
FFE0
8020
8020
8020
8020
8020
8020
8020
8020
8020
8020
8020
8020
FFE0
ENDCHAR
STARTCHAR 202C
ENCODING 8236
SWIDTH 765 0
DWIDTH 17 0
BBX 11 14 3 0
BITMAP
FFE0
8020
8020
8020
8020
8020
8020
8020
8020
8020
8020
8020
8020
FFE0
ENDCHAR
STARTCHAR 202D
ENCODING 8237
SWIDTH 765 0
DWIDTH 17 0
BBX 11 14 3 0
BITMAP
FFE0
8020
8020
8020
8020
8020
8020
8020
8020
8020
8020
8020
8020
FFE0
ENDCHAR
STARTCHAR 202E
ENCODING 8238
SWIDTH 765 0
DWIDTH 17 0
BBX 11 14 3 0
BITMAP
FFE0
8020
8020
8020
8020
8020
8020
8020
8020
8020
8020
8020
8020
FFE0
ENDCHAR
STARTCHAR 2030
ENCODING 8240
SWIDTH 990 0
DWIDTH 22 0
BBX 20 16 1 -1
BITMAP
701000
C82000
CC2000
8C4000
8C8000
CD0000
C90000
320000
04F1E0
059910
099B10
118B10
119B10
219910
4091B0
406040
ENDCHAR
STARTCHAR 2032
ENCODING 8242
SWIDTH 225 0
DWIDTH 5 0
BBX 3 6 1 9
BITMAP
60
60
60
40
40
80
ENDCHAR
STARTCHAR 2033
ENCODING 8243
SWIDTH 405 0
DWIDTH 9 0
BBX 6 6 2 9
BITMAP
6C
CC
CC
C8
88
90
ENDCHAR
STARTCHAR 2039
ENCODING 8249
SWIDTH 315 0
DWIDTH 7 0
BBX 4 10 2 0
BITMAP
10
20
60
C0
C0
C0
40
60
20
10
ENDCHAR
STARTCHAR 203A
ENCODING 8250
SWIDTH 315 0
DWIDTH 7 0
BBX 5 10 1 0
BITMAP
80
40
20
30
18
18
30
20
40
80
ENDCHAR
STARTCHAR 203C
ENCODING 8252
SWIDTH 585 0
DWIDTH 13 0
BBX 8 15 2 0
BITMAP
63
E3
63
63
63
63
43
43
41
42
42
00
00
63
63
ENDCHAR
STARTCHAR 203E
ENCODING 8254
SWIDTH 315 0
DWIDTH 7 0
BBX 8 2 0 12
BITMAP
FF
FF
ENDCHAR
STARTCHAR 2044
ENCODING 8260
SWIDTH 180 0
DWIDTH 4 0
BBX 11 16 -4 -1
BITMAP
0020
0040
0040
0080
0100
0100
0200
0200
0400
0800
0800
1000
2000
2000
4000
8000
ENDCHAR
STARTCHAR 206A
ENCODING 8298
SWIDTH 765 0
DWIDTH 17 0
BBX 11 14 3 0
BITMAP
FFE0
8020
8020
8020
8020
8020
8020
8020
8020
8020
8020
8020
8020
FFE0
ENDCHAR
STARTCHAR 206B
ENCODING 8299
SWIDTH 765 0
DWIDTH 17 0
BBX 11 14 3 0
BITMAP
FFE0
8020
8020
8020
8020
8020
8020
8020
8020
8020
8020
8020
8020
FFE0
ENDCHAR
STARTCHAR 206C
ENCODING 8300
SWIDTH 765 0
DWIDTH 17 0
BBX 11 14 3 0
BITMAP
FFE0
8020
8020
8020
8020
8020
8020
8020
8020
8020
8020
8020
8020
FFE0
ENDCHAR
STARTCHAR 206D
ENCODING 8301
SWIDTH 765 0
DWIDTH 17 0
BBX 11 14 3 0
BITMAP
FFE0
8020
8020
8020
8020
8020
8020
8020
8020
8020
8020
8020
8020
FFE0
ENDCHAR
STARTCHAR 206E
ENCODING 8302
SWIDTH 765 0
DWIDTH 17 0
BBX 11 14 3 0
BITMAP
FFE0
8020
8020
8020
8020
8020
8020
8020
8020
8020
8020
8020
8020
FFE0
ENDCHAR
STARTCHAR 206F
ENCODING 8303
SWIDTH 765 0
DWIDTH 17 0
BBX 11 14 3 0
BITMAP
FFE0
8020
8020
8020
8020
8020
8020
8020
8020
8020
8020
8020
8020
FFE0
ENDCHAR
STARTCHAR 207F
ENCODING 8319
SWIDTH 315 0
DWIDTH 7 0
BBX 7 6 0 6
BITMAP
DC
64
44
44
44
EE
ENDCHAR
STARTCHAR 20A3
ENCODING 8355
SWIDTH 495 0
DWIDTH 11 0
BBX 10 15 0 0
BITMAP
FFC0
3840
3840
3800
3800
3880
3880
3F80
3880
3880
3800
FF00
3800
3800
7C00
ENDCHAR
STARTCHAR 20A4
ENCODING 8356
SWIDTH 495 0
DWIDTH 11 0
BBX 9 15 1 0
BITMAP
0F00
1180
3180
3000
3000
3000
FE00
3000
FE00
3000
3000
3000
E080
BF80
CF00
ENDCHAR
STARTCHAR 20A7
ENCODING 8359
SWIDTH 990 0
DWIDTH 22 0
BBX 21 15 0 0
BITMAP
FF0000
39C000
38E800
386800
387800
387EF8
38F908
39D908
3E1980
3818E0
381870
381818
381908
380908
7C0FF0
ENDCHAR
STARTCHAR 20AA
ENCODING 8362
SWIDTH 765 0
DWIDTH 17 0
BBX 14 11 2 0
BITMAP
FF8C
808C
80CC
80CC
88CC
88CC
88CC
880C
880C
8818
8FF0
ENDCHAR
STARTCHAR 20AB
ENCODING 8363
SWIDTH 495 0
DWIDTH 11 0
BBX 7 12 2 3
BITMAP
0C
04
1E
3C
44
C4
84
C4
C4
6C
32
FE
ENDCHAR
STARTCHAR 20AC
ENCODING 8364
SWIDTH 495 0
DWIDTH 11 0
BBX 10 15 0 0
BITMAP
0F80
1840
3040
3040
6000
6000
FF80
6000
FF80
6000
6000
6000
3040
3840
1F80
ENDCHAR
STARTCHAR 2105
ENCODING 8453
SWIDTH 855 0
DWIDTH 19 0
BBX 17 16 1 -1
BITMAP
780800
8C0800
801000
802000
804000
844000
E88000
710E00
011300
022180
042180
042180
082180
103100
101A00
200400
ENDCHAR
STARTCHAR 2113
ENCODING 8467
SWIDTH 495 0
DWIDTH 11 0
BBX 8 15 1 0
BITMAP
0E
12
32
32
32
34
38
30
30
30
70
B0
30
31
1E
ENDCHAR
STARTCHAR 2116
ENCODING 8470
SWIDTH 945 0
DWIDTH 21 0
BBX 20 15 0 0
BITMAP
3C0E00
0C1F00
0E1200
0E1000
0F1000
0B11E0
099330
09D310
08D310
08F310
087190
087060
083000
F83000
F013F0
ENDCHAR
STARTCHAR 2122
ENCODING 8482
SWIDTH 990 0
DWIDTH 22 0
BBX 21 9 0 6
BITMAP
7F7838
889830
082C70
082C70
0826B0
0826B0
082730
082330
1C3238
ENDCHAR
STARTCHAR 2126
ENCODING 8486
SWIDTH 765 0
DWIDTH 17 0
BBX 15 15 1 0
BITMAP
0FE0
1830
301C
600C
E00E
E00E
E00E
E00E
600E
600C
3018
1830
8442
FC7E
FC7E
ENDCHAR
STARTCHAR 212E
ENCODING 8494
SWIDTH 585 0
DWIDTH 13 0
BBX 11 12 1 0
BITMAP
0F00
30C0
4040
C060
C060
FFE0
C000
C000
C000
4020
6040
1F80
ENDCHAR
STARTCHAR 2153
ENCODING 8531
SWIDTH 765 0
DWIDTH 17 0
BBX 14 16 2 -1
BITMAP
4020
C020
4040
4080
4080
4100
4100
E200
0478
0408
0808
1038
100C
200C
4048
4070
ENDCHAR
STARTCHAR 2154
ENCODING 8532
SWIDTH 765 0
DWIDTH 17 0
BBX 16 16 0 -1
BITMAP
7808
8C08
0C10
0820
1020
2040
4440
FC80
011E
0102
0202
040E
0403
0803
1012
101C
ENDCHAR
STARTCHAR 215B
ENCODING 8539
SWIDTH 765 0
DWIDTH 17 0
BBX 14 16 2 -1
BITMAP
C010
4020
4040
4040
4080
4100
4100
E200
0478
0444
0868
0830
104C
2044
2044
4038
ENDCHAR
STARTCHAR 215C
ENCODING 8540
SWIDTH 765 0
DWIDTH 17 0
BBX 15 16 1 -1
BITMAP
F010
1010
1020
3040
1840
1880
1100
E100
023C
0222
0434
0818
0826
1022
2022
201C
ENDCHAR
STARTCHAR 215D
ENCODING 8541
SWIDTH 765 0
DWIDTH 17 0
BBX 15 16 1 -1
BITMAP
7810
4010
E020
3040
1840
0880
1100
E100
023C
0422
0434
0818
1026
1022
2022
201C
ENDCHAR
STARTCHAR 215E
ENCODING 8542
SWIDTH 765 0
DWIDTH 17 0
BBX 16 16 0 -1
BITMAP
7C08
8408
0810
0820
0820
1040
1080
0080
011E
0211
021A
040C
0813
0811
1011
100E
ENDCHAR
STARTCHAR 2190
ENCODING 8592
SWIDTH 990 0
DWIDTH 22 0
BBX 20 8 1 2
BITMAP
080000
180000
300000
600000
FFFFF0
700000
100000
080000
ENDCHAR
STARTCHAR 2191
ENCODING 8593
SWIDTH 495 0
DWIDTH 11 0
BBX 7 20 2 -5
BITMAP
10
10
38
7C
D6
10
10
10
10
10
10
10
10
10
10
10
10
10
10
10
ENDCHAR
STARTCHAR 2192
ENCODING 8594
SWIDTH 990 0
DWIDTH 22 0
BBX 20 8 1 2
BITMAP
000100
000080
0000C0
000060
FFFFF0
000060
0000C0
000180
ENDCHAR
STARTCHAR 2193
ENCODING 8595
SWIDTH 495 0
DWIDTH 11 0
BBX 7 20 2 -5
BITMAP
10
10
10
10
10
10
10
10
10
10
10
10
10
10
10
D6
7C
38
10
10
ENDCHAR
STARTCHAR 2194
ENCODING 8596
SWIDTH 990 0
DWIDTH 22 0
BBX 20 8 1 2
BITMAP
080100
180080
3000C0
600060
FFFFF0
700060
1000C0
080180
ENDCHAR
STARTCHAR 2195
ENCODING 8597
SWIDTH 495 0
DWIDTH 11 0
BBX 7 21 2 -5
BITMAP
10
18
38
7C
92
10
10
10
10
10
10
10
10
10
10
10
D6
7C
38
10
10
ENDCHAR
STARTCHAR 21A8
ENCODING 8616
SWIDTH 495 0
DWIDTH 11 0
BBX 7 23 2 -7
BITMAP
10
18
38
7C
92
10
10
10
10
10
10
10
10
10
10
10
D6
7C
38
10
10
00
FE
ENDCHAR
STARTCHAR 2202
ENCODING 8706
SWIDTH 495 0
DWIDTH 11 0
BBX 10 15 1 0
BITMAP
1F00
3180
0080
0040
0040
0E40
31C0
6040
4080
C080
C080
C100
C100
C200
7C00
ENDCHAR
STARTCHAR 2206
ENCODING 8710
SWIDTH 630 0
DWIDTH 14 0
BBX 12 14 1 1
BITMAP
0600
0600
0F00
0B00
0B00
1180
1180
21C0
20C0
40C0
4060
8060
8070
FFF0
ENDCHAR
STARTCHAR 220F
ENCODING 8719
SWIDTH 810 0
DWIDTH 18 0
BBX 18 20 0 -5
BITMAP
7FFF80
180700
180700
180700
180700
180700
180700
180700
180700
180700
180700
180700
180700
180700
180700
180700
180700
180700
180700
FE1FC0
ENDCHAR
STARTCHAR 2211
ENCODING 8721
SWIDTH 720 0
DWIDTH 16 0
BBX 15 20 0 -5
BITMAP
7FFC
3004
3802
1C00
0C00
0600
0700
0380
0180
0080
0100
0200
0200
0400
0800
1000
1002
2006
7FFE
FFFE
ENDCHAR
STARTCHAR 2212
ENCODING 8722
SWIDTH 585 0
DWIDTH 13 0
BBX 12 1 0 6
BITMAP
FFF0
ENDCHAR
STARTCHAR 2215
ENCODING 8725
SWIDTH 180 0
DWIDTH 4 0
BBX 11 16 -4 -1
BITMAP
0020
0040
0040
0080
0100
0100
0200
0200
0400
0800
0800
1000
2000
2000
4000
8000
ENDCHAR
STARTCHAR 2219
ENCODING 8729
SWIDTH 270 0
DWIDTH 6 0
BBX 2 3 2 6
BITMAP
80
C0
C0
ENDCHAR
STARTCHAR 221A
ENCODING 8730
SWIDTH 540 0
DWIDTH 12 0
BBX 11 20 1 -1
BITMAP
0020
0020
0020
0020
0040
0040
0040
0040
0040
7040
9080
1880
0880
0C80
0480
0680
0300
0300
0100
0100
ENDCHAR
STARTCHAR 221E
ENCODING 8734
SWIDTH 720 0
DWIDTH 16 0
BBX 14 9 1 1
BITMAP
30F0
C988
8704
8304
8604
8604
8D04
7C88
0070
ENDCHAR
STARTCHAR 221F
ENCODING 8735
SWIDTH 990 0
DWIDTH 22 0
BBX 14 14 4 0
BITMAP
8000
8000
8000
8000
8000
8000
8000
8000
8000
8000
8000
8000
8000
FFFC
ENDCHAR
STARTCHAR 2229
ENCODING 8745
SWIDTH 720 0
DWIDTH 16 0
BBX 12 15 2 0
BITMAP
0F00
30C0
6060
4020
C030
8010
8010
8010
8010
8010
8010
8010
8010
8010
8010
ENDCHAR
STARTCHAR 222B
ENCODING 8747
SWIDTH 270 0
DWIDTH 6 0
BBX 6 22 0 -2
BITMAP
1C
1C
20
20
30
30
30
30
30
30
30
30
30
30
30
30
30
30
10
10
E0
E0
ENDCHAR
STARTCHAR 2248
ENCODING 8776
SWIDTH 540 0
DWIDTH 12 0
BBX 12 8 0 3
BITMAP
7C10
8720
80C0
0000
0000
7810
4610
81E0
ENDCHAR
STARTCHAR 2260
ENCODING 8800
SWIDTH 540 0
DWIDTH 12 0
BBX 12 18 0 -3
BITMAP
0040
0080
0080
0080
0100
0100
FFF0
0200
0200
0400
0400
FFF0
0800
0800
1000
1000
1000
2000
ENDCHAR
STARTCHAR 2261
ENCODING 8801
SWIDTH 585 0
DWIDTH 13 0
BBX 12 8 0 3
BITMAP
FFF0
0000
0000
FFF0
0000
0000
0000
FFF0
ENDCHAR
STARTCHAR 2264
ENCODING 8804
SWIDTH 540 0
DWIDTH 12 0
BBX 12 15 0 -2
BITMAP
0030
01C0
0600
1800
E000
6000
1800
0700
00C0
0030
0000
0000
0000
0000
FFF0
ENDCHAR
STARTCHAR 2265
ENCODING 8805
SWIDTH 540 0
DWIDTH 12 0
BBX 12 15 0 -2
BITMAP
C000
3800
0600
01C0
0070
0070
0180
0E00
3800
C000
0000
0000
0000
0000
FFF0
ENDCHAR
STARTCHAR 2302
ENCODING 8962
SWIDTH 585 0
DWIDTH 13 0
BBX 10 12 2 1
BITMAP
0C00
1400
2200
4100
8080
8040
8040
8040
8040
8040
8040
FFC0
ENDCHAR
STARTCHAR 2310
ENCODING 8976
SWIDTH 585 0
DWIDTH 13 0
BBX 12 5 0 5
BITMAP
FFF0
8000
8000
8000
8000
ENDCHAR
STARTCHAR 2320
ENCODING 8992
SWIDTH 585 0
DWIDTH 13 0
BBX 5 25 6 -6
BITMAP
30
78
80
80
80
80
80
80
80
80
80
80
80
80
80
80
80
80
80
80
80
80
80
80
80
ENDCHAR
STARTCHAR 2321
ENCODING 8993
SWIDTH 585 0
DWIDTH 13 0
BBX 4 25 3 -6
BITMAP
10
10
10
10
10
10
10
10
10
10
10
10
10
10
10
10
10
10
10
10
10
10
90
E0
40
ENDCHAR
STARTCHAR 2500
ENCODING 9472
SWIDTH 720 0
DWIDTH 16 0
BBX 16 2 0 6
BITMAP
FFFF
FFFF
ENDCHAR
STARTCHAR 2502
ENCODING 9474
SWIDTH 720 0
DWIDTH 16 0
BBX 2 27 7 -7
BITMAP
C0
C0
C0
C0
C0
C0
C0
C0
C0
C0
C0
C0
C0
C0
C0
C0
C0
C0
C0
C0
C0
C0
C0
C0
C0
C0
C0
ENDCHAR
STARTCHAR 250C
ENCODING 9484
SWIDTH 720 0
DWIDTH 16 0
BBX 9 15 7 -7
BITMAP
FF80
FF80
C000
C000
C000
C000
C000
C000
C000
C000
C000
C000
C000
C000
C000
ENDCHAR
STARTCHAR 2510
ENCODING 9488
SWIDTH 720 0
DWIDTH 16 0
BBX 9 15 0 -7
BITMAP
FF80
FF80
0180
0180
0180
0180
0180
0180
0180
0180
0180
0180
0180
0180
0180
ENDCHAR
STARTCHAR 2514
ENCODING 9492
SWIDTH 720 0
DWIDTH 16 0
BBX 9 14 7 6
BITMAP
C000
C000
C000
C000
C000
C000
C000
C000
C000
C000
C000
C000
FF80
FF80
ENDCHAR
STARTCHAR 2518
ENCODING 9496
SWIDTH 720 0
DWIDTH 16 0
BBX 9 14 0 6
BITMAP
0180
0180
0180
0180
0180
0180
0180
0180
0180
0180
0180
0180
FF80
FF80
ENDCHAR
STARTCHAR 251C
ENCODING 9500
SWIDTH 720 0
DWIDTH 16 0
BBX 9 27 7 -7
BITMAP
C000
C000
C000
C000
C000
C000
C000
C000
C000
C000
C000
C000
FF80
FF80
C000
C000
C000
C000
C000
C000
C000
C000
C000
C000
C000
C000
C000
ENDCHAR
STARTCHAR 2524
ENCODING 9508
SWIDTH 720 0
DWIDTH 16 0
BBX 9 27 0 -7
BITMAP
0180
0180
0180
0180
0180
0180
0180
0180
0180
0180
0180
0180
FF80
FF80
0180
0180
0180
0180
0180
0180
0180
0180
0180
0180
0180
0180
0180
ENDCHAR
STARTCHAR 252C
ENCODING 9516
SWIDTH 720 0
DWIDTH 16 0
BBX 16 15 0 -7
BITMAP
FFFF
FFFF
0180
0180
0180
0180
0180
0180
0180
0180
0180
0180
0180
0180
0180
ENDCHAR
STARTCHAR 2534
ENCODING 9524
SWIDTH 720 0
DWIDTH 16 0
BBX 16 14 0 6
BITMAP
0180
0180
0180
0180
0180
0180
0180
0180
0180
0180
0180
0180
FFFF
FFFF
ENDCHAR
STARTCHAR 253C
ENCODING 9532
SWIDTH 720 0
DWIDTH 16 0
BBX 16 27 0 -7
BITMAP
0180
0180
0180
0180
0180
0180
0180
0180
0180
0180
0180
0180
FFFF
FFFF
0180
0180
0180
0180
0180
0180
0180
0180
0180
0180
0180
0180
0180
ENDCHAR
STARTCHAR 2550
ENCODING 9552
SWIDTH 720 0
DWIDTH 16 0
BBX 16 6 0 4
BITMAP
FFFF
FFFF
0000
0000
FFFF
FFFF
ENDCHAR
STARTCHAR 2551
ENCODING 9553
SWIDTH 720 0
DWIDTH 16 0
BBX 6 27 5 -7
BITMAP
CC
CC
CC
CC
CC
CC
CC
CC
CC
CC
CC
CC
CC
CC
CC
CC
CC
CC
CC
CC
CC
CC
CC
CC
CC
CC
CC
ENDCHAR
STARTCHAR 2552
ENCODING 9554
SWIDTH 720 0
DWIDTH 16 0
BBX 9 17 7 -7
BITMAP
FF80
FF80
C000
C000
FF80
FF80
C000
C000
C000
C000
C000
C000
C000
C000
C000
C000
C000
ENDCHAR
STARTCHAR 2553
ENCODING 9555
SWIDTH 720 0
DWIDTH 16 0
BBX 11 15 5 -7
BITMAP
FFE0
FFE0
CC00
CC00
CC00
CC00
CC00
CC00
CC00
CC00
CC00
CC00
CC00
CC00
CC00
ENDCHAR
STARTCHAR 2554
ENCODING 9556
SWIDTH 720 0
DWIDTH 16 0
BBX 11 17 5 -7
BITMAP
FFE0
FFE0
C000
C000
CFE0
CFE0
CC00
CC00
CC00
CC00
CC00
CC00
CC00
CC00
CC00
CC00
CC00
ENDCHAR
STARTCHAR 2555
ENCODING 9557
SWIDTH 720 0
DWIDTH 16 0
BBX 9 17 0 -7
BITMAP
FF80
FF80
0180
0180
FF80
FF80
0180
0180
0180
0180
0180
0180
0180
0180
0180
0180
0180
ENDCHAR
STARTCHAR 2556
ENCODING 9558
SWIDTH 720 0
DWIDTH 16 0
BBX 11 15 0 -7
BITMAP
FFE0
FFE0
0660
0660
0660
0660
0660
0660
0660
0660
0660
0660
0660
0660
0660
ENDCHAR
STARTCHAR 2557
ENCODING 9559
SWIDTH 720 0
DWIDTH 16 0
BBX 11 17 0 -7
BITMAP
FFE0
FFE0
0060
0060
FE60
FE60
0660
0660
0660
0660
0660
0660
0660
0660
0660
0660
0660
ENDCHAR
STARTCHAR 2558
ENCODING 9560
SWIDTH 720 0
DWIDTH 16 0
BBX 9 16 7 4
BITMAP
C000
C000
C000
C000
C000
C000
C000
C000
C000
C000
FF80
FF80
C000
C000
FF80
FF80
ENDCHAR
STARTCHAR 2559
ENCODING 9561
SWIDTH 720 0
DWIDTH 16 0
BBX 11 14 5 6
BITMAP
CC00
CC00
CC00
CC00
CC00
CC00
CC00
CC00
CC00
CC00
CC00
CC00
FFE0
FFE0
ENDCHAR
STARTCHAR 255A
ENCODING 9562
SWIDTH 720 0
DWIDTH 16 0
BBX 11 16 5 4
BITMAP
CC00
CC00
CC00
CC00
CC00
CC00
CC00
CC00
CC00
CC00
CFE0
CFE0
C000
C000
FFE0
FFE0
ENDCHAR
STARTCHAR 255B
ENCODING 9563
SWIDTH 720 0
DWIDTH 16 0
BBX 9 16 0 4
BITMAP
0180
0180
0180
0180
0180
0180
0180
0180
0180
0180
FF80
FF80
0180
0180
FF80
FF80
ENDCHAR
STARTCHAR 255C
ENCODING 9564
SWIDTH 720 0
DWIDTH 16 0
BBX 11 14 0 6
BITMAP
0660
0660
0660
0660
0660
0660
0660
0660
0660
0660
0660
0660
FFE0
FFE0
ENDCHAR
STARTCHAR 255D
ENCODING 9565
SWIDTH 720 0
DWIDTH 16 0
BBX 11 16 0 4
BITMAP
0660
0660
0660
0660
0660
0660
0660
0660
0660
0660
FE60
FE60
0060
0060
FFE0
FFE0
ENDCHAR
STARTCHAR 255E
ENCODING 9566
SWIDTH 720 0
DWIDTH 16 0
BBX 9 27 7 -7
BITMAP
C000
C000
C000
C000
C000
C000
C000
C000
C000
C000
FF80
FF80
C000
C000
FF80
FF80
C000
C000
C000
C000
C000
C000
C000
C000
C000
C000
C000
ENDCHAR
STARTCHAR 255F
ENCODING 9567
SWIDTH 720 0
DWIDTH 16 0
BBX 11 27 5 -7
BITMAP
CC00
CC00
CC00
CC00
CC00
CC00
CC00
CC00
CC00
CC00
CC00
CC00
CFE0
CFE0
CC00
CC00
CC00
CC00
CC00
CC00
CC00
CC00
CC00
CC00
CC00
CC00
CC00
ENDCHAR
STARTCHAR 2560
ENCODING 9568
SWIDTH 720 0
DWIDTH 16 0
BBX 11 27 5 -7
BITMAP
CC00
CC00
CC00
CC00
CC00
CC00
CC00
CC00
CC00
CC00
CFE0
CFE0
C000
C000
CFE0
CFE0
CC00
CC00
CC00
CC00
CC00
CC00
CC00
CC00
CC00
CC00
CC00
ENDCHAR
STARTCHAR 2561
ENCODING 9569
SWIDTH 720 0
DWIDTH 16 0
BBX 9 27 0 -7
BITMAP
0180
0180
0180
0180
0180
0180
0180
0180
0180
0180
FF80
FF80
0180
0180
FF80
FF80
0180
0180
0180
0180
0180
0180
0180
0180
0180
0180
0180
ENDCHAR
STARTCHAR 2562
ENCODING 9570
SWIDTH 720 0
DWIDTH 16 0
BBX 11 27 0 -7
BITMAP
0660
0660
0660
0660
0660
0660
0660
0660
0660
0660
0660
0660
FE60
FE60
0660
0660
0660
0660
0660
0660
0660
0660
0660
0660
0660
0660
0660
ENDCHAR
STARTCHAR 2563
ENCODING 9571
SWIDTH 720 0
DWIDTH 16 0
BBX 11 27 0 -7
BITMAP
0660
0660
0660
0660
0660
0660
0660
0660
0660
0660
FE60
FE60
0060
0060
FE60
FE60
0660
0660
0660
0660
0660
0660
0660
0660
0660
0660
0660
ENDCHAR
STARTCHAR 2564
ENCODING 9572
SWIDTH 720 0
DWIDTH 16 0
BBX 16 17 0 -7
BITMAP
FFFF
FFFF
0000
0000
FFFF
FFFF
0180
0180
0180
0180
0180
0180
0180
0180
0180
0180
0180
ENDCHAR
STARTCHAR 2565
ENCODING 9573
SWIDTH 720 0
DWIDTH 16 0
BBX 16 15 0 -7
BITMAP
FFFF
FFFF
0660
0660
0660
0660
0660
0660
0660
0660
0660
0660
0660
0660
0660
ENDCHAR
STARTCHAR 2566
ENCODING 9574
SWIDTH 720 0
DWIDTH 16 0
BBX 16 17 0 -7
BITMAP
FFFF
FFFF
0000
0000
FE7F
FE7F
0660
0660
0660
0660
0660
0660
0660
0660
0660
0660
0660
ENDCHAR
STARTCHAR 2567
ENCODING 9575
SWIDTH 720 0
DWIDTH 16 0
BBX 16 16 0 4
BITMAP
0180
0180
0180
0180
0180
0180
0180
0180
0180
0180
FFFF
FFFF
0000
0000
FFFF
FFFF
ENDCHAR
STARTCHAR 2568
ENCODING 9576
SWIDTH 720 0
DWIDTH 16 0
BBX 16 14 0 6
BITMAP
0660
0660
0660
0660
0660
0660
0660
0660
0660
0660
0660
0660
FFFF
FFFF
ENDCHAR
STARTCHAR 2569
ENCODING 9577
SWIDTH 720 0
DWIDTH 16 0
BBX 16 16 0 4
BITMAP
0660
0660
0660
0660
0660
0660
0660
0660
0660
0660
FE7F
FE7F
0000
0000
FFFF
FFFF
ENDCHAR
STARTCHAR 256A
ENCODING 9578
SWIDTH 720 0
DWIDTH 16 0
BBX 16 27 0 -7
BITMAP
0180
0180
0180
0180
0180
0180
0180
0180
0180
0180
FFFF
FFFF
0180
0180
FFFF
FFFF
0180
0180
0180
0180
0180
0180
0180
0180
0180
0180
0180
ENDCHAR
STARTCHAR 256B
ENCODING 9579
SWIDTH 720 0
DWIDTH 16 0
BBX 16 27 0 -7
BITMAP
0660
0660
0660
0660
0660
0660
0660
0660
0660
0660
0660
0660
FFFF
FFFF
0660
0660
0660
0660
0660
0660
0660
0660
0660
0660
0660
0660
0660
ENDCHAR
STARTCHAR 256C
ENCODING 9580
SWIDTH 720 0
DWIDTH 16 0
BBX 16 27 0 -7
BITMAP
0660
0660
0660
0660
0660
0660
0660
0660
0660
0660
FE7F
FE7F
0000
0000
FE7F
FE7F
0660
0660
0660
0660
0660
0660
0660
0660
0660
0660
0660
ENDCHAR
STARTCHAR 2580
ENCODING 9600
SWIDTH 720 0
DWIDTH 16 0
BBX 16 13 0 7
BITMAP
FFFF
FFFF
FFFF
FFFF
FFFF
FFFF
FFFF
FFFF
FFFF
FFFF
FFFF
FFFF
FFFF
ENDCHAR
STARTCHAR 2584
ENCODING 9604
SWIDTH 720 0
DWIDTH 16 0
BBX 16 14 0 -7
BITMAP
FFFF
FFFF
FFFF
FFFF
FFFF
FFFF
FFFF
FFFF
FFFF
FFFF
FFFF
FFFF
FFFF
FFFF
ENDCHAR
STARTCHAR 2588
ENCODING 9608
SWIDTH 720 0
DWIDTH 16 0
BBX 16 27 0 -7
BITMAP
FFFF
FFFF
FFFF
FFFF
FFFF
FFFF
FFFF
FFFF
FFFF
FFFF
FFFF
FFFF
FFFF
FFFF
FFFF
FFFF
FFFF
FFFF
FFFF
FFFF
FFFF
FFFF
FFFF
FFFF
FFFF
FFFF
FFFF
ENDCHAR
STARTCHAR 258C
ENCODING 9612
SWIDTH 720 0
DWIDTH 16 0
BBX 8 27 0 -7
BITMAP
FF
FF
FF
FF
FF
FF
FF
FF
FF
FF
FF
FF
FF
FF
FF
FF
FF
FF
FF
FF
FF
FF
FF
FF
FF
FF
FF
ENDCHAR
STARTCHAR 2590
ENCODING 9616
SWIDTH 720 0
DWIDTH 16 0
BBX 8 27 8 -7
BITMAP
FF
FF
FF
FF
FF
FF
FF
FF
FF
FF
FF
FF
FF
FF
FF
FF
FF
FF
FF
FF
FF
FF
FF
FF
FF
FF
FF
ENDCHAR
STARTCHAR 2591
ENCODING 9617
SWIDTH 720 0
DWIDTH 16 0
BBX 15 25 1 -5
BITMAP
8610
0000
10C2
10C2
0000
8610
8610
0000
10C2
0000
0000
8610
0000
10C2
10C2
0000
8610
0000
0000
10C2
0000
8610
8610
0000
10C2
ENDCHAR
STARTCHAR 2592
ENCODING 9618
SWIDTH 720 0
DWIDTH 16 0
BBX 16 25 0 -5
BITMAP
4969
0000
B696
B696
0000
4969
4969
0000
B696
0000
0000
4969
0000
B696
B696
0000
4969
0000
0000
B696
0000
4969
4969
0000
B696
ENDCHAR
STARTCHAR 2593
ENCODING 9619
SWIDTH 720 0
DWIDTH 16 0
BBX 16 27 0 -7
BITMAP
696D
FFFF
9696
9696
FFFF
696D
696D
FFFF
9696
FFFF
FFFF
696D
FFFF
9696
9696
FFFF
696D
FFFF
FFFF
9696
FFFF
696D
696D
FFFF
9696
FFFF
FFFF
ENDCHAR
STARTCHAR 25A0
ENCODING 9632
SWIDTH 585 0
DWIDTH 13 0
BBX 10 10 2 0
BITMAP
FFC0
FFC0
FFC0
FFC0
FFC0
FFC0
FFC0
FFC0
FFC0
FFC0
ENDCHAR
STARTCHAR 25A1
ENCODING 9633
SWIDTH 585 0
DWIDTH 13 0
BBX 10 10 2 0
BITMAP
FFC0
8040
8040
8040
8040
8040
8040
8040
8040
FFC0
ENDCHAR
STARTCHAR 25AA
ENCODING 9642
SWIDTH 360 0
DWIDTH 8 0
BBX 5 5 1 5
BITMAP
F8
F8
F8
F8
F8
ENDCHAR
STARTCHAR 25AB
ENCODING 9643
SWIDTH 360 0
DWIDTH 8 0
BBX 5 5 1 5
BITMAP
F8
88
88
88
F8
ENDCHAR
STARTCHAR 25AC
ENCODING 9644
SWIDTH 990 0
DWIDTH 22 0
BBX 22 5 0 3
BITMAP
FFFFFC
FFFFFC
FFFFFC
FFFFFC
FFFFFC
ENDCHAR
STARTCHAR 25B2
ENCODING 9650
SWIDTH 990 0
DWIDTH 22 0
BBX 14 15 4 0
BITMAP
0200
0300
0300
0780
0780
0FC0
0FC0
1FE0
1FE0
3FF0
3FF0
7FF8
7FF8
FFFC
FFFC
ENDCHAR
STARTCHAR 25BA
ENCODING 9658
SWIDTH 990 0
DWIDTH 22 0
BBX 16 15 3 0
BITMAP
C000
F000
FC00
FF00
FFC0
FFF0
FFFC
FFFF
FFFC
FFF0
FFC0
FF00
FC00
F000
C000
ENDCHAR
STARTCHAR 25BC
ENCODING 9660
SWIDTH 990 0
DWIDTH 22 0
BBX 14 15 4 0
BITMAP
FFFC
FFFC
7FF8
7FF8
3FF0
3FF0
1FE0
1FE0
0FC0
0FC0
0780
0780
0300
0300
0200
ENDCHAR
STARTCHAR 25C4
ENCODING 9668
SWIDTH 990 0
DWIDTH 22 0
BBX 16 15 3 0
BITMAP
0003
000F
003F
00FF
03FF
0FFF
3FFF
FFFF
3FFF
0FFF
03FF
00FF
003F
000F
0003
ENDCHAR
STARTCHAR 25CA
ENCODING 9674
SWIDTH 495 0
DWIDTH 11 0
BBX 9 15 1 0
BITMAP
1800
1400
2600
2200
4100
C100
8080
8080
8080
4100
4300
2200
3400
1400
1800
ENDCHAR
STARTCHAR 25CB
ENCODING 9675
SWIDTH 585 0
DWIDTH 13 0
BBX 9 10 2 1
BITMAP
1E00
6100
8080
8080
8080
8080
8080
4080
2300
1C00
ENDCHAR
STARTCHAR 25CF
ENCODING 9679
SWIDTH 585 0
DWIDTH 13 0
BBX 9 10 2 1
BITMAP
1E00
7F00
FF80
FF80
FF80
FF80
FF80
7F80
3F00
0800
ENDCHAR
STARTCHAR 25D8
ENCODING 9688
SWIDTH 585 0
DWIDTH 13 0
BBX 11 11 1 0
BITMAP
FFE0
FFE0
FFE0
FFE0
F0E0
F0E0
F0E0
F1E0
FFE0
FFE0
FFE0
ENDCHAR
STARTCHAR 25D9
ENCODING 9689
SWIDTH 585 0
DWIDTH 13 0
BBX 13 13 0 0
BITMAP
FFF8
FFF8
F878
EFB8
DFD8
DFD8
DFF8
DFF8
DFD8
EFD8
F738
FDF8
FFF8
ENDCHAR
STARTCHAR 25E6
ENCODING 9702
SWIDTH 360 0
DWIDTH 8 0
BBX 6 5 1 5
BITMAP
78
88
84
84
78
ENDCHAR
STARTCHAR 263A
ENCODING 9786
SWIDTH 1035 0
DWIDTH 23 0
BBX 14 14 4 -1
BITMAP
0100
0EE0
3010
2008
400C
4864
8864
8004
4004
4804
444C
2388
1030
0FE0
ENDCHAR
STARTCHAR 263B
ENCODING 9787
SWIDTH 1035 0
DWIDTH 23 0
BBX 14 14 5 -1
BITMAP
0200
1FC0
3FF0
7FF0
FFF8
E7B8
E7BC
FFFC
FFFC
FFB8
7778
78F0
3FE0
1FC0
ENDCHAR
STARTCHAR 263C
ENCODING 9788
SWIDTH 900 0
DWIDTH 20 0
BBX 20 20 0 -2
BITMAP
002000
002000
002000
102040
08F880
070500
040200
080100
080100
080080
F800F0
080100
080100
040100
040200
070D00
08F080
102040
002000
002000
ENDCHAR
STARTCHAR 2640
ENCODING 9792
SWIDTH 765 0
DWIDTH 17 0
BBX 11 21 3 -5
BITMAP
3F00
40C0
8040
8020
8020
8020
8020
8020
8040
4080
3F00
0400
0400
0400
0400
FFE0
0400
0400
0400
0400
0400
ENDCHAR
STARTCHAR 2642
ENCODING 9794
SWIDTH 765 0
DWIDTH 17 0
BBX 14 20 1 -2
BITMAP
0038
00D8
0328
0024
0044
0044
0084
0080
0480
1B80
6040
4020
8020
8010
8010
8020
8020
4040
2040
1F80
ENDCHAR
STARTCHAR 2660
ENCODING 9824
SWIDTH 540 0
DWIDTH 12 0
BBX 10 12 1 1
BITMAP
0C00
0C00
1E00
7F00
FF80
FFC0
FFC0
FFC0
7B80
0800
0C00
3F00
ENDCHAR
STARTCHAR 2663
ENCODING 9827
SWIDTH 675 0
DWIDTH 15 0
BBX 13 13 1 0
BITMAP
0F00
1F80
1F80
1F80
7FF0
FFF8
FFF8
FFF8
FDF8
72F0
0600
0700
3FC0
ENDCHAR
STARTCHAR 2665
ENCODING 9829
SWIDTH 585 0
DWIDTH 13 0
BBX 11 13 1 0
BITMAP
F9E0
FBE0
FFE0
FFE0
FFE0
7FC0
3FC0
3F80
1F00
0E00
0E00
0400
0400
ENDCHAR
STARTCHAR 2666
ENCODING 9830
SWIDTH 495 0
DWIDTH 11 0
BBX 10 13 1 0
BITMAP
0800
1C00
1E00
3E00
7F00
FF80
FFC0
7F80
7F00
3E00
1C00
0C00
0800
ENDCHAR
STARTCHAR 266A
ENCODING 9834
SWIDTH 495 0
DWIDTH 11 0
BBX 11 15 0 0
BITMAP
0780
07C0
07C0
0460
0420
0420
0400
0400
0400
0400
3C00
7C00
FC00
FC00
7800
ENDCHAR
STARTCHAR 266B
ENCODING 9835
SWIDTH 765 0
DWIDTH 17 0
BBX 13 17 1 -1
BITMAP
0038
01F8
07F8
07C8
0408
0408
0408
0408
0408
0408
0478
04F8
35F8
FCF8
FCF0
FC00
F800
ENDCHAR
STARTCHAR E801
ENCODING 59393
SWIDTH 270 0
DWIDTH 6 0
BBX 6 15 -1 0
BITMAP
C0
C0
00
20
3C
3C
04
04
04
04
04
04
04
04
04
ENDCHAR
STARTCHAR E802
ENCODING 59394
SWIDTH 450 0
DWIDTH 10 0
BBX 8 16 1 -4
BITMAP
80
FF
FF
02
02
02
32
32
02
32
02
02
02
03
03
02
ENDCHAR
STARTCHAR E803
ENCODING 59395
SWIDTH 450 0
DWIDTH 10 0
BBX 8 16 1 -4
BITMAP
80
FF
FF
02
02
02
02
7A
22
32
02
02
02
03
03
02
ENDCHAR
STARTCHAR E804
ENCODING 59396
SWIDTH 450 0
DWIDTH 10 0
BBX 11 17 -2 0
BITMAP
2000
3000
D000
D000
1000
1000
1FC0
1FE0
0020
0020
0020
0040
0080
0100
0100
0200
0200
ENDCHAR
STARTCHAR E805
ENCODING 59397
SWIDTH 450 0
DWIDTH 10 0
BBX 11 17 -2 0
BITMAP
2000
3000
D000
D000
1000
1000
1FC0
1FE0
0020
0020
0020
0640
0080
0100
0100
0200
0200
ENDCHAR
STARTCHAR E818
ENCODING 59416
SWIDTH 225 0
DWIDTH 5 0
BBX 4 7 1 13
BITMAP
60
80
E0
10
50
E0
80
ENDCHAR
STARTCHAR E83A
ENCODING 59450
SWIDTH 630 0
DWIDTH 14 0
BBX 15 2 -1 3
BITMAP
FFFE
FFFE
ENDCHAR
STARTCHAR F001
ENCODING 61441
SWIDTH 540 0
DWIDTH 12 0
BBX 11 15 0 0
BITMAP
0F80
10C0
1000
3000
3000
FFC0
30C0
30C0
30C0
30C0
30C0
30C0
30C0
30C0
78E0
ENDCHAR
STARTCHAR F002
ENCODING 61442
SWIDTH 540 0
DWIDTH 12 0
BBX 11 15 0 0
BITMAP
0FC0
11C0
30C0
30C0
30C0
FFC0
30C0
30C0
30C0
30C0
30C0
30C0
30C0
30C0
78E0
ENDCHAR
STARTCHAR F004
ENCODING 61444
SWIDTH 315 0
DWIDTH 7 0
BBX 3 4 2 -5
BITMAP
C0
E0
20
40
ENDCHAR
STARTCHAR F005
ENCODING 61445
SWIDTH 315 0
DWIDTH 7 0
BBX 2 3 3 -4
BITMAP
C0
40
C0
ENDCHAR
STARTCHAR F006
ENCODING 61446
SWIDTH 0 0
DWIDTH 0 0
BBX 3 2 -5 18
BITMAP
60
80
ENDCHAR
STARTCHAR F007
ENCODING 61447
SWIDTH 0 0
DWIDTH 0 0
BBX 3 2 -8 18
BITMAP
60
80
ENDCHAR
STARTCHAR F008
ENCODING 61448
SWIDTH 0 0
DWIDTH 0 0
BBX 3 3 -4 11
BITMAP
60
C0
80
ENDCHAR
STARTCHAR F009
ENCODING 61449
SWIDTH 0 0
DWIDTH 0 0
BBX 3 4 -6 16
BITMAP
60
40
C0
80
ENDCHAR
STARTCHAR F00A
ENCODING 61450
SWIDTH 765 0
DWIDTH 17 0
BBX 11 14 3 0
BITMAP
FFE0
8020
8020
8020
8020
8020
8020
8020
8020
8020
8020
8020
8020
FFE0
ENDCHAR
STARTCHAR F00B
ENCODING 61451
SWIDTH 765 0
DWIDTH 17 0
BBX 11 14 3 0
BITMAP
FFE0
8020
8020
8020
8020
8020
8020
8020
8020
8020
8020
8020
8020
FFE0
ENDCHAR
STARTCHAR F00C
ENCODING 61452
SWIDTH 765 0
DWIDTH 17 0
BBX 11 14 3 0
BITMAP
FFE0
8020
8020
8020
8020
8020
8020
8020
8020
8020
8020
8020
8020
FFE0
ENDCHAR
STARTCHAR F00D
ENCODING 61453
SWIDTH 765 0
DWIDTH 17 0
BBX 11 14 3 0
BITMAP
FFE0
8020
8020
8020
8020
8020
8020
8020
8020
8020
8020
8020
8020
FFE0
ENDCHAR
STARTCHAR F00E
ENCODING 61454
SWIDTH 765 0
DWIDTH 17 0
BBX 11 14 3 0
BITMAP
FFE0
8020
8020
8020
8020
8020
8020
8020
8020
8020
8020
8020
8020
FFE0
ENDCHAR
STARTCHAR F00F
ENCODING 61455
SWIDTH 0 0
DWIDTH 0 0
BBX 3 3 -7 11
BITMAP
E0
60
20
ENDCHAR
STARTCHAR F010
ENCODING 61456
SWIDTH 0 0
DWIDTH 0 0
BBX 2 2 -5 18
BITMAP
C0
40
ENDCHAR
STARTCHAR F011
ENCODING 61457
SWIDTH 0 0
DWIDTH 0 0
BBX 2 2 -9 18
BITMAP
C0
40
ENDCHAR
STARTCHAR F012
ENCODING 61458
SWIDTH 0 0
DWIDTH 0 0
BBX 3 3 -4 11
BITMAP
C0
20
40
ENDCHAR
STARTCHAR F013
ENCODING 61459
SWIDTH 0 0
DWIDTH 0 0
BBX 3 3 -6 16
BITMAP
C0
A0
40
ENDCHAR
STARTCHAR F014
ENCODING 61460
SWIDTH 0 0
DWIDTH 0 0
BBX 3 3 -6 11
BITMAP
C0
A0
40
ENDCHAR
STARTCHAR F015
ENCODING 61461
SWIDTH 0 0
DWIDTH 0 0
BBX 6 2 -11 18
BITMAP
60
9C
ENDCHAR
STARTCHAR F016
ENCODING 61462
SWIDTH 0 0
DWIDTH 0 0
BBX 6 3 -11 17
BITMAP
40
F4
3C
ENDCHAR
STARTCHAR F017
ENCODING 61463
SWIDTH 0 0
DWIDTH 0 0
BBX 6 3 -11 17
BITMAP
40
F4
3C
ENDCHAR
STARTCHAR F018
ENCODING 61464
SWIDTH 0 0
DWIDTH 0 0
BBX 7 3 -13 17
BITMAP
20
7A
9E
ENDCHAR
STARTCHAR F019
ENCODING 61465
SWIDTH 0 0
DWIDTH 0 0
BBX 7 3 -8 12
BITMAP
62
F4
1C
ENDCHAR
STARTCHAR F01A
ENCODING 61466
SWIDTH 0 0
DWIDTH 0 0
BBX 7 3 -10 12
BITMAP
20
7A
9E
ENDCHAR
STARTCHAR F01B
ENCODING 61467
SWIDTH 0 0
DWIDTH 0 0
BBX 7 3 -10 12
BITMAP
62
F4
1C
ENDCHAR
STARTCHAR F01C
ENCODING 61468
SWIDTH 0 0
DWIDTH 0 0
BBX 7 3 -7 17
BITMAP
60
FA
9C
ENDCHAR
STARTCHAR F01D
ENCODING 61469
SWIDTH 0 0
DWIDTH 0 0
BBX 7 3 -7 12
BITMAP
60
7A
9C
ENDCHAR
STARTCHAR F01E
ENCODING 61470
SWIDTH 0 0
DWIDTH 0 0
BBX 2 3 -8 -4
BITMAP
40
C0
40
ENDCHAR
STARTCHAR F01F
ENCODING 61471
SWIDTH 0 0
DWIDTH 0 0
BBX 2 3 -9 -4
BITMAP
C0
C0
C0
ENDCHAR
STARTCHAR F020
ENCODING 61472
SWIDTH 0 0
DWIDTH 0 0
BBX 2 3 -9 -4
BITMAP
C0
C0
C0
ENDCHAR
STARTCHAR F021
ENCODING 61473
SWIDTH 0 0
DWIDTH 0 0
BBX 2 3 -9 -4
BITMAP
C0
C0
C0
ENDCHAR
STARTCHAR F022
ENCODING 61474
SWIDTH 0 0
DWIDTH 0 0
BBX 2 3 -10 -4
BITMAP
80
C0
C0
ENDCHAR
STARTCHAR F023
ENCODING 61475
SWIDTH 0 0
DWIDTH 0 0
BBX 2 3 -6 -4
BITMAP
C0
C0
C0
ENDCHAR
STARTCHAR F024
ENCODING 61476
SWIDTH 0 0
DWIDTH 0 0
BBX 3 3 -6 -4
BITMAP
40
E0
40
ENDCHAR
STARTCHAR F025
ENCODING 61477
SWIDTH 0 0
DWIDTH 0 0
BBX 3 3 -7 -4
BITMAP
40
E0
40
ENDCHAR
STARTCHAR F026
ENCODING 61478
SWIDTH 0 0
DWIDTH 0 0
BBX 3 3 -8 -4
BITMAP
40
E0
40
ENDCHAR
STARTCHAR F027
ENCODING 61479
SWIDTH 0 0
DWIDTH 0 0
BBX 3 3 -7 -4
BITMAP
40
E0
40
ENDCHAR
STARTCHAR F028
ENCODING 61480
SWIDTH 0 0
DWIDTH 0 0
BBX 3 3 -8 -4
BITMAP
40
E0
40
ENDCHAR
STARTCHAR F029
ENCODING 61481
SWIDTH 0 0
DWIDTH 0 0
BBX 3 3 -5 -4
BITMAP
40
E0
40
ENDCHAR
STARTCHAR F02A
ENCODING 61482
SWIDTH 0 0
DWIDTH 0 0
BBX 2 3 -4 -4
BITMAP
80
C0
80
ENDCHAR
STARTCHAR F02B
ENCODING 61483
SWIDTH 0 0
DWIDTH 0 0
BBX 2 3 -9 -4
BITMAP
40
C0
40
ENDCHAR
STARTCHAR F02C
ENCODING 61484
SWIDTH 0 0
DWIDTH 0 0
BBX 3 3 -4 -4
BITMAP
40
E0
40
ENDCHAR
STARTCHAR F02D
ENCODING 61485
SWIDTH 0 0
DWIDTH 0 0
BBX 7 2 -10 18
BITMAP
72
9C
ENDCHAR
STARTCHAR F02E
ENCODING 61486
SWIDTH 0 0
DWIDTH 0 0
BBX 7 3 -10 17
BITMAP
60
FA
1C
ENDCHAR
STARTCHAR F02F
ENCODING 61487
SWIDTH 0 0
DWIDTH 0 0
BBX 6 2 -11 18
BITMAP
60
9C
ENDCHAR
STARTCHAR F030
ENCODING 61488
SWIDTH 0 0
DWIDTH 0 0
BBX 7 3 -12 17
BITMAP
20
7A
9E
ENDCHAR
STARTCHAR F031
ENCODING 61489
SWIDTH 270 0
DWIDTH 6 0
BBX 4 10 1 0
BITMAP
60
E0
60
60
60
60
60
60
60
70
ENDCHAR
STARTCHAR FB01
ENCODING 64257
SWIDTH 540 0
DWIDTH 12 0
BBX 11 15 0 0
BITMAP
0F80
10C0
1000
3000
3000
FFC0
30C0
30C0
30C0
30C0
30C0
30C0
30C0
30C0
78E0
ENDCHAR
STARTCHAR FB02
ENCODING 64258
SWIDTH 540 0
DWIDTH 12 0
BBX 11 15 0 0
BITMAP
0FC0
11C0
30C0
30C0
30C0
FFC0
30C0
30C0
30C0
30C0
30C0
30C0
30C0
30C0
78E0
ENDCHAR
STARTCHAR FB1D
ENCODING 64285
SWIDTH 270 0
DWIDTH 6 0
BBX 4 10 1 2
BITMAP
80
F0
F0
10
10
10
20
00
40
60
ENDCHAR
STARTCHAR FB1E
ENCODING 64286
SWIDTH 0 0
DWIDTH 0 0
BBX 6 3 -3 13
BITMAP
84
7C
30
ENDCHAR
STARTCHAR FB1F
ENCODING 64287
SWIDTH 540 0
DWIDTH 12 0
BBX 10 9 1 3
BITMAP
8200
F3C0
F3C0
1040
1040
1080
2080
0000
3FC0
ENDCHAR
STARTCHAR FB20
ENCODING 64288
SWIDTH 450 0
DWIDTH 10 0
BBX 8 12 1 0
BITMAP
86
E7
E7
41
42
62
32
12
14
14
FC
F8
ENDCHAR
STARTCHAR FB2A
ENCODING 64298
SWIDTH 630 0
DWIDTH 14 0
BBX 12 15 1 0
BITMAP
0020
0020
0000
CC60
EE70
E670
8420
8420
8840
8840
4880
5080
5180
3F00
3F00
ENDCHAR
STARTCHAR FB2B
ENCODING 64299
SWIDTH 630 0
DWIDTH 14 0
BBX 12 15 1 0
BITMAP
4000
C000
0000
CC60
EE70
E670
8420
8420
8840
8840
4880
5080
5180
3F00
3F00
ENDCHAR
STARTCHAR FB2C
ENCODING 64300
SWIDTH 630 0
DWIDTH 14 0
BBX 12 15 1 0
BITMAP
0020
0020
0000
CC60
EE70
E670
8420
8420
8840
8B40
4880
5080
5180
3F00
3F00
ENDCHAR
STARTCHAR FB2D
ENCODING 64301
SWIDTH 630 0
DWIDTH 14 0
BBX 12 15 1 0
BITMAP
4000
C000
0000
CC60
EE70
E670
8420
8420
8840
8B40
4880
5080
5180
3F00
3F00
ENDCHAR
STARTCHAR FB2E
ENCODING 64302
SWIDTH 495 0
DWIDTH 11 0
BBX 9 15 1 -3
BITMAP
8600
C780
E380
7200
3A00
5A00
8E00
8E00
C700
E380
6180
6080
0000
0000
3C00
ENDCHAR
STARTCHAR FB2F
ENCODING 64303
SWIDTH 495 0
DWIDTH 11 0
BBX 9 17 1 -5
BITMAP
8600
C780
E380
7200
3A00
5A00
8E00
8E00
C700
E380
6180
6080
0000
3C00
0800
0800
0800
ENDCHAR
STARTCHAR FB30
ENCODING 64304
SWIDTH 495 0
DWIDTH 11 0
BBX 9 12 1 0
BITMAP
8600
C780
E380
7200
3A00
5A00
8E00
8E00
C700
EB80
6980
6080
ENDCHAR
STARTCHAR FB31
ENCODING 64305
SWIDTH 450 0
DWIDTH 10 0
BBX 8 12 1 0
BITMAP
80
FE
FF
03
01
01
11
01
02
02
FF
FF
ENDCHAR
STARTCHAR FB32
ENCODING 64306
SWIDTH 315 0
DWIDTH 7 0
BBX 7 12 0 0
BITMAP
60
78
38
08
08
08
28
2C
0C
16
72
E2
ENDCHAR
STARTCHAR FB33
ENCODING 64307
SWIDTH 405 0
DWIDTH 9 0
BBX 8 12 1 0
BITMAP
80
FF
FF
02
04
04
34
04
04
04
04
04
ENDCHAR
STARTCHAR FB34
ENCODING 64308
SWIDTH 450 0
DWIDTH 10 0
BBX 8 12 1 0
BITMAP
80
FF
FF
01
01
01
19
41
C1
C1
C1
C1
ENDCHAR
STARTCHAR FB35
ENCODING 64309
SWIDTH 270 0
DWIDTH 6 0
BBX 4 12 1 0
BITMAP
80
F0
F0
10
10
10
D0
10
10
10
10
10
ENDCHAR
STARTCHAR FB36
ENCODING 64310
SWIDTH 315 0
DWIDTH 7 0
BBX 6 12 0 0
BITMAP
30
7C
3C
10
10
10
D0
10
10
10
10
10
ENDCHAR
STARTCHAR FB38
ENCODING 64312
SWIDTH 495 0
DWIDTH 11 0
BBX 8 12 1 0
BITMAP
82
E7
EF
49
81
81
8D
41
41
41
7F
7E
ENDCHAR
STARTCHAR FB39
ENCODING 64313
SWIDTH 270 0
DWIDTH 6 0
BBX 4 7 1 5
BITMAP
80
F0
F0
10
D0
90
20
ENDCHAR
STARTCHAR FB3A
ENCODING 64314
SWIDTH 450 0
DWIDTH 10 0
BBX 8 16 1 -4
BITMAP
80
FF
FF
02
02
02
32
02
02
02
02
02
02
03
03
02
ENDCHAR
STARTCHAR FB3B
ENCODING 64315
SWIDTH 450 0
DWIDTH 10 0
BBX 8 12 1 0
BITMAP
80
FC
FE
02
02
01
11
01
02
06
FE
FC
ENDCHAR
STARTCHAR FB3C
ENCODING 64316
SWIDTH 450 0
DWIDTH 10 0
BBX 9 17 0 0
BITMAP
8000
C000
4000
4000
4000
4000
7F00
7F80
0080
0080
1880
1900
0200
0400
0400
0800
0800
ENDCHAR
STARTCHAR FB3E
ENCODING 64318
SWIDTH 495 0
DWIDTH 11 0
BBX 9 12 1 0
BITMAP
C400
E600
EF00
3100
2180
4080
4C80
8080
8080
8100
9F00
9F00
ENDCHAR
STARTCHAR FB40
ENCODING 64320
SWIDTH 315 0
DWIDTH 7 0
BBX 6 12 0 0
BITMAP
70
78
3C
08
08
08
28
08
08
0C
7C
FC
ENDCHAR
STARTCHAR FB41
ENCODING 64321
SWIDTH 495 0
DWIDTH 11 0
BBX 9 12 1 0
BITMAP
C000
FE00
FF00
4100
8100
8080
9880
8100
8100
C100
7F00
3E00
ENDCHAR
STARTCHAR FB43
ENCODING 64323
SWIDTH 450 0
DWIDTH 10 0
BBX 8 16 1 -4
BITMAP
C0
FE
FF
83
81
81
ED
A1
01
01
01
01
01
01
01
01
ENDCHAR
STARTCHAR FB44
ENCODING 64324
SWIDTH 450 0
DWIDTH 10 0
BBX 8 12 1 0
BITMAP
C0
FE
7E
83
81
E1
ED
01
01
02
FE
FC
ENDCHAR
STARTCHAR FB46
ENCODING 64326
SWIDTH 450 0
DWIDTH 10 0
BBX 8 12 1 0
BITMAP
84
E7
E7
22
24
24
FC
0C
06
03
FF
FF
ENDCHAR
STARTCHAR FB47
ENCODING 64327
SWIDTH 495 0
DWIDTH 11 0
BBX 8 16 1 -4
BITMAP
C0
FF
FF
01
01
81
91
82
8C
90
90
90
80
80
80
80
ENDCHAR
STARTCHAR FB48
ENCODING 64328
SWIDTH 450 0
DWIDTH 10 0
BBX 8 12 1 0
BITMAP
80
FF
FF
01
01
01
11
01
01
01
01
01
ENDCHAR
STARTCHAR FB49
ENCODING 64329
SWIDTH 630 0
DWIDTH 14 0
BBX 12 12 1 0
BITMAP
CC60
EE70
E670
8420
8420
8840
8B40
4880
5080
5180
3F00
3F00
ENDCHAR
STARTCHAR FB4A
ENCODING 64330
SWIDTH 495 0
DWIDTH 11 0
BBX 10 12 0 0
BITMAP
2000
7F80
3FC0
10C0
2040
2040
2640
2040
2040
2040
7040
F040
ENDCHAR
STARTCHAR FB4B
ENCODING 64331
SWIDTH 270 0
DWIDTH 6 0
BBX 4 15 1 0
BITMAP
60
60
00
80
F0
F0
10
10
10
10
10
10
10
10
10
ENDCHAR
STARTCHAR FB4C
ENCODING 64332
SWIDTH 450 0
DWIDTH 10 0
BBX 8 14 1 0
BITMAP
3C
00
80
FE
FF
03
01
01
01
01
02
02
FF
FF
ENDCHAR
STARTCHAR FB4D
ENCODING 64333
SWIDTH 450 0
DWIDTH 10 0
BBX 8 14 1 0
BITMAP
7C
00
80
FC
FE
02
02
01
01
01
02
06
FE
FC
ENDCHAR
STARTCHAR FB4E
ENCODING 64334
SWIDTH 450 0
DWIDTH 10 0
BBX 8 14 1 0
BITMAP
3C
00
C0
FE
7E
83
81
E1
E1
01
01
02
FE
FC
ENDCHAR
STARTCHAR FB4F
ENCODING 64335
SWIDTH 495 0
DWIDTH 11 0
BBX 10 17 0 0
BITMAP
8000
C000
4000
4000
4000
4100
71C0
79C0
1C80
0D00
1700
2300
2380
2180
30C0
3040
3040
ENDCHAR
STARTCHAR FB50
ENCODING 64336
SWIDTH 225 0
DWIDTH 5 0
BBX 5 17 0 3
BITMAP
10
68
F0
80
20
20
20
20
20
20
20
30
30
30
30
20
20
ENDCHAR
STARTCHAR FB51
ENCODING 64337
SWIDTH 225 0
DWIDTH 5 0
BBX 6 17 -1 3
BITMAP
18
68
F0
00
20
60
20
20
20
20
20
20
20
10
10
1C
0C
ENDCHAR
STARTCHAR FB52
ENCODING 64338
SWIDTH 720 0
DWIDTH 16 0
BBX 15 14 1 -4
BITMAP
8004
8006
8002
8002
C002
FFFE
3FFE
0000
0000
0180
0100
0100
0180
0080
ENDCHAR
STARTCHAR FB53
ENCODING 64339
SWIDTH 720 0
DWIDTH 16 0
BBX 15 14 1 -4
BITMAP
8004
8006
8002
8002
C002
FFFE
3FFE
0000
0000
0180
0100
0100
0180
0080
ENDCHAR
STARTCHAR FB54
ENCODING 64340
SWIDTH 225 0
DWIDTH 5 0
BBX 6 14 -1 -4
BITMAP
04
0C
04
04
04
FC
FC
00
00
38
10
10
18
08
ENDCHAR
STARTCHAR FB55
ENCODING 64341
SWIDTH 225 0
DWIDTH 5 0
BBX 6 14 -1 -4
BITMAP
04
0C
04
04
04
FC
FC
00
00
38
10
10
18
08
ENDCHAR
STARTCHAR FB56
ENCODING 64342
SWIDTH 720 0
DWIDTH 16 0
BBX 15 14 1 -4
BITMAP
8004
8006
8002
8002
C002
FFFE
3FFE
0000
0000
00C0
0780
0200
01C0
0080
ENDCHAR
STARTCHAR FB57
ENCODING 64343
SWIDTH 720 0
DWIDTH 16 0
BBX 15 14 1 -4
BITMAP
8004
8006
8002
8002
C002
FFFE
3FFE
0000
0000
00C0
0780
0200
01C0
0080
ENDCHAR
STARTCHAR FB58
ENCODING 64344
SWIDTH 225 0
DWIDTH 5 0
BBX 6 14 -1 -4
BITMAP
04
0C
04
04
04
FC
FC
00
08
0C
74
20
0C
08
ENDCHAR
STARTCHAR FB59
ENCODING 64345
SWIDTH 225 0
DWIDTH 5 0
BBX 6 14 -1 -4
BITMAP
04
0C
04
04
04
FC
FC
00
08
0C
74
20
0C
08
ENDCHAR
STARTCHAR FB5A
ENCODING 64346
SWIDTH 720 0
DWIDTH 16 0
BBX 15 14 1 -5
BITMAP
8004
8006
8002
8002
C002
FFFE
3FFE
0000
0000
00C0
0680
0280
02C0
0740
ENDCHAR
STARTCHAR FB5B
ENCODING 64347
SWIDTH 720 0
DWIDTH 16 0
BBX 15 14 1 -5
BITMAP
8004
8006
8002
8002
C002
FFFE
3FFE
0000
0000
00C0
0680
0280
02C0
0740
ENDCHAR
STARTCHAR FB5C
ENCODING 64348
SWIDTH 225 0
DWIDTH 5 0
BBX 6 14 -1 -5
BITMAP
04
0C
04
04
04
FC
FC
00
00
0C
68
20
2C
34
ENDCHAR
STARTCHAR FB5D
ENCODING 64349
SWIDTH 225 0
DWIDTH 5 0
BBX 6 14 -1 -5
BITMAP
04
0C
04
04
04
FC
FC
00
00
0C
68
20
2C
34
ENDCHAR
STARTCHAR FB5E
ENCODING 64350
SWIDTH 720 0
DWIDTH 16 0
BBX 15 14 1 3
BITMAP
0200
0300
0100
0100
0300
0000
0000
8004
8006
8002
8002
C002
FFFE
3FFE
ENDCHAR
STARTCHAR FB5F
ENCODING 64351
SWIDTH 720 0
DWIDTH 16 0
BBX 15 14 1 3
BITMAP
0200
0300
0100
0100
0300
0000
0000
8004
8006
8002
8002
C002
FFFE
3FFE
ENDCHAR
STARTCHAR FB60
ENCODING 64352
SWIDTH 225 0
DWIDTH 5 0
BBX 6 14 -1 3
BITMAP
20
30
10
10
38
00
00
04
0C
04
04
04
FC
FC
ENDCHAR
STARTCHAR FB61
ENCODING 64353
SWIDTH 225 0
DWIDTH 5 0
BBX 6 14 -1 3
BITMAP
20
30
10
10
38
00
00
04
0C
04
04
04
FC
FC
ENDCHAR
STARTCHAR FB62
ENCODING 64354
SWIDTH 720 0
DWIDTH 16 0
BBX 15 13 1 4
BITMAP
0580
0680
0080
07C0
0600
0000
8004
8006
8002
8002
C002
FFFE
3FFE
ENDCHAR
STARTCHAR FB63
ENCODING 64355
SWIDTH 720 0
DWIDTH 16 0
BBX 15 13 1 4
BITMAP
0580
0680
0080
07C0
0600
0000
8004
8006
8002
8002
C002
FFFE
3FFE
ENDCHAR
STARTCHAR FB64
ENCODING 64356
SWIDTH 225 0
DWIDTH 5 0
BBX 6 13 -1 4
BITMAP
58
68
08
3C
60
00
04
0C
04
04
04
FC
FC
ENDCHAR
STARTCHAR FB65
ENCODING 64357
SWIDTH 225 0
DWIDTH 5 0
BBX 6 13 -1 4
BITMAP
58
68
08
3C
60
00
04
0C
04
04
04
FC
FC
ENDCHAR
STARTCHAR FB66
ENCODING 64358
SWIDTH 720 0
DWIDTH 16 0
BBX 15 15 1 3
BITMAP
0600
0400
0200
0200
03C0
0440
0B80
0000
8004
8006
8002
8002
C002
FFFE
3FFE
ENDCHAR
STARTCHAR FB67
ENCODING 64359
SWIDTH 720 0
DWIDTH 16 0
BBX 15 15 1 3
BITMAP
0600
0400
0200
0200
03C0
0440
0B80
0000
8004
8006
8002
8002
C002
FFFE
3FFE
ENDCHAR
STARTCHAR FB68
ENCODING 64360
SWIDTH 225 0
DWIDTH 5 0
BBX 7 15 -1 3
BITMAP
20
20
20
20
2E
32
5C
00
04
0C
04
04
04
FC
FC
ENDCHAR
STARTCHAR FB69
ENCODING 64361
SWIDTH 225 0
DWIDTH 5 0
BBX 7 15 -1 3
BITMAP
20
20
20
20
2E
32
5C
00
04
0C
04
04
04
FC
FC
ENDCHAR
STARTCHAR FB6A
ENCODING 64362
SWIDTH 810 0
DWIDTH 18 0
BBX 18 14 0 3
BITMAP
000600
000600
000180
000580
000C00
000000
000100
400380
800680
800680
C007C0
6001C0
7FFFC0
0FFFC0
ENDCHAR
STARTCHAR FB6B
ENCODING 64363
SWIDTH 810 0
DWIDTH 18 0
BBX 18 14 0 3
BITMAP
000600
000600
000180
000580
000C00
000000
000100
400380
800680
800680
C007C0
6001C0
7FFFC0
0FFFC0
ENDCHAR
STARTCHAR FB6C
ENCODING 64364
SWIDTH 270 0
DWIDTH 6 0
BBX 7 15 -1 3
BITMAP
20
60
0C
68
60
00
1C
1C
26
3E
3E
02
02
FE
FE
ENDCHAR
STARTCHAR FB6D
ENCODING 64365
SWIDTH 270 0
DWIDTH 6 0
BBX 7 15 -1 3
BITMAP
30
30
0C
6C
60
00
00
0C
1C
16
32
1E
06
FE
FE
ENDCHAR
STARTCHAR FB6E
ENCODING 64366
SWIDTH 810 0
DWIDTH 18 0
BBX 18 15 0 3
BITMAP
000100
000B80
000C00
000580
000580
000E00
000000
000100
400380
800680
800680
C007C0
6001C0
7FFFC0
0FFFC0
ENDCHAR
STARTCHAR FB6F
ENCODING 64367
SWIDTH 810 0
DWIDTH 18 0
BBX 18 15 0 3
BITMAP
000100
000B80
000C00
000580
000580
000E00
000000
000100
400380
800680
800680
C007C0
6001C0
7FFFC0
0FFFC0
ENDCHAR
STARTCHAR FB70
ENCODING 64368
SWIDTH 270 0
DWIDTH 6 0
BBX 7 15 -1 4
BITMAP
58
68
08
2C
60
00
1C
1C
26
3E
3E
02
02
FE
FE
ENDCHAR
STARTCHAR FB71
ENCODING 64369
SWIDTH 270 0
DWIDTH 6 0
BBX 7 15 -1 4
BITMAP
58
68
08
2C
60
00
00
0C
1C
16
32
1E
06
FE
FE
ENDCHAR
STARTCHAR FB72
ENCODING 64370
SWIDTH 585 0
DWIDTH 13 0
BBX 10 15 1 -5
BITMAP
3800
FFC0
CFC0
1800
2000
4000
8600
8400
8000
8600
8200
C000
7800
3FC0
0F00
ENDCHAR
STARTCHAR FB73
ENCODING 64371
SWIDTH 540 0
DWIDTH 12 0
BBX 11 14 1 -5
BITMAP
7FC0
FFC0
1D00
2100
41E0
88E0
9800
8000
8C00
8C00
C000
7800
3FC0
0F00
ENDCHAR
STARTCHAR FB74
ENCODING 64372
SWIDTH 540 0
DWIDTH 12 0
BBX 13 12 -1 -4
BITMAP
1F00
0780
01C0
00E0
FFF8
FFF8
0000
0000
0700
0200
0200
0300
ENDCHAR
STARTCHAR FB75
ENCODING 64373
SWIDTH 540 0
DWIDTH 12 0
BBX 13 12 -1 -4
BITMAP
1F00
0780
01C0
00E0
FFF8
FFF8
0000
0000
0700
0200
0200
0300
ENDCHAR
STARTCHAR FB76
ENCODING 64374
SWIDTH 585 0
DWIDTH 13 0
BBX 10 15 1 -5
BITMAP
3800
FFC0
CFC0
1800
2000
4000
8000
8300
9D00
8800
8000
C000
7800
3FC0
0F00
ENDCHAR
STARTCHAR FB77
ENCODING 64375
SWIDTH 540 0
DWIDTH 12 0
BBX 11 14 1 -5
BITMAP
7FC0
FFC0
1D00
2100
41E0
80E0
8600
B400
9000
8000
C000
7800
3FC0
0F00
ENDCHAR
STARTCHAR FB78
ENCODING 64376
SWIDTH 540 0
DWIDTH 12 0
BBX 13 11 -1 -2
BITMAP
1F00
0780
01C0
00E0
FFF8
FFF8
0000
0000
0180
0F80
0400
ENDCHAR
STARTCHAR FB79
ENCODING 64377
SWIDTH 540 0
DWIDTH 12 0
BBX 13 11 -1 -2
BITMAP
1F00
0780
01C0
00E0
FFF8
FFF8
0000
0000
0180
0F80
0400
ENDCHAR
STARTCHAR FB7A
ENCODING 64378
SWIDTH 585 0
DWIDTH 13 0
BBX 10 15 1 -5
BITMAP
3800
FFC0
CFC0
1800
2000
4200
8B00
9D00
8200
8700
8000
C000
7800
3FC0
0F00
ENDCHAR
STARTCHAR FB7B
ENCODING 64379
SWIDTH 540 0
DWIDTH 12 0
BBX 11 14 1 -5
BITMAP
7FC0
FFC0
1D00
2100
41E0
80E0
8E00
B400
9000
8C00
C400
7800
3FC0
0F00
ENDCHAR
STARTCHAR FB7C
ENCODING 64380
SWIDTH 540 0
DWIDTH 12 0
BBX 13 13 -1 -4
BITMAP
1F00
0780
01C0
00E0
FFF8
FFF8
0000
0000
0380
0D00
0E00
0300
0100
ENDCHAR
STARTCHAR FB7D
ENCODING 64381
SWIDTH 540 0
DWIDTH 12 0
BBX 13 13 -1 -4
BITMAP
1F00
0780
01C0
00E0
FFF8
FFF8
0000
0000
0380
0D00
0E00
0300
0100
ENDCHAR
STARTCHAR FB7E
ENCODING 64382
SWIDTH 585 0
DWIDTH 13 0
BBX 10 15 1 -5
BITMAP
3800
FFC0
CFC0
1800
2000
4300
8F00
8C00
8180
8F00
8400
C000
7800
3FC0
0F00
ENDCHAR
STARTCHAR FB7F
ENCODING 64383
SWIDTH 540 0
DWIDTH 12 0
BBX 11 14 1 -5
BITMAP
7FC0
FFC0
1D00
2100
41E0
86E0
B400
9400
9600
BA00
C000
7800
3FC0
0F00
ENDCHAR
STARTCHAR FB80
ENCODING 64384
SWIDTH 540 0
DWIDTH 12 0
BBX 13 13 -1 -5
BITMAP
1F00
0780
01C0
00E0
FFF8
FFF8
0000
0000
0180
0D00
0400
0580
0680
ENDCHAR
STARTCHAR FB81
ENCODING 64385
SWIDTH 540 0
DWIDTH 12 0
BBX 13 13 -1 -5
BITMAP
1F00
0780
01C0
00E0
FFF8
FFF8
0000
0000
0180
0D00
0400
0580
0680
ENDCHAR
STARTCHAR FB82
ENCODING 64386
SWIDTH 360 0
DWIDTH 8 0
BBX 6 14 1 -2
BITMAP
10
18
0C
04
04
04
84
FC
7C
00
00
1C
68
20
ENDCHAR
STARTCHAR FB83
ENCODING 64387
SWIDTH 360 0
DWIDTH 8 0
BBX 6 14 1 -2
BITMAP
10
18
0C
04
04
04
84
FC
7C
00
00
1C
68
20
ENDCHAR
STARTCHAR FB84
ENCODING 64388
SWIDTH 360 0
DWIDTH 8 0
BBX 6 14 1 3
BITMAP
10
18
C0
40
00
10
18
0C
04
04
04
84
FC
7C
ENDCHAR
STARTCHAR FB85
ENCODING 64389
SWIDTH 360 0
DWIDTH 8 0
BBX 6 14 1 3
BITMAP
10
18
C0
40
00
10
18
0C
04
04
04
84
FC
7C
ENDCHAR
STARTCHAR FB86
ENCODING 64390
SWIDTH 360 0
DWIDTH 8 0
BBX 6 16 1 3
BITMAP
40
60
30
58
E8
00
00
10
18
0C
04
04
04
84
FC
7C
ENDCHAR
STARTCHAR FB87
ENCODING 64391
SWIDTH 360 0
DWIDTH 8 0
BBX 6 16 1 3
BITMAP
40
60
30
58
E8
00
00
10
18
0C
04
04
04
84
FC
7C
ENDCHAR
STARTCHAR FB88
ENCODING 64392
SWIDTH 360 0
DWIDTH 8 0
BBX 6 17 1 3
BITMAP
40
40
40
40
48
34
FC
00
10
18
0C
04
04
04
84
FC
7C
ENDCHAR
STARTCHAR FB89
ENCODING 64393
SWIDTH 360 0
DWIDTH 8 0
BBX 6 17 1 3
BITMAP
40
40
40
40
48
34
FC
00
10
18
0C
04
04
04
84
FC
7C
ENDCHAR
STARTCHAR FB8A
ENCODING 64394
SWIDTH 495 0
DWIDTH 11 0
BBX 10 18 1 -2
BITMAP
0600
0600
0180
0780
0600
0000
0000
0080
00C0
00C0
0040
0040
0040
00C0
0180
0380
8F00
7C00
ENDCHAR
STARTCHAR FB8B
ENCODING 64395
SWIDTH 495 0
DWIDTH 11 0
BBX 10 18 1 -2
BITMAP
0600
0600
0180
0780
0600
0000
0000
0080
00C0
00C0
0040
0040
0040
00C0
0180
0380
8F00
7C00
ENDCHAR
STARTCHAR FB8C
ENCODING 64396
SWIDTH 495 0
DWIDTH 11 0
BBX 10 20 1 -2
BITMAP
0C00
0800
0400
0400
0780
0880
1700
0000
0000
0080
00C0
00C0
0040
0040
0040
00C0
0180
0380
8F00
7C00
ENDCHAR
STARTCHAR FB8D
ENCODING 64397
SWIDTH 495 0
DWIDTH 11 0
BBX 10 20 1 -2
BITMAP
0C00
0800
0400
0400
0780
0880
1700
0000
0000
0080
00C0
00C0
0040
0040
0040
00C0
0180
0380
8F00
7C00
ENDCHAR
STARTCHAR FB8E
ENCODING 64398
SWIDTH 810 0
DWIDTH 18 0
BBX 18 13 0 3
BITMAP
000180
000780
001C00
003000
003000
003800
001C00
800700
800100
800080
C000C0
7FFFC0
3FFFC0
ENDCHAR
STARTCHAR FB8F
ENCODING 64399
SWIDTH 945 0
DWIDTH 21 0
BBX 21 13 0 3
BITMAP
000180
000780
001C00
003000
003000
003800
001E00
800700
800300
800380
C004C0
7FFC78
3FF038
ENDCHAR
STARTCHAR FB90
ENCODING 64400
SWIDTH 405 0
DWIDTH 9 0
BBX 10 13 -1 3
BITMAP
0180
0F80
1C00
3000
3000
3800
1C00
0600
0300
0180
00C0
FFC0
FFC0
ENDCHAR
STARTCHAR FB91
ENCODING 64401
SWIDTH 495 0
DWIDTH 11 0
BBX 12 13 -1 3
BITMAP
0180
0F80
1C00
3000
3000
3800
1C00
0600
0300
0580
0CC0
F870
F030
ENDCHAR
STARTCHAR FB92
ENCODING 64402
SWIDTH 810 0
DWIDTH 18 0
BBX 18 16 0 3
BITMAP
000180
000780
000E00
003180
002780
001C00
003000
003000
003800
001C00
800700
800100
800080
C000C0
7FFFC0
3FFFC0
ENDCHAR
STARTCHAR FB93
ENCODING 64403
SWIDTH 945 0
DWIDTH 21 0
BBX 21 16 0 3
BITMAP
000180
000780
000E00
003180
002780
001C00
003000
003000
003800
001E00
800700
800300
800380
C004C0
7FFC78
3FF038
ENDCHAR
STARTCHAR FB94
ENCODING 64404
SWIDTH 405 0
DWIDTH 9 0
BBX 10 16 -1 3
BITMAP
0180
0700
1C00
3180
0F80
1C00
3000
3000
3800
1C00
0600
0300
0180
00C0
FFC0
FFC0
ENDCHAR
STARTCHAR FB95
ENCODING 64405
SWIDTH 495 0
DWIDTH 11 0
BBX 12 16 -1 3
BITMAP
0180
0700
1C00
3180
0F80
1C00
3000
3000
3800
1C00
0600
0300
0580
0CC0
F870
F030
ENDCHAR
STARTCHAR FB96
ENCODING 64406
SWIDTH 810 0
DWIDTH 18 0
BBX 18 23 0 -4
BITMAP
000180
000780
000E00
003180
002780
001C00
003000
003000
003800
001C00
800700
800100
800080
C000C0
7FFFC0
3FFFC0
000000
000000
006000
004000
004000
006000
002000
ENDCHAR
STARTCHAR FB97
ENCODING 64407
SWIDTH 945 0
DWIDTH 21 0
BBX 21 23 0 -4
BITMAP
000180
000780
000E00
003180
002780
001C00
003000
003000
003800
001E00
800700
800300
800380
C004C0
7FFC78
3FF038
000000
000000
038000
010000
010000
018000
008000
ENDCHAR
STARTCHAR FB98
ENCODING 64408
SWIDTH 405 0
DWIDTH 9 0
BBX 10 22 -1 -4
BITMAP
0180
0700
1C00
3180
0F80
1C00
3000
3000
3800
1C00
0600
0300
0180
00C0
FFC0
FFC0
0000
0000
0C00
0400
0400
0600
ENDCHAR
STARTCHAR FB99
ENCODING 64409
SWIDTH 495 0
DWIDTH 11 0
BBX 12 23 -1 -4
BITMAP
0180
0700
1C00
3180
0F80
1C00
3000
3000
3800
1C00
0600
0300
0580
0CC0
F870
F030
0000
0000
3800
1000
1000
1800
0800
ENDCHAR
STARTCHAR FB9A
ENCODING 64410
SWIDTH 810 0
DWIDTH 18 0
BBX 18 17 0 3
BITMAP
000400
003580
001780
000E00
003180
002780
001C00
003000
003000
003800
001C00
800700
800100
800080
C000C0
7FFFC0
3FFFC0
ENDCHAR
STARTCHAR FB9B
ENCODING 64411
SWIDTH 945 0
DWIDTH 21 0
BBX 21 17 0 3
BITMAP
000400
003580
001780
000E00
003180
002780
001C00
003000
003000
003800
001E00
800700
800300
800380
C004C0
7FFC78
3FF038
ENDCHAR
STARTCHAR FB9C
ENCODING 64412
SWIDTH 405 0
DWIDTH 9 0
BBX 10 17 -1 3
BITMAP
0800
2980
2700
1C00
3180
0F80
1C00
3000
3000
3800
1C00
0600
0300
0180
00C0
FFC0
FFC0
ENDCHAR
STARTCHAR FB9D
ENCODING 64413
SWIDTH 495 0
DWIDTH 11 0
BBX 12 17 -1 3
BITMAP
0800
2980
2700
1C00
3180
0F80
1C00
3000
3000
3800
1C00
0600
0300
0580
0CC0
F870
F030
ENDCHAR
STARTCHAR FB9E
ENCODING 64414
SWIDTH 540 0
DWIDTH 12 0
BBX 11 11 1 -2
BITMAP
0040
0040
4060
8020
8020
8020
8020
8040
E3C0
7F80
1C00
ENDCHAR
STARTCHAR FB9F
ENCODING 64415
SWIDTH 540 0
DWIDTH 12 0
BBX 11 11 1 -2
BITMAP
0040
0040
4060
8020
8020
8020
8020
8040
E3C0
7F80
1C00
ENDCHAR
STARTCHAR FBA0
ENCODING 64416
SWIDTH 540 0
DWIDTH 12 0
BBX 11 19 1 -1
BITMAP
0800
0800
0800
0800
0780
3F80
0000
0000
0040
0040
4060
8020
8020
8020
8020
8040
E3C0
7F80
1C00
ENDCHAR
STARTCHAR FBA1
ENCODING 64417
SWIDTH 540 0
DWIDTH 12 0
BBX 11 19 1 -1
BITMAP
0800
0800
0800
0800
0780
3F80
0000
0000
0040
0040
4060
8020
8020
8020
8020
8040
E3C0
7F80
1C00
ENDCHAR
STARTCHAR FBA2
ENCODING 64418
SWIDTH 225 0
DWIDTH 5 0
BBX 7 15 -1 3
BITMAP
20
20
20
20
2E
32
5C
00
04
0C
04
04
04
FC
FC
ENDCHAR
STARTCHAR FBA3
ENCODING 64419
SWIDTH 225 0
DWIDTH 5 0
BBX 7 15 -1 3
BITMAP
20
20
20
20
2E
32
5C
00
04
0C
04
04
04
FC
FC
ENDCHAR
STARTCHAR FBA4
ENCODING 64420
SWIDTH 270 0
DWIDTH 6 0
BBX 5 11 1 3
BITMAP
20
40
60
00
00
60
70
98
88
F8
F0
ENDCHAR
STARTCHAR FBA5
ENCODING 64421
SWIDTH 360 0
DWIDTH 8 0
BBX 8 13 0 3
BITMAP
30
20
30
08
08
08
38
6C
CC
F4
04
07
03
ENDCHAR
STARTCHAR FBA6
ENCODING 64422
SWIDTH 270 0
DWIDTH 6 0
BBX 5 6 1 4
BITMAP
60
70
98
88
F8
F0
ENDCHAR
STARTCHAR FBA7
ENCODING 64423
SWIDTH 405 0
DWIDTH 9 0
BBX 9 5 0 2
BITMAP
1C00
3E00
2780
4180
8000
ENDCHAR
STARTCHAR FBA8
ENCODING 64424
SWIDTH 225 0
DWIDTH 5 0
BBX 6 13 -1 -3
BITMAP
04
0C
04
04
04
FC
FC
00
00
10
20
18
18
ENDCHAR
STARTCHAR FBA9
ENCODING 64425
SWIDTH 315 0
DWIDTH 7 0
BBX 8 13 -1 -5
BITMAP
08
08
18
F3
EF
0C
08
00
04
08
08
0C
04
ENDCHAR
STARTCHAR FBAA
ENCODING 64426
SWIDTH 450 0
DWIDTH 10 0
BBX 9 9 -1 3
BITMAP
0800
0C00
0E00
1F00
2380
3780
1C80
FF80
E380
ENDCHAR
STARTCHAR FBAB
ENCODING 64427
SWIDTH 360 0
DWIDTH 8 0
BBX 8 10 0 3
BITMAP
08
08
08
38
6C
CC
F4
04
07
03
ENDCHAR
STARTCHAR FBAC
ENCODING 64428
SWIDTH 450 0
DWIDTH 10 0
BBX 9 9 -1 3
BITMAP
0800
0C00
0E00
1F00
2380
3780
1C80
FF80
E380
ENDCHAR
STARTCHAR FBAD
ENCODING 64429
SWIDTH 405 0
DWIDTH 9 0
BBX 10 11 -1 -1
BITMAP
0200
0600
0A00
1200
1C00
FFC0
FFC0
2600
1200
1B00
0E00
ENDCHAR
STARTCHAR FBAE
ENCODING 64430
SWIDTH 810 0
DWIDTH 18 0
BBX 16 9 1 -1
BITMAP
0180
0380
0480
1800
7000
C000
8000
FFFF
FFFC
ENDCHAR
STARTCHAR FBAF
ENCODING 64431
SWIDTH 810 0
DWIDTH 18 0
BBX 17 10 1 -5
BITMAP
007F80
03FF80
0F8000
1C0000
300000
400000
800000
800000
FFFF00
FFFC00
ENDCHAR
STARTCHAR FBB0
ENCODING 64432
SWIDTH 810 0
DWIDTH 18 0
BBX 16 12 1 -1
BITMAP
0C00
1000
0C00
0180
0380
0480
1800
7000
C000
8000
FFFF
FFFC
ENDCHAR
STARTCHAR FBB1
ENCODING 64433
SWIDTH 810 0
DWIDTH 18 0
BBX 17 15 1 -5
BITMAP
000800
001000
000800
000000
000000
007F80
03FF80
0F8000
1C0000
300000
400000
800000
800000
FFFF00
FFFC00
ENDCHAR
STARTCHAR FBD3
ENCODING 64467
SWIDTH 585 0
DWIDTH 13 0
BBX 13 16 0 4
BITMAP
0600
0700
01A0
0EB8
0438
0090
0110
0210
0398
0088
4088
8F08
8008
4008
7FF8
3FF8
ENDCHAR
STARTCHAR FBD4
ENCODING 64468
SWIDTH 585 0
DWIDTH 13 0
BBX 13 16 0 4
BITMAP
0600
0700
01A0
0EB8
0438
0090
0110
0210
0398
0088
4088
8F08
8008
4008
7FF8
3FF8
ENDCHAR
STARTCHAR FBD5
ENCODING 64469
SWIDTH 405 0
DWIDTH 9 0
BBX 10 16 -1 3
BITMAP
1800
0400
3000
0180
0F80
1C00
3000
3000
3800
1C00
0600
0300
0180
00C0
FFC0
FFC0
ENDCHAR
STARTCHAR FBD6
ENCODING 64470
SWIDTH 405 0
DWIDTH 9 0
BBX 10 16 -1 3
BITMAP
1800
0400
3000
0180
0F80
1C00
3000
3000
3800
1C00
0600
0300
0180
00C0
FFC0
FFC0
ENDCHAR
STARTCHAR FBD7
ENCODING 64471
SWIDTH 450 0
DWIDTH 10 0
BBX 9 17 1 -2
BITMAP
0100
0300
0300
0300
0400
0000
0000
0700
0580
0480
0780
0380
0100
0100
0200
8E00
7800
ENDCHAR
STARTCHAR FBD8
ENCODING 64472
SWIDTH 450 0
DWIDTH 10 0
BBX 9 17 1 -2
BITMAP
0100
0300
0300
0300
0400
0000
0000
0700
0580
0480
0780
0380
0100
0100
0200
8E00
7800
ENDCHAR
STARTCHAR FBD9
ENCODING 64473
SWIDTH 450 0
DWIDTH 10 0
BBX 9 15 1 -2
BITMAP
0500
0300
0000
0000
0000
0700
0580
0480
0780
0380
0100
0100
0200
8E00
7800
ENDCHAR
STARTCHAR FBDA
ENCODING 64474
SWIDTH 450 0
DWIDTH 10 0
BBX 9 15 1 -2
BITMAP
0500
0300
0000
0000
0000
0700
0580
0480
0780
0380
0100
0100
0200
8E00
7800
ENDCHAR
STARTCHAR FBDB
ENCODING 64475
SWIDTH 450 0
DWIDTH 10 0
BBX 9 18 1 -2
BITMAP
0400
0200
0200
0200
0200
0200
0000
0000
0700
0580
0480
0780
0380
0100
0100
0200
8E00
7800
ENDCHAR
STARTCHAR FBDC
ENCODING 64476
SWIDTH 450 0
DWIDTH 10 0
BBX 9 18 1 -2
BITMAP
0400
0200
0200
0200
0200
0200
0000
0000
0700
0580
0480
0780
0380
0100
0100
0200
8E00
7800
ENDCHAR
STARTCHAR FBDD
ENCODING 64477
SWIDTH 450 0
DWIDTH 10 0
BBX 10 16 1 -2
BITMAP
0800
14C0
0880
0CC0
1000
0000
0700
0580
0480
0780
0380
0100
0100
0200
8E00
7800
ENDCHAR
STARTCHAR FBDE
ENCODING 64478
SWIDTH 450 0
DWIDTH 10 0
BBX 9 17 1 -1
BITMAP
0C00
0500
0B00
0C00
0000
0000
0000
0700
0580
0480
0780
0380
0100
0100
0200
8E00
7800
ENDCHAR
STARTCHAR FBDF
ENCODING 64479
SWIDTH 450 0
DWIDTH 10 0
BBX 9 17 1 -1
BITMAP
0C00
0500
0B00
0C00
0000
0000
0000
0700
0580
0480
0780
0380
0100
0100
0200
8E00
7800
ENDCHAR
STARTCHAR FBE0
ENCODING 64480
SWIDTH 450 0
DWIDTH 10 0
BBX 9 10 1 -1
BITMAP
0700
0580
0480
0780
0380
1900
0700
0200
8E00
7800
ENDCHAR
STARTCHAR FBE1
ENCODING 64481
SWIDTH 450 0
DWIDTH 10 0
BBX 9 10 1 -1
BITMAP
0700
0580
0480
0780
0380
1900
0700
0200
8E00
7800
ENDCHAR
STARTCHAR FBE2
ENCODING 64482
SWIDTH 450 0
DWIDTH 10 0
BBX 9 15 1 -2
BITMAP
0200
0300
0480
0000
0000
0700
0580
0480
0780
0380
0100
0100
0200
8E00
7800
ENDCHAR
STARTCHAR FBE3
ENCODING 64483
SWIDTH 450 0
DWIDTH 10 0
BBX 9 15 1 -2
BITMAP
0200
0300
0480
0000
0000
0700
0580
0480
0780
0380
0100
0100
0200
8E00
7800
ENDCHAR
STARTCHAR FBE4
ENCODING 64484
SWIDTH 630 0
DWIDTH 14 0
BBX 12 14 1 -4
BITMAP
0070
00F0
4100
8100
8100
81F0
8010
8020
81E0
FFC0
7F00
0000
0800
0400
ENDCHAR
STARTCHAR FBE5
ENCODING 64485
SWIDTH 585 0
DWIDTH 13 0
BBX 13 11 0 -5
BITMAP
2000
4078
41F8
8100
81F0
C010
7060
3FC0
0000
0000
0200
ENDCHAR
STARTCHAR FBE6
ENCODING 64486
SWIDTH 225 0
DWIDTH 5 0
BBX 6 14 -1 -4
BITMAP
04
0C
04
04
04
FC
FC
00
00
38
10
10
18
08
ENDCHAR
STARTCHAR FBE7
ENCODING 64487
SWIDTH 225 0
DWIDTH 5 0
BBX 6 14 -1 -4
BITMAP
04
0C
04
04
04
FC
FC
00
00
38
10
10
18
08
ENDCHAR
STARTCHAR FBFC
ENCODING 64508
SWIDTH 630 0
DWIDTH 14 0
BBX 12 11 1 -1
BITMAP
0070
00F0
4100
8100
8100
81F0
8010
8020
81E0
FFC0
7F00
ENDCHAR
STARTCHAR FBFD
ENCODING 64509
SWIDTH 585 0
DWIDTH 13 0
BBX 13 8 0 -2
BITMAP
2000
4078
41F8
8100
81F0
C010
7060
3FC0
ENDCHAR
STARTCHAR FBFE
ENCODING 64510
SWIDTH 225 0
DWIDTH 5 0
BBX 6 11 -1 -2
BITMAP
04
0C
04
04
04
FC
FC
00
08
2C
74
ENDCHAR
STARTCHAR FBFF
ENCODING 64511
SWIDTH 225 0
DWIDTH 5 0
BBX 6 11 -1 -2
BITMAP
04
0C
04
04
04
FC
FC
00
08
2C
74
ENDCHAR
STARTCHAR FC5E
ENCODING 64606
SWIDTH 225 0
DWIDTH 5 0
BBX 4 8 1 13
BITMAP
10
30
B0
70
10
50
E0
80
ENDCHAR
STARTCHAR FC5F
ENCODING 64607
SWIDTH 225 0
DWIDTH 5 0
BBX 4 7 1 13
BITMAP
10
70
E0
20
D0
60
80
ENDCHAR
STARTCHAR FC60
ENCODING 64608
SWIDTH 225 0
DWIDTH 5 0
BBX 4 6 1 13
BITMAP
10
60
90
50
E0
80
ENDCHAR
STARTCHAR FC61
ENCODING 64609
SWIDTH 225 0
DWIDTH 5 0
BBX 4 7 1 13
BITMAP
20
60
30
D0
50
E0
80
ENDCHAR
STARTCHAR FC62
ENCODING 64610
SWIDTH 225 0
DWIDTH 5 0
BBX 4 6 1 13
BITMAP
10
50
E0
90
60
80
ENDCHAR
STARTCHAR FD3E
ENCODING 64830
SWIDTH 315 0
DWIDTH 7 0
BBX 5 22 1 -5
BITMAP
08
10
30
30
20
60
60
60
E0
E0
E0
E0
E0
60
60
60
60
30
30
10
08
08
ENDCHAR
STARTCHAR FD3F
ENCODING 64831
SWIDTH 315 0
DWIDTH 7 0
BBX 5 22 1 -5
BITMAP
80
40
60
60
30
30
30
30
38
38
38
38
38
30
30
30
30
20
60
40
80
80
ENDCHAR
STARTCHAR FDF2
ENCODING 65010
SWIDTH 630 0
DWIDTH 14 0
BBX 13 14 0 3
BITMAP
0100
0100
0000
02C0
03C0
0000
0090
0898
0888
0CC8
3448
6448
FFF8
F398
ENDCHAR
STARTCHAR FE80
ENCODING 65152
SWIDTH 405 0
DWIDTH 9 0
BBX 7 7 1 2
BITMAP
18
38
40
C2
FE
38
20
ENDCHAR
STARTCHAR FE81
ENCODING 65153
SWIDTH 225 0
DWIDTH 5 0
BBX 3 15 1 3
BITMAP
E0
00
40
40
40
40
40
40
40
60
60
60
60
40
40
ENDCHAR
STARTCHAR FE82
ENCODING 65154
SWIDTH 225 0
DWIDTH 5 0
BBX 5 15 0 3
BITMAP
F0
00
40
C0
40
40
40
40
40
40
40
20
20
38
18
ENDCHAR
STARTCHAR FE83
ENCODING 65155
SWIDTH 225 0
DWIDTH 5 0
BBX 3 16 1 4
BITMAP
C0
E0
80
40
40
40
40
40
40
40
60
60
60
60
40
40
ENDCHAR
STARTCHAR FE84
ENCODING 65156
SWIDTH 225 0
DWIDTH 5 0
BBX 5 16 0 4
BITMAP
E0
60
80
40
C0
40
40
40
40
40
40
40
20
20
38
18
ENDCHAR
STARTCHAR FE85
ENCODING 65157
SWIDTH 450 0
DWIDTH 10 0
BBX 9 14 1 -2
BITMAP
0800
1800
1000
0000
0700
0580
0480
0780
0380
0100
0100
0200
8E00
7800
ENDCHAR
STARTCHAR FE86
ENCODING 65158
SWIDTH 450 0
DWIDTH 10 0
BBX 9 14 1 -2
BITMAP
0800
1800
1000
0000
0700
0580
0480
0780
0380
0100
0100
0200
8E00
7800
ENDCHAR
STARTCHAR FE87
ENCODING 65159
SWIDTH 225 0
DWIDTH 5 0
BBX 3 18 1 -2
BITMAP
40
40
40
40
40
40
40
60
60
60
60
40
40
00
00
C0
80
C0
ENDCHAR
STARTCHAR FE88
ENCODING 65160
SWIDTH 225 0
DWIDTH 5 0
BBX 5 18 0 -2
BITMAP
40
C0
40
40
40
40
40
40
40
20
20
38
18
00
00
60
40
60
ENDCHAR
STARTCHAR FE89
ENCODING 65161
SWIDTH 630 0
DWIDTH 14 0
BBX 12 13 1 -1
BITMAP
4000
C000
8070
00F0
4100
8100
8100
81F0
8010
8020
81E0
FFC0
7F00
ENDCHAR
STARTCHAR FE8A
ENCODING 65162
SWIDTH 585 0
DWIDTH 13 0
BBX 13 13 0 -2
BITMAP
2000
4000
2000
0000
0000
2000
4078
41F8
8100
81F0
C010
7060
3FC0
ENDCHAR
STARTCHAR FE8B
ENCODING 65163
SWIDTH 225 0
DWIDTH 5 0
BBX 6 12 -1 3
BITMAP
18
20
18
00
00
04
0C
04
04
04
FC
FC
ENDCHAR
STARTCHAR FE8C
ENCODING 65164
SWIDTH 225 0
DWIDTH 5 0
BBX 6 12 -1 3
BITMAP
18
20
18
00
00
04
0C
04
04
04
FC
FC
ENDCHAR
STARTCHAR FE8D
ENCODING 65165
SWIDTH 225 0
DWIDTH 5 0
BBX 2 13 2 3
BITMAP
80
80
80
80
80
80
80
C0
C0
C0
C0
80
80
ENDCHAR
STARTCHAR FE8E
ENCODING 65166
SWIDTH 225 0
DWIDTH 5 0
BBX 5 13 0 3
BITMAP
40
C0
40
40
40
40
40
40
40
20
20
38
18
ENDCHAR
STARTCHAR FE8F
ENCODING 65167
SWIDTH 720 0
DWIDTH 16 0
BBX 15 11 1 -1
BITMAP
8004
8006
8002
8002
C002
FFFE
3FFE
0000
0000
0380
0100
ENDCHAR
STARTCHAR FE90
ENCODING 65168
SWIDTH 720 0
DWIDTH 16 0
BBX 15 11 1 -1
BITMAP
8004
8006
8002
8002
C002
FFFE
3FFE
0000
0000
0380
0100
ENDCHAR
STARTCHAR FE91
ENCODING 65169
SWIDTH 225 0
DWIDTH 5 0
BBX 6 11 -1 -1
BITMAP
04
0C
04
04
04
FC
FC
00
00
18
18
ENDCHAR
STARTCHAR FE92
ENCODING 65170
SWIDTH 225 0
DWIDTH 5 0
BBX 6 11 -1 -1
BITMAP
04
0C
04
04
04
FC
FC
00
00
18
18
ENDCHAR
STARTCHAR FE93
ENCODING 65171
SWIDTH 270 0
DWIDTH 6 0
BBX 6 11 0 3
BITMAP
18
D8
C0
00
00
30
3C
4C
44
7C
78
ENDCHAR
STARTCHAR FE94
ENCODING 65172
SWIDTH 360 0
DWIDTH 8 0
BBX 8 14 0 3
BITMAP
18
58
E0
00
08
08
08
38
6C
CC
F4
04
07
03
ENDCHAR
STARTCHAR FE95
ENCODING 65173
SWIDTH 720 0
DWIDTH 16 0
BBX 15 11 1 3
BITMAP
0080
0580
0600
0000
8004
8006
8002
8002
C002
FFFE
3FFE
ENDCHAR
STARTCHAR FE96
ENCODING 65174
SWIDTH 720 0
DWIDTH 16 0
BBX 15 11 1 3
BITMAP
0080
0580
0600
0000
8004
8006
8002
8002
C002
FFFE
3FFE
ENDCHAR
STARTCHAR FE97
ENCODING 65175
SWIDTH 225 0
DWIDTH 5 0
BBX 6 12 -1 3
BITMAP
08
2C
74
00
00
04
0C
04
04
04
FC
FC
ENDCHAR
STARTCHAR FE98
ENCODING 65176
SWIDTH 225 0
DWIDTH 5 0
BBX 6 12 -1 3
BITMAP
08
2C
74
00
00
04
0C
04
04
04
FC
FC
ENDCHAR
STARTCHAR FE99
ENCODING 65177
SWIDTH 720 0
DWIDTH 16 0
BBX 15 13 1 3
BITMAP
0200
0600
0080
0580
0600
0000
8004
8006
8002
8002
C002
FFFE
3FFE
ENDCHAR
STARTCHAR FE9A
ENCODING 65178
SWIDTH 720 0
DWIDTH 16 0
BBX 15 13 1 3
BITMAP
0200
0600
0080
0580
0600
0000
8004
8006
8002
8002
C002
FFFE
3FFE
ENDCHAR
STARTCHAR FE9B
ENCODING 65179
SWIDTH 225 0
DWIDTH 5 0
BBX 6 14 -1 3
BITMAP
20
30
18
2C
74
00
00
04
0C
04
04
04
FC
FC
ENDCHAR
STARTCHAR FE9C
ENCODING 65180
SWIDTH 225 0
DWIDTH 5 0
BBX 6 14 -1 3
BITMAP
20
30
18
2C
74
00
00
04
0C
04
04
04
FC
FC
ENDCHAR
STARTCHAR FE9D
ENCODING 65181
SWIDTH 585 0
DWIDTH 13 0
BBX 10 15 1 -5
BITMAP
3800
FFC0
CFC0
1800
2000
4000
8400
8600
8200
8000
8000
C000
7800
3FC0
0F00
ENDCHAR
STARTCHAR FE9E
ENCODING 65182
SWIDTH 540 0
DWIDTH 12 0
BBX 11 14 1 -5
BITMAP
7FC0
FFC0
1D00
2100
41E0
80E0
8400
8C00
8000
8000
C000
7800
3FC0
0F00
ENDCHAR
STARTCHAR FE9F
ENCODING 65183
SWIDTH 540 0
DWIDTH 12 0
BBX 13 10 -1 -1
BITMAP
1F00
0780
01C0
00E0
FFF8
FFF8
0000
0400
0600
0200
ENDCHAR
STARTCHAR FEA0
ENCODING 65184
SWIDTH 540 0
DWIDTH 12 0
BBX 13 10 -1 -1
BITMAP
1F00
0780
01C0
00E0
FFF8
FFF8
0000
0400
0600
0200
ENDCHAR
STARTCHAR FEA1
ENCODING 65185
SWIDTH 585 0
DWIDTH 13 0
BBX 10 15 1 -5
BITMAP
3800
FFC0
CFC0
1800
2000
4000
8000
8000
8000
8000
8000
C000
7800
3FC0
0F00
ENDCHAR
STARTCHAR FEA2
ENCODING 65186
SWIDTH 540 0
DWIDTH 12 0
BBX 11 14 1 -5
BITMAP
7FC0
FFC0
1D00
2100
41E0
80E0
8000
8000
8000
8000
C000
7800
3FC0
0F00
ENDCHAR
STARTCHAR FEA3
ENCODING 65187
SWIDTH 540 0
DWIDTH 12 0
BBX 13 6 -1 3
BITMAP
1F00
0780
01C0
00E0
FFF8
FFF8
ENDCHAR
STARTCHAR FEA4
ENCODING 65188
SWIDTH 540 0
DWIDTH 12 0
BBX 13 6 -1 3
BITMAP
1F00
0780
01C0
00E0
FFF8
FFF8
ENDCHAR
STARTCHAR FEA5
ENCODING 65189
SWIDTH 585 0
DWIDTH 13 0
BBX 10 19 1 -5
BITMAP
0C00
0C00
0000
0000
3800
FFC0
CFC0
1800
2000
4000
8000
8000
8000
8000
8000
C000
7800
3FC0
0F00
ENDCHAR
STARTCHAR FEA6
ENCODING 65190
SWIDTH 540 0
DWIDTH 12 0
BBX 11 19 1 -5
BITMAP
0C00
0C00
0000
0000
0000
7FC0
FFC0
1D00
2100
41E0
80E0
8000
8000
8000
8000
C000
7800
3FC0
0F00
ENDCHAR
STARTCHAR FEA7
ENCODING 65191
SWIDTH 540 0
DWIDTH 12 0
BBX 13 11 -1 3
BITMAP
0600
0600
0000
0000
0000
1F00
0780
01C0
00E0
FFF8
FFF8
ENDCHAR
STARTCHAR FEA8
ENCODING 65192
SWIDTH 540 0
DWIDTH 12 0
BBX 13 11 -1 3
BITMAP
0600
0600
0000
0000
0000
1F00
0780
01C0
00E0
FFF8
FFF8
ENDCHAR
STARTCHAR FEA9
ENCODING 65193
SWIDTH 360 0
DWIDTH 8 0
BBX 6 9 1 3
BITMAP
10
18
0C
04
04
04
84
FC
7C
ENDCHAR
STARTCHAR FEAA
ENCODING 65194
SWIDTH 360 0
DWIDTH 8 0
BBX 6 9 1 3
BITMAP
10
18
0C
04
04
04
84
FC
7C
ENDCHAR
STARTCHAR FEAB
ENCODING 65195
SWIDTH 360 0
DWIDTH 8 0
BBX 6 14 1 3
BITMAP
20
60
20
00
00
10
18
0C
04
04
04
84
FC
7C
ENDCHAR
STARTCHAR FEAC
ENCODING 65196
SWIDTH 360 0
DWIDTH 8 0
BBX 6 14 1 3
BITMAP
20
60
20
00
00
10
18
0C
04
04
04
84
FC
7C
ENDCHAR
STARTCHAR FEAD
ENCODING 65197
SWIDTH 495 0
DWIDTH 11 0
BBX 10 11 1 -1
BITMAP
0080
00C0
00C0
0040
0040
0040
00C0
0180
0380
8F00
7C00
ENDCHAR
STARTCHAR FEAE
ENCODING 65198
SWIDTH 495 0
DWIDTH 11 0
BBX 10 11 1 -1
BITMAP
0080
00C0
00C0
0040
0040
0040
00C0
0180
0380
8F00
7C00
ENDCHAR
STARTCHAR FEAF
ENCODING 65199
SWIDTH 495 0
DWIDTH 11 0
BBX 10 16 1 -2
BITMAP
0300
0300
0000
0000
0000
0080
00C0
00C0
0040
0040
0040
00C0
0180
0380
8F00
7C00
ENDCHAR
STARTCHAR FEB0
ENCODING 65200
SWIDTH 495 0
DWIDTH 11 0
BBX 10 16 1 -2
BITMAP
0300
0300
0000
0000
0000
0080
00C0
00C0
0040
0040
0040
00C0
0180
0380
8F00
7C00
ENDCHAR
STARTCHAR FEB1
ENCODING 65201
SWIDTH 810 0
DWIDTH 18 0
BBX 17 11 1 -2
BITMAP
004080
004480
806480
802280
803F80
803D80
802000
804000
C3C000
FF8000
1C0000
ENDCHAR
STARTCHAR FEB2
ENCODING 65202
SWIDTH 810 0
DWIDTH 18 0
BBX 17 11 1 -2
BITMAP
004080
004480
806480
802280
803F80
803D80
802000
804000
C3C000
FF8000
1C0000
ENDCHAR
STARTCHAR FEB3
ENCODING 65203
SWIDTH 540 0
DWIDTH 12 0
BBX 13 5 -1 4
BITMAP
0858
0848
0C68
FFF8
F7B8
ENDCHAR
STARTCHAR FEB4
ENCODING 65204
SWIDTH 540 0
DWIDTH 12 0
BBX 13 5 -1 4
BITMAP
0858
0848
0C68
FFF8
F7B8
ENDCHAR
STARTCHAR FEB5
ENCODING 65205
SWIDTH 810 0
DWIDTH 18 0
BBX 17 18 1 -2
BITMAP
000800
000C00
000200
000B00
001D00
000000
000000
004080
004480
806480
802280
803F80
803D80
802000
804000
C3C000
FF8000
1C0000
ENDCHAR
STARTCHAR FEB6
ENCODING 65206
SWIDTH 810 0
DWIDTH 18 0
BBX 17 18 1 -2
BITMAP
000800
000C00
000200
000B00
001D00
000000
000000
004080
004480
806480
802280
803F80
803D80
802000
804000
C3C000
FF8000
1C0000
ENDCHAR
STARTCHAR FEB7
ENCODING 65207
SWIDTH 540 0
DWIDTH 12 0
BBX 13 13 -1 3
BITMAP
0080
0180
0020
0170
0180
0080
0000
0000
0858
0848
0C68
FFF8
F7B8
ENDCHAR
STARTCHAR FEB8
ENCODING 65208
SWIDTH 540 0
DWIDTH 12 0
BBX 13 13 -1 3
BITMAP
0080
0180
0020
0170
0180
0080
0000
0000
0858
0848
0C68
FFF8
F7B8
ENDCHAR
STARTCHAR FEB9
ENCODING 65209
SWIDTH 1080 0
DWIDTH 24 0
BBX 23 11 1 -2
BITMAP
00403C
00407E
806186
802606
803FFE
803FFE
804000
804000
C3C000
FF8000
1C0000
ENDCHAR
STARTCHAR FEBA
ENCODING 65210
SWIDTH 1080 0
DWIDTH 24 0
BBX 23 11 1 -2
BITMAP
00403C
00407E
806186
802606
803FFE
803FFE
804000
804000
C3C000
FF8000
1C0000
ENDCHAR
STARTCHAR FEBB
ENCODING 65211
SWIDTH 855 0
DWIDTH 19 0
BBX 20 6 -1 3
BITMAP
0001E0
0807F0
081C30
0C7030
FFFFF0
F7FFF0
ENDCHAR
STARTCHAR FEBC
ENCODING 65212
SWIDTH 855 0
DWIDTH 19 0
BBX 20 6 -1 3
BITMAP
0001E0
0807F0
081C30
0C7030
FFFFF0
F7FFF0
ENDCHAR
STARTCHAR FEBD
ENCODING 65213
SWIDTH 1080 0
DWIDTH 24 0
BBX 23 15 1 -2
BITMAP
000300
000300
000000
000000
00403C
00407E
806186
802606
803FFE
803FFE
804000
804000
C3C000
FF8000
1C0000
ENDCHAR
STARTCHAR FEBE
ENCODING 65214
SWIDTH 1080 0
DWIDTH 24 0
BBX 23 15 1 -2
BITMAP
000300
000300
000000
000000
00403C
00407E
806186
802606
803FFE
803FFE
804000
804000
C3C000
FF8000
1C0000
ENDCHAR
STARTCHAR FEBF
ENCODING 65215
SWIDTH 855 0
DWIDTH 19 0
BBX 20 10 -1 3
BITMAP
001000
003800
000000
000000
0001E0
0807F0
081C30
0C7030
FFFFF0
F7FFF0
ENDCHAR
STARTCHAR FEC0
ENCODING 65216
SWIDTH 855 0
DWIDTH 19 0
BBX 20 10 -1 3
BITMAP
001000
003800
000000
000000
0001E0
0807F0
081C30
0C7030
FFFFF0
F7FFF0
ENDCHAR
ENDFONT
